M48
; DRILL file {KiCad (5.1.5)-3} date 2020-03-03 1:48:08 PM
; FORMAT={-:-/ absolute / inch / decimal}
; #@! TF.CreationDate,2020-03-03T13:48:08-08:00
; #@! TF.GenerationSoftware,Kicad,Pcbnew,(5.1.5)-3
; #@! TF.FileFunction,Plated,1,2,PTH
FMAT,2
INCH
T1C0.0118
T2C0.0157
T3C0.0236
T4C0.0295
T5C0.0315
T6C0.0335
T7C0.0394
T8C0.0598
%
G90
G05
T1
X1.7646Y-2.4803
X1.7646Y-2.5197
X1.8Y-2.4803
X1.8Y-2.5197
X1.8354Y-2.4803
X1.8354Y-2.5197
T2
X1.275Y-1.2997
X1.325Y-2.0561
X1.331Y-2.869
X1.375Y-1.25
X1.375Y-1.5
X1.375Y-2.475
X1.475Y-2.475
X1.494Y-2.931
X1.525Y-2.7
X1.625Y-1.35
X1.65Y-2.425
X1.675Y-1.2
X1.775Y-2.6
X1.825Y-1.475
X1.825Y-2.925
X1.9Y-1.1536
X1.9Y-2.775
X1.9217Y-2.5283
X1.925Y-2.825
X1.956Y-2.194
X2.05Y-2.825
X2.125Y-1.775
X2.3Y-2.15
X2.325Y-1.775
X2.375Y-2.225
X2.4433Y-2.225
X2.45Y-2.025
X2.45Y-2.4
X2.487Y-2.29
X2.525Y-2.775
X2.575Y-1.825
X2.575Y-2.85
X2.6Y-2.5036
X2.65Y-2.6
X2.7Y-2.4
X2.75Y-2.325
X2.8Y-1.725
X2.85Y-1.775
X2.8865Y-1.6365
X2.9Y-1.4026
X2.925Y-1.55
X2.925Y-1.775
X2.9526Y-1.2244
X3.0Y-1.625
X3.012Y-1.55
X3.025Y-1.3
X3.125Y-1.275
X3.15Y-1.425
X3.15Y-1.65
X3.19Y-1.55
X3.2Y-1.225
X3.225Y-1.4
X3.225Y-2.025
X3.35Y-1.625
X3.375Y-2.025
X3.4Y-1.425
X3.45Y-2.55
X3.475Y-1.8
X3.55Y-2.2
X3.575Y-2.575
T4
X2.4Y-1.475
X2.4Y-1.525
X2.4Y-1.575
X1.2Y-2.925
X1.2Y-3.0037
T5
X2.999Y-2.3785
X2.999Y-2.8785
X3.373Y-2.3785
X3.373Y-2.8785
X1.7402Y-3.0
X1.8402Y-3.0
X1.9402Y-3.0
X2.0402Y-3.0
X2.1Y-1.1
X2.1402Y-3.0
X2.2Y-1.1
X2.2402Y-3.0
X2.3Y-1.1
X2.3402Y-3.0
X2.4Y-1.1
X2.4402Y-3.0
X2.5Y-1.1
X2.5402Y-3.0
X2.6Y-1.1
X2.6402Y-3.0
X2.7Y-1.1
X2.8Y-1.1
X2.8Y-3.0
X2.9Y-3.0
X3.0Y-1.1
X3.0Y-3.0
X3.1Y-1.1
X3.1Y-3.0
X3.2Y-1.1
X3.2Y-3.0
X3.3Y-1.1
X3.3Y-3.0
X3.4Y-1.1
X3.4Y-3.0
X3.5Y-1.1
X3.5Y-3.0
X3.186Y-2.3785
X3.186Y-2.8785
T6
X3.5424Y-1.9016
X3.5424Y-2.0984
T7
X3.075Y-2.225
X3.175Y-2.225
X3.275Y-2.225
X3.375Y-2.225
X2.375Y-2.55
X2.375Y-2.65
X2.45Y-1.925
X2.7059Y-1.925
T8
X3.55Y-1.3
X3.55Y-1.5
T3
G00X3.6349Y-1.8622
M15
G01X3.6625Y-1.8622
M16
G05
G00X3.6625Y-2.1378
M15
G01X3.6349Y-2.1378
M16
G05
T0
M30
