G04 #@! TF.GenerationSoftware,KiCad,Pcbnew,(5.1.5)-3*
G04 #@! TF.CreationDate,2020-03-03T13:48:05-08:00*
G04 #@! TF.ProjectId,capstonemki,63617073-746f-46e6-956d-6b692e6b6963,rev?*
G04 #@! TF.SameCoordinates,Original*
G04 #@! TF.FileFunction,Copper,L2,Bot*
G04 #@! TF.FilePolarity,Positive*
%FSLAX46Y46*%
G04 Gerber Fmt 4.6, Leading zero omitted, Abs format (unit mm)*
G04 Created by KiCad (PCBNEW (5.1.5)-3) date 2020-03-03 13:48:05*
%MOMM*%
%LPD*%
G04 APERTURE LIST*
%ADD10C,1.600000*%
%ADD11R,1.600000X1.600000*%
%ADD12O,1.600000X1.600000*%
%ADD13O,1.700000X1.700000*%
%ADD14R,1.700000X1.700000*%
%ADD15R,1.500000X1.050000*%
%ADD16O,1.500000X1.050000*%
%ADD17C,3.000000*%
%ADD18R,3.000000X3.000000*%
%ADD19R,1.900000X1.200000*%
%ADD20O,1.900000X1.200000*%
%ADD21R,1.900000X1.500000*%
%ADD22C,1.450000*%
%ADD23R,1.350000X0.400000*%
%ADD24O,1.750000X1.200000*%
%ADD25C,0.100000*%
%ADD26R,2.600000X1.950000*%
%ADD27C,0.600000*%
%ADD28C,0.800000*%
%ADD29C,0.250000*%
%ADD30C,0.200000*%
G04 APERTURE END LIST*
D10*
X68730000Y-48895000D03*
D11*
X62230000Y-48895000D03*
D12*
X76175000Y-60415000D03*
D10*
X76175000Y-73115000D03*
D12*
X80925000Y-60415000D03*
D10*
X80925000Y-73115000D03*
D12*
X85675000Y-60415000D03*
D10*
X85675000Y-73115000D03*
D13*
X78105000Y-56515000D03*
X80645000Y-56515000D03*
X83185000Y-56515000D03*
D14*
X85725000Y-56515000D03*
D15*
X60960000Y-37465000D03*
D16*
X60960000Y-40005000D03*
X60960000Y-38735000D03*
D17*
X90170000Y-38100000D03*
D18*
X90170000Y-33020000D03*
D13*
X60325000Y-64770000D03*
D14*
X60325000Y-67310000D03*
D19*
X92677500Y-47900000D03*
X92677500Y-53700000D03*
D20*
X92677500Y-54300000D03*
X92677500Y-47300000D03*
D21*
X92677500Y-49800000D03*
D22*
X89977500Y-53300000D03*
D23*
X89977500Y-50800000D03*
X89977500Y-51450000D03*
X89977500Y-52100000D03*
X89977500Y-49500000D03*
X89977500Y-50150000D03*
D22*
X89977500Y-48300000D03*
D21*
X92677500Y-51800000D03*
D24*
X30480000Y-76295000D03*
G04 #@! TA.AperFunction,ComponentPad*
D25*
G36*
X31129505Y-73696204D02*
G01*
X31153773Y-73699804D01*
X31177572Y-73705765D01*
X31200671Y-73714030D01*
X31222850Y-73724520D01*
X31243893Y-73737132D01*
X31263599Y-73751747D01*
X31281777Y-73768223D01*
X31298253Y-73786401D01*
X31312868Y-73806107D01*
X31325480Y-73827150D01*
X31335970Y-73849329D01*
X31344235Y-73872428D01*
X31350196Y-73896227D01*
X31353796Y-73920495D01*
X31355000Y-73944999D01*
X31355000Y-74645001D01*
X31353796Y-74669505D01*
X31350196Y-74693773D01*
X31344235Y-74717572D01*
X31335970Y-74740671D01*
X31325480Y-74762850D01*
X31312868Y-74783893D01*
X31298253Y-74803599D01*
X31281777Y-74821777D01*
X31263599Y-74838253D01*
X31243893Y-74852868D01*
X31222850Y-74865480D01*
X31200671Y-74875970D01*
X31177572Y-74884235D01*
X31153773Y-74890196D01*
X31129505Y-74893796D01*
X31105001Y-74895000D01*
X29854999Y-74895000D01*
X29830495Y-74893796D01*
X29806227Y-74890196D01*
X29782428Y-74884235D01*
X29759329Y-74875970D01*
X29737150Y-74865480D01*
X29716107Y-74852868D01*
X29696401Y-74838253D01*
X29678223Y-74821777D01*
X29661747Y-74803599D01*
X29647132Y-74783893D01*
X29634520Y-74762850D01*
X29624030Y-74740671D01*
X29615765Y-74717572D01*
X29609804Y-74693773D01*
X29606204Y-74669505D01*
X29605000Y-74645001D01*
X29605000Y-73944999D01*
X29606204Y-73920495D01*
X29609804Y-73896227D01*
X29615765Y-73872428D01*
X29624030Y-73849329D01*
X29634520Y-73827150D01*
X29647132Y-73806107D01*
X29661747Y-73786401D01*
X29678223Y-73768223D01*
X29696401Y-73751747D01*
X29716107Y-73737132D01*
X29737150Y-73724520D01*
X29759329Y-73714030D01*
X29782428Y-73705765D01*
X29806227Y-73699804D01*
X29830495Y-73696204D01*
X29854999Y-73695000D01*
X31105001Y-73695000D01*
X31129505Y-73696204D01*
G37*
G04 #@! TD.AperFunction*
G04 #@! TA.AperFunction,SMDPad,CuDef*
G36*
X89812691Y-58861053D02*
G01*
X89833926Y-58864203D01*
X89854750Y-58869419D01*
X89874962Y-58876651D01*
X89894368Y-58885830D01*
X89912781Y-58896866D01*
X89930024Y-58909654D01*
X89945930Y-58924070D01*
X89960346Y-58939976D01*
X89973134Y-58957219D01*
X89984170Y-58975632D01*
X89993349Y-58995038D01*
X90000581Y-59015250D01*
X90005797Y-59036074D01*
X90008947Y-59057309D01*
X90010000Y-59078750D01*
X90010000Y-59516250D01*
X90008947Y-59537691D01*
X90005797Y-59558926D01*
X90000581Y-59579750D01*
X89993349Y-59599962D01*
X89984170Y-59619368D01*
X89973134Y-59637781D01*
X89960346Y-59655024D01*
X89945930Y-59670930D01*
X89930024Y-59685346D01*
X89912781Y-59698134D01*
X89894368Y-59709170D01*
X89874962Y-59718349D01*
X89854750Y-59725581D01*
X89833926Y-59730797D01*
X89812691Y-59733947D01*
X89791250Y-59735000D01*
X89278750Y-59735000D01*
X89257309Y-59733947D01*
X89236074Y-59730797D01*
X89215250Y-59725581D01*
X89195038Y-59718349D01*
X89175632Y-59709170D01*
X89157219Y-59698134D01*
X89139976Y-59685346D01*
X89124070Y-59670930D01*
X89109654Y-59655024D01*
X89096866Y-59637781D01*
X89085830Y-59619368D01*
X89076651Y-59599962D01*
X89069419Y-59579750D01*
X89064203Y-59558926D01*
X89061053Y-59537691D01*
X89060000Y-59516250D01*
X89060000Y-59078750D01*
X89061053Y-59057309D01*
X89064203Y-59036074D01*
X89069419Y-59015250D01*
X89076651Y-58995038D01*
X89085830Y-58975632D01*
X89096866Y-58957219D01*
X89109654Y-58939976D01*
X89124070Y-58924070D01*
X89139976Y-58909654D01*
X89157219Y-58896866D01*
X89175632Y-58885830D01*
X89195038Y-58876651D01*
X89215250Y-58869419D01*
X89236074Y-58864203D01*
X89257309Y-58861053D01*
X89278750Y-58860000D01*
X89791250Y-58860000D01*
X89812691Y-58861053D01*
G37*
G04 #@! TD.AperFunction*
G04 #@! TA.AperFunction,SMDPad,CuDef*
G36*
X89812691Y-60436053D02*
G01*
X89833926Y-60439203D01*
X89854750Y-60444419D01*
X89874962Y-60451651D01*
X89894368Y-60460830D01*
X89912781Y-60471866D01*
X89930024Y-60484654D01*
X89945930Y-60499070D01*
X89960346Y-60514976D01*
X89973134Y-60532219D01*
X89984170Y-60550632D01*
X89993349Y-60570038D01*
X90000581Y-60590250D01*
X90005797Y-60611074D01*
X90008947Y-60632309D01*
X90010000Y-60653750D01*
X90010000Y-61091250D01*
X90008947Y-61112691D01*
X90005797Y-61133926D01*
X90000581Y-61154750D01*
X89993349Y-61174962D01*
X89984170Y-61194368D01*
X89973134Y-61212781D01*
X89960346Y-61230024D01*
X89945930Y-61245930D01*
X89930024Y-61260346D01*
X89912781Y-61273134D01*
X89894368Y-61284170D01*
X89874962Y-61293349D01*
X89854750Y-61300581D01*
X89833926Y-61305797D01*
X89812691Y-61308947D01*
X89791250Y-61310000D01*
X89278750Y-61310000D01*
X89257309Y-61308947D01*
X89236074Y-61305797D01*
X89215250Y-61300581D01*
X89195038Y-61293349D01*
X89175632Y-61284170D01*
X89157219Y-61273134D01*
X89139976Y-61260346D01*
X89124070Y-61245930D01*
X89109654Y-61230024D01*
X89096866Y-61212781D01*
X89085830Y-61194368D01*
X89076651Y-61174962D01*
X89069419Y-61154750D01*
X89064203Y-61133926D01*
X89061053Y-61112691D01*
X89060000Y-61091250D01*
X89060000Y-60653750D01*
X89061053Y-60632309D01*
X89064203Y-60611074D01*
X89069419Y-60590250D01*
X89076651Y-60570038D01*
X89085830Y-60550632D01*
X89096866Y-60532219D01*
X89109654Y-60514976D01*
X89124070Y-60499070D01*
X89139976Y-60484654D01*
X89157219Y-60471866D01*
X89175632Y-60460830D01*
X89195038Y-60451651D01*
X89215250Y-60444419D01*
X89236074Y-60439203D01*
X89257309Y-60436053D01*
X89278750Y-60435000D01*
X89791250Y-60435000D01*
X89812691Y-60436053D01*
G37*
G04 #@! TD.AperFunction*
G04 #@! TA.AperFunction,SMDPad,CuDef*
G36*
X89812691Y-67356053D02*
G01*
X89833926Y-67359203D01*
X89854750Y-67364419D01*
X89874962Y-67371651D01*
X89894368Y-67380830D01*
X89912781Y-67391866D01*
X89930024Y-67404654D01*
X89945930Y-67419070D01*
X89960346Y-67434976D01*
X89973134Y-67452219D01*
X89984170Y-67470632D01*
X89993349Y-67490038D01*
X90000581Y-67510250D01*
X90005797Y-67531074D01*
X90008947Y-67552309D01*
X90010000Y-67573750D01*
X90010000Y-68011250D01*
X90008947Y-68032691D01*
X90005797Y-68053926D01*
X90000581Y-68074750D01*
X89993349Y-68094962D01*
X89984170Y-68114368D01*
X89973134Y-68132781D01*
X89960346Y-68150024D01*
X89945930Y-68165930D01*
X89930024Y-68180346D01*
X89912781Y-68193134D01*
X89894368Y-68204170D01*
X89874962Y-68213349D01*
X89854750Y-68220581D01*
X89833926Y-68225797D01*
X89812691Y-68228947D01*
X89791250Y-68230000D01*
X89278750Y-68230000D01*
X89257309Y-68228947D01*
X89236074Y-68225797D01*
X89215250Y-68220581D01*
X89195038Y-68213349D01*
X89175632Y-68204170D01*
X89157219Y-68193134D01*
X89139976Y-68180346D01*
X89124070Y-68165930D01*
X89109654Y-68150024D01*
X89096866Y-68132781D01*
X89085830Y-68114368D01*
X89076651Y-68094962D01*
X89069419Y-68074750D01*
X89064203Y-68053926D01*
X89061053Y-68032691D01*
X89060000Y-68011250D01*
X89060000Y-67573750D01*
X89061053Y-67552309D01*
X89064203Y-67531074D01*
X89069419Y-67510250D01*
X89076651Y-67490038D01*
X89085830Y-67470632D01*
X89096866Y-67452219D01*
X89109654Y-67434976D01*
X89124070Y-67419070D01*
X89139976Y-67404654D01*
X89157219Y-67391866D01*
X89175632Y-67380830D01*
X89195038Y-67371651D01*
X89215250Y-67364419D01*
X89236074Y-67359203D01*
X89257309Y-67356053D01*
X89278750Y-67355000D01*
X89791250Y-67355000D01*
X89812691Y-67356053D01*
G37*
G04 #@! TD.AperFunction*
G04 #@! TA.AperFunction,SMDPad,CuDef*
G36*
X89812691Y-68931053D02*
G01*
X89833926Y-68934203D01*
X89854750Y-68939419D01*
X89874962Y-68946651D01*
X89894368Y-68955830D01*
X89912781Y-68966866D01*
X89930024Y-68979654D01*
X89945930Y-68994070D01*
X89960346Y-69009976D01*
X89973134Y-69027219D01*
X89984170Y-69045632D01*
X89993349Y-69065038D01*
X90000581Y-69085250D01*
X90005797Y-69106074D01*
X90008947Y-69127309D01*
X90010000Y-69148750D01*
X90010000Y-69586250D01*
X90008947Y-69607691D01*
X90005797Y-69628926D01*
X90000581Y-69649750D01*
X89993349Y-69669962D01*
X89984170Y-69689368D01*
X89973134Y-69707781D01*
X89960346Y-69725024D01*
X89945930Y-69740930D01*
X89930024Y-69755346D01*
X89912781Y-69768134D01*
X89894368Y-69779170D01*
X89874962Y-69788349D01*
X89854750Y-69795581D01*
X89833926Y-69800797D01*
X89812691Y-69803947D01*
X89791250Y-69805000D01*
X89278750Y-69805000D01*
X89257309Y-69803947D01*
X89236074Y-69800797D01*
X89215250Y-69795581D01*
X89195038Y-69788349D01*
X89175632Y-69779170D01*
X89157219Y-69768134D01*
X89139976Y-69755346D01*
X89124070Y-69740930D01*
X89109654Y-69725024D01*
X89096866Y-69707781D01*
X89085830Y-69689368D01*
X89076651Y-69669962D01*
X89069419Y-69649750D01*
X89064203Y-69628926D01*
X89061053Y-69607691D01*
X89060000Y-69586250D01*
X89060000Y-69148750D01*
X89061053Y-69127309D01*
X89064203Y-69106074D01*
X89069419Y-69085250D01*
X89076651Y-69065038D01*
X89085830Y-69045632D01*
X89096866Y-69027219D01*
X89109654Y-69009976D01*
X89124070Y-68994070D01*
X89139976Y-68979654D01*
X89157219Y-68966866D01*
X89175632Y-68955830D01*
X89195038Y-68946651D01*
X89215250Y-68939419D01*
X89236074Y-68934203D01*
X89257309Y-68931053D01*
X89278750Y-68930000D01*
X89791250Y-68930000D01*
X89812691Y-68931053D01*
G37*
G04 #@! TD.AperFunction*
G04 #@! TA.AperFunction,SMDPad,CuDef*
G36*
X89812691Y-62276053D02*
G01*
X89833926Y-62279203D01*
X89854750Y-62284419D01*
X89874962Y-62291651D01*
X89894368Y-62300830D01*
X89912781Y-62311866D01*
X89930024Y-62324654D01*
X89945930Y-62339070D01*
X89960346Y-62354976D01*
X89973134Y-62372219D01*
X89984170Y-62390632D01*
X89993349Y-62410038D01*
X90000581Y-62430250D01*
X90005797Y-62451074D01*
X90008947Y-62472309D01*
X90010000Y-62493750D01*
X90010000Y-62931250D01*
X90008947Y-62952691D01*
X90005797Y-62973926D01*
X90000581Y-62994750D01*
X89993349Y-63014962D01*
X89984170Y-63034368D01*
X89973134Y-63052781D01*
X89960346Y-63070024D01*
X89945930Y-63085930D01*
X89930024Y-63100346D01*
X89912781Y-63113134D01*
X89894368Y-63124170D01*
X89874962Y-63133349D01*
X89854750Y-63140581D01*
X89833926Y-63145797D01*
X89812691Y-63148947D01*
X89791250Y-63150000D01*
X89278750Y-63150000D01*
X89257309Y-63148947D01*
X89236074Y-63145797D01*
X89215250Y-63140581D01*
X89195038Y-63133349D01*
X89175632Y-63124170D01*
X89157219Y-63113134D01*
X89139976Y-63100346D01*
X89124070Y-63085930D01*
X89109654Y-63070024D01*
X89096866Y-63052781D01*
X89085830Y-63034368D01*
X89076651Y-63014962D01*
X89069419Y-62994750D01*
X89064203Y-62973926D01*
X89061053Y-62952691D01*
X89060000Y-62931250D01*
X89060000Y-62493750D01*
X89061053Y-62472309D01*
X89064203Y-62451074D01*
X89069419Y-62430250D01*
X89076651Y-62410038D01*
X89085830Y-62390632D01*
X89096866Y-62372219D01*
X89109654Y-62354976D01*
X89124070Y-62339070D01*
X89139976Y-62324654D01*
X89157219Y-62311866D01*
X89175632Y-62300830D01*
X89195038Y-62291651D01*
X89215250Y-62284419D01*
X89236074Y-62279203D01*
X89257309Y-62276053D01*
X89278750Y-62275000D01*
X89791250Y-62275000D01*
X89812691Y-62276053D01*
G37*
G04 #@! TD.AperFunction*
G04 #@! TA.AperFunction,SMDPad,CuDef*
G36*
X89812691Y-63851053D02*
G01*
X89833926Y-63854203D01*
X89854750Y-63859419D01*
X89874962Y-63866651D01*
X89894368Y-63875830D01*
X89912781Y-63886866D01*
X89930024Y-63899654D01*
X89945930Y-63914070D01*
X89960346Y-63929976D01*
X89973134Y-63947219D01*
X89984170Y-63965632D01*
X89993349Y-63985038D01*
X90000581Y-64005250D01*
X90005797Y-64026074D01*
X90008947Y-64047309D01*
X90010000Y-64068750D01*
X90010000Y-64506250D01*
X90008947Y-64527691D01*
X90005797Y-64548926D01*
X90000581Y-64569750D01*
X89993349Y-64589962D01*
X89984170Y-64609368D01*
X89973134Y-64627781D01*
X89960346Y-64645024D01*
X89945930Y-64660930D01*
X89930024Y-64675346D01*
X89912781Y-64688134D01*
X89894368Y-64699170D01*
X89874962Y-64708349D01*
X89854750Y-64715581D01*
X89833926Y-64720797D01*
X89812691Y-64723947D01*
X89791250Y-64725000D01*
X89278750Y-64725000D01*
X89257309Y-64723947D01*
X89236074Y-64720797D01*
X89215250Y-64715581D01*
X89195038Y-64708349D01*
X89175632Y-64699170D01*
X89157219Y-64688134D01*
X89139976Y-64675346D01*
X89124070Y-64660930D01*
X89109654Y-64645024D01*
X89096866Y-64627781D01*
X89085830Y-64609368D01*
X89076651Y-64589962D01*
X89069419Y-64569750D01*
X89064203Y-64548926D01*
X89061053Y-64527691D01*
X89060000Y-64506250D01*
X89060000Y-64068750D01*
X89061053Y-64047309D01*
X89064203Y-64026074D01*
X89069419Y-64005250D01*
X89076651Y-63985038D01*
X89085830Y-63965632D01*
X89096866Y-63947219D01*
X89109654Y-63929976D01*
X89124070Y-63914070D01*
X89139976Y-63899654D01*
X89157219Y-63886866D01*
X89175632Y-63875830D01*
X89195038Y-63866651D01*
X89215250Y-63859419D01*
X89236074Y-63854203D01*
X89257309Y-63851053D01*
X89278750Y-63850000D01*
X89791250Y-63850000D01*
X89812691Y-63851053D01*
G37*
G04 #@! TD.AperFunction*
G04 #@! TA.AperFunction,SMDPad,CuDef*
G36*
X89812691Y-71318553D02*
G01*
X89833926Y-71321703D01*
X89854750Y-71326919D01*
X89874962Y-71334151D01*
X89894368Y-71343330D01*
X89912781Y-71354366D01*
X89930024Y-71367154D01*
X89945930Y-71381570D01*
X89960346Y-71397476D01*
X89973134Y-71414719D01*
X89984170Y-71433132D01*
X89993349Y-71452538D01*
X90000581Y-71472750D01*
X90005797Y-71493574D01*
X90008947Y-71514809D01*
X90010000Y-71536250D01*
X90010000Y-71973750D01*
X90008947Y-71995191D01*
X90005797Y-72016426D01*
X90000581Y-72037250D01*
X89993349Y-72057462D01*
X89984170Y-72076868D01*
X89973134Y-72095281D01*
X89960346Y-72112524D01*
X89945930Y-72128430D01*
X89930024Y-72142846D01*
X89912781Y-72155634D01*
X89894368Y-72166670D01*
X89874962Y-72175849D01*
X89854750Y-72183081D01*
X89833926Y-72188297D01*
X89812691Y-72191447D01*
X89791250Y-72192500D01*
X89278750Y-72192500D01*
X89257309Y-72191447D01*
X89236074Y-72188297D01*
X89215250Y-72183081D01*
X89195038Y-72175849D01*
X89175632Y-72166670D01*
X89157219Y-72155634D01*
X89139976Y-72142846D01*
X89124070Y-72128430D01*
X89109654Y-72112524D01*
X89096866Y-72095281D01*
X89085830Y-72076868D01*
X89076651Y-72057462D01*
X89069419Y-72037250D01*
X89064203Y-72016426D01*
X89061053Y-71995191D01*
X89060000Y-71973750D01*
X89060000Y-71536250D01*
X89061053Y-71514809D01*
X89064203Y-71493574D01*
X89069419Y-71472750D01*
X89076651Y-71452538D01*
X89085830Y-71433132D01*
X89096866Y-71414719D01*
X89109654Y-71397476D01*
X89124070Y-71381570D01*
X89139976Y-71367154D01*
X89157219Y-71354366D01*
X89175632Y-71343330D01*
X89195038Y-71334151D01*
X89215250Y-71326919D01*
X89236074Y-71321703D01*
X89257309Y-71318553D01*
X89278750Y-71317500D01*
X89791250Y-71317500D01*
X89812691Y-71318553D01*
G37*
G04 #@! TD.AperFunction*
G04 #@! TA.AperFunction,SMDPad,CuDef*
G36*
X89812691Y-72893553D02*
G01*
X89833926Y-72896703D01*
X89854750Y-72901919D01*
X89874962Y-72909151D01*
X89894368Y-72918330D01*
X89912781Y-72929366D01*
X89930024Y-72942154D01*
X89945930Y-72956570D01*
X89960346Y-72972476D01*
X89973134Y-72989719D01*
X89984170Y-73008132D01*
X89993349Y-73027538D01*
X90000581Y-73047750D01*
X90005797Y-73068574D01*
X90008947Y-73089809D01*
X90010000Y-73111250D01*
X90010000Y-73548750D01*
X90008947Y-73570191D01*
X90005797Y-73591426D01*
X90000581Y-73612250D01*
X89993349Y-73632462D01*
X89984170Y-73651868D01*
X89973134Y-73670281D01*
X89960346Y-73687524D01*
X89945930Y-73703430D01*
X89930024Y-73717846D01*
X89912781Y-73730634D01*
X89894368Y-73741670D01*
X89874962Y-73750849D01*
X89854750Y-73758081D01*
X89833926Y-73763297D01*
X89812691Y-73766447D01*
X89791250Y-73767500D01*
X89278750Y-73767500D01*
X89257309Y-73766447D01*
X89236074Y-73763297D01*
X89215250Y-73758081D01*
X89195038Y-73750849D01*
X89175632Y-73741670D01*
X89157219Y-73730634D01*
X89139976Y-73717846D01*
X89124070Y-73703430D01*
X89109654Y-73687524D01*
X89096866Y-73670281D01*
X89085830Y-73651868D01*
X89076651Y-73632462D01*
X89069419Y-73612250D01*
X89064203Y-73591426D01*
X89061053Y-73570191D01*
X89060000Y-73548750D01*
X89060000Y-73111250D01*
X89061053Y-73089809D01*
X89064203Y-73068574D01*
X89069419Y-73047750D01*
X89076651Y-73027538D01*
X89085830Y-73008132D01*
X89096866Y-72989719D01*
X89109654Y-72972476D01*
X89124070Y-72956570D01*
X89139976Y-72942154D01*
X89157219Y-72929366D01*
X89175632Y-72918330D01*
X89195038Y-72909151D01*
X89215250Y-72901919D01*
X89236074Y-72896703D01*
X89257309Y-72893553D01*
X89278750Y-72892500D01*
X89791250Y-72892500D01*
X89812691Y-72893553D01*
G37*
G04 #@! TD.AperFunction*
D12*
X86360000Y-76200000D03*
X88900000Y-76200000D03*
X49280000Y-76200000D03*
X88900000Y-27940000D03*
X51820000Y-76200000D03*
X86360000Y-27940000D03*
X54360000Y-76200000D03*
X83820000Y-27940000D03*
X56900000Y-76200000D03*
X81280000Y-27940000D03*
X59440000Y-76200000D03*
X78740000Y-27940000D03*
X61980000Y-76200000D03*
X76200000Y-27940000D03*
X64520000Y-76200000D03*
X71120000Y-27940000D03*
X67060000Y-76200000D03*
X68580000Y-27940000D03*
X71120000Y-76200000D03*
X66040000Y-27940000D03*
X73660000Y-76200000D03*
X63500000Y-27940000D03*
X76200000Y-76200000D03*
X60960000Y-27940000D03*
X78740000Y-76200000D03*
X58420000Y-27940000D03*
X81280000Y-76200000D03*
X55880000Y-27940000D03*
X83820000Y-76200000D03*
D11*
X53340000Y-27940000D03*
D12*
X46740000Y-76200000D03*
X44200000Y-76200000D03*
D26*
X45720000Y-63500000D03*
D27*
X45720000Y-64000000D03*
X45720000Y-63000000D03*
X44820000Y-63000000D03*
X46620000Y-63000000D03*
X46620000Y-64000000D03*
X44820000Y-64000000D03*
D28*
X65405000Y-72390000D03*
X62060000Y-56515000D03*
X63169800Y-58166000D03*
X68580000Y-60960000D03*
X67310000Y-66040000D03*
X81280000Y-31115000D03*
X42545000Y-30480000D03*
X41275000Y-34290000D03*
X46355000Y-37465000D03*
X88265000Y-45720000D03*
X33807500Y-72872500D03*
X72390000Y-45085000D03*
X76835000Y-33020000D03*
X79375000Y-32385000D03*
X69850000Y-59055000D03*
X71120000Y-43815000D03*
X73316334Y-41566334D03*
X74295000Y-45085000D03*
X81915000Y-51435000D03*
X85725000Y-51435000D03*
X87630000Y-64770000D03*
X34925000Y-62865000D03*
X46355000Y-74295000D03*
X37465000Y-62865000D03*
X48260000Y-70485000D03*
X33655000Y-52225000D03*
X32385000Y-33012500D03*
X64135000Y-70485000D03*
X62230000Y-60960000D03*
X60325000Y-56515000D03*
X49682500Y-55727500D03*
X58420000Y-54610000D03*
X41910000Y-61595000D03*
X52070000Y-71755000D03*
X48895000Y-71755000D03*
X37947500Y-74447500D03*
X38735000Y-68580000D03*
X48810000Y-64220000D03*
X45085000Y-66040000D03*
X48260000Y-29301140D03*
X74995001Y-31100799D03*
X34925000Y-38100000D03*
X62230000Y-51435000D03*
X73660000Y-35625001D03*
X81915000Y-35560000D03*
X86360000Y-36195000D03*
X53975000Y-45085000D03*
X59055000Y-45085000D03*
X65405000Y-46355000D03*
X80010000Y-41910000D03*
X90170000Y-55880000D03*
X76200000Y-41275000D03*
X74295000Y-39370000D03*
X90805000Y-65405000D03*
X85090000Y-41275000D03*
X81026000Y-39370000D03*
X76504800Y-39370000D03*
X66040000Y-63592500D03*
X80010000Y-36195000D03*
X34925000Y-31750000D03*
D29*
X55630000Y-72390000D02*
X51820000Y-76200000D01*
X65405000Y-72390000D02*
X55630000Y-72390000D01*
D30*
X62060000Y-56515000D02*
X62625685Y-56515000D01*
X62625685Y-56515000D02*
X62687200Y-56515000D01*
X62687200Y-56515000D02*
X63169800Y-56997600D01*
X63169800Y-56997600D02*
X63169800Y-58166000D01*
X63169800Y-58166000D02*
X63169800Y-58166000D01*
X68580000Y-60960000D02*
X68580000Y-64770000D01*
X68580000Y-64770000D02*
X67310000Y-66040000D01*
X67310000Y-66040000D02*
X67310000Y-66040000D01*
X84455000Y-31115000D02*
X81280000Y-31115000D01*
X81280000Y-31115000D02*
X81280000Y-31115000D01*
X63500000Y-30480000D02*
X66040000Y-27940000D01*
X42545000Y-30480000D02*
X63500000Y-30480000D01*
X41275000Y-34290000D02*
X43180000Y-34290000D01*
X43180000Y-34290000D02*
X46355000Y-37465000D01*
X46355000Y-37465000D02*
X46355000Y-37465000D01*
D29*
X88670001Y-35330001D02*
X84455000Y-31115000D01*
X88670001Y-36600001D02*
X88670001Y-35330001D01*
X90170000Y-38100000D02*
X88670001Y-36600001D01*
D30*
X89102500Y-52100000D02*
X89977500Y-52100000D01*
X88265000Y-51262500D02*
X89102500Y-52100000D01*
X88265000Y-45720000D02*
X88265000Y-51262500D01*
X31555000Y-76295000D02*
X32385000Y-75465000D01*
X30480000Y-76295000D02*
X31555000Y-76295000D01*
X32385000Y-74295000D02*
X33807500Y-72872500D01*
X32385000Y-75465000D02*
X32385000Y-74295000D01*
X72390000Y-45085000D02*
X72390000Y-36195000D01*
X72390000Y-36195000D02*
X72390000Y-34290000D01*
X72390000Y-34290000D02*
X72390000Y-33655000D01*
X72390000Y-33655000D02*
X73660000Y-32385000D01*
X73660000Y-32385000D02*
X74295000Y-32385000D01*
X74295000Y-32385000D02*
X74295000Y-32385000D01*
X74295000Y-32385000D02*
X76200000Y-32385000D01*
X76200000Y-32385000D02*
X76835000Y-33020000D01*
X76835000Y-33020000D02*
X76835000Y-33020000D01*
X79375000Y-32385000D02*
X81915000Y-32385000D01*
X81915000Y-32385000D02*
X83185000Y-33655000D01*
X83185000Y-33655000D02*
X83185000Y-45720000D01*
X83185000Y-45720000D02*
X69850000Y-59055000D01*
X69850000Y-59055000D02*
X69850000Y-59055000D01*
X71120000Y-27940000D02*
X71120000Y-43815000D01*
X71120000Y-43815000D02*
X71120000Y-43815000D01*
X73316334Y-41566334D02*
X73316334Y-44106334D01*
X73316334Y-44106334D02*
X74295000Y-45085000D01*
X74295000Y-45085000D02*
X74295000Y-45085000D01*
X81915000Y-51435000D02*
X85725000Y-51435000D01*
X85725000Y-51435000D02*
X85725000Y-51435000D01*
X89060000Y-67792500D02*
X89535000Y-67792500D01*
X87630000Y-66362500D02*
X89060000Y-67792500D01*
X87630000Y-64770000D02*
X87630000Y-66362500D01*
X34925000Y-62865000D02*
X43815000Y-71755000D01*
X43815000Y-71755000D02*
X46355000Y-74295000D01*
X46355000Y-74295000D02*
X46355000Y-74295000D01*
X37465000Y-62865000D02*
X40005000Y-62865000D01*
X40005000Y-62865000D02*
X40640000Y-62865000D01*
X40640000Y-62865000D02*
X48260000Y-70485000D01*
X48260000Y-70485000D02*
X48260000Y-70485000D01*
X61180001Y-76999999D02*
X61980000Y-76200000D01*
X60879999Y-77300001D02*
X61180001Y-76999999D01*
X39763999Y-77300001D02*
X60879999Y-77300001D01*
X33655000Y-71191002D02*
X39763999Y-77300001D01*
X33655000Y-52225000D02*
X33655000Y-71191002D01*
X32385000Y-33012500D02*
X50792500Y-33012500D01*
X50792500Y-33012500D02*
X64135000Y-46355000D01*
X64135000Y-46355000D02*
X64135000Y-70485000D01*
X64135000Y-70485000D02*
X64135000Y-70485000D01*
X76175000Y-73115000D02*
X76175000Y-71983630D01*
X76175000Y-76175000D02*
X76200000Y-76200000D01*
X76175000Y-73115000D02*
X76175000Y-76175000D01*
X78740000Y-75300000D02*
X78740000Y-76200000D01*
X80925000Y-73115000D02*
X78740000Y-75300000D01*
X84365000Y-73115000D02*
X81280000Y-76200000D01*
X85675000Y-73115000D02*
X84365000Y-73115000D01*
X62230000Y-60960000D02*
X62230000Y-58420000D01*
X62230000Y-58420000D02*
X60325000Y-56515000D01*
X60325000Y-56515000D02*
X60325000Y-56515000D01*
X49682500Y-73257500D02*
X46740000Y-76200000D01*
X49682500Y-55727500D02*
X49682500Y-73257500D01*
X58420000Y-54610000D02*
X44450000Y-54610000D01*
X44450000Y-54610000D02*
X41910000Y-57150000D01*
X41910000Y-57150000D02*
X41910000Y-61595000D01*
X41910000Y-61595000D02*
X41910000Y-61595000D01*
X58420000Y-54610000D02*
X58420000Y-65405000D01*
X58420000Y-65405000D02*
X52070000Y-71755000D01*
X52070000Y-71755000D02*
X52070000Y-71755000D01*
X44999999Y-75400001D02*
X44200000Y-76200000D01*
X45300001Y-75099999D02*
X44999999Y-75400001D01*
X46586003Y-75099999D02*
X45300001Y-75099999D01*
X48895000Y-72791002D02*
X46586003Y-75099999D01*
X48895000Y-71755000D02*
X48895000Y-72791002D01*
X37947500Y-74447500D02*
X37947500Y-69367500D01*
X37947500Y-69367500D02*
X38735000Y-68580000D01*
X38735000Y-68580000D02*
X38735000Y-68580000D01*
X48810000Y-64220000D02*
X46990000Y-66040000D01*
X46990000Y-66040000D02*
X45085000Y-66040000D01*
X45085000Y-66040000D02*
X45085000Y-66040000D01*
X51286826Y-26839999D02*
X71648001Y-26839999D01*
X71648001Y-26839999D02*
X74995001Y-30186999D01*
X48260000Y-29301140D02*
X48825685Y-29301140D01*
X48825685Y-29301140D02*
X51286826Y-26839999D01*
X74995001Y-30186999D02*
X74995001Y-31100799D01*
X74995001Y-31100799D02*
X74995001Y-31100799D01*
X34925000Y-38100000D02*
X34925000Y-39370000D01*
X34925000Y-39370000D02*
X46990000Y-51435000D01*
X46990000Y-51435000D02*
X62230000Y-51435000D01*
X62230000Y-51435000D02*
X62230000Y-51435000D01*
X89535000Y-71755000D02*
X89535000Y-69367500D01*
X89535000Y-62712500D02*
X89535000Y-60872500D01*
X73660000Y-35625001D02*
X73660000Y-34290000D01*
X73660000Y-34290000D02*
X74295000Y-33655000D01*
X74295000Y-33655000D02*
X76433998Y-33655000D01*
X76498999Y-33720001D02*
X80075001Y-33720001D01*
X76433998Y-33655000D02*
X76498999Y-33720001D01*
X80075001Y-33720001D02*
X81915000Y-35560000D01*
X81915000Y-35560000D02*
X81915000Y-35560000D01*
X92075000Y-61595000D02*
X92075000Y-61595000D01*
X90010000Y-64287500D02*
X89535000Y-64287500D01*
X86360000Y-36195000D02*
X86360000Y-51033998D01*
X87630000Y-54610000D02*
X92075000Y-59055000D01*
X92075000Y-62222500D02*
X90010000Y-64287500D01*
X87630000Y-52303998D02*
X87630000Y-54610000D01*
X86360000Y-51033998D02*
X87630000Y-52303998D01*
X92075000Y-59055000D02*
X92075000Y-62222500D01*
X53975000Y-45085000D02*
X59055000Y-45085000D01*
X59055000Y-45085000D02*
X59055000Y-45085000D01*
X65405000Y-46355000D02*
X65405000Y-47198002D01*
X65405000Y-47198002D02*
X65405000Y-48895000D01*
X67945000Y-51435000D02*
X70485000Y-51435000D01*
X65405000Y-48895000D02*
X67945000Y-51435000D01*
X70485000Y-51435000D02*
X80010000Y-41910000D01*
X80010000Y-41910000D02*
X80010000Y-41910000D01*
X91002501Y-55047499D02*
X91002501Y-52507499D01*
X90952501Y-49677501D02*
X90775000Y-49500000D01*
X90170000Y-55880000D02*
X91002501Y-55047499D01*
X91002501Y-52507499D02*
X90952501Y-52457499D01*
X90775000Y-49500000D02*
X89977500Y-49500000D01*
X90952501Y-52457499D02*
X90952501Y-49677501D01*
X76200000Y-41275000D02*
X74295000Y-39370000D01*
X74295000Y-39370000D02*
X74295000Y-39370000D01*
X90010000Y-73330000D02*
X90805000Y-72535000D01*
X89535000Y-73330000D02*
X90010000Y-73330000D01*
X90805000Y-72535000D02*
X90805000Y-65405000D01*
X90805000Y-65405000D02*
X90805000Y-65405000D01*
X92677500Y-53700000D02*
X92677500Y-47300000D01*
X89535000Y-59297500D02*
X89060000Y-59297500D01*
X85090000Y-44380698D02*
X85090000Y-41275000D01*
X85090000Y-41275000D02*
X85090000Y-41275000D01*
X81026000Y-39370000D02*
X78562200Y-39370000D01*
X78562200Y-39370000D02*
X76504800Y-39370000D01*
X76504800Y-39370000D02*
X76504800Y-39370000D01*
X81214999Y-48325001D02*
X81280000Y-48260000D01*
X81214999Y-51771001D02*
X81214999Y-48325001D01*
X83585003Y-52135001D02*
X81578999Y-52135001D01*
X89535000Y-58084998D02*
X83585003Y-52135001D01*
X81280000Y-48260000D02*
X85090000Y-44380698D01*
X81578999Y-52135001D02*
X81214999Y-51771001D01*
X89535000Y-59297500D02*
X89535000Y-58084998D01*
X81214999Y-48255699D02*
X81280000Y-48260000D01*
X66040000Y-63592500D02*
X66040000Y-58420000D01*
X66040000Y-58420000D02*
X81915000Y-42545000D01*
X81915000Y-42545000D02*
X81915000Y-38100000D01*
X81915000Y-38100000D02*
X80010000Y-36195000D01*
X80010000Y-36195000D02*
X80010000Y-36195000D01*
X80075000Y-56515000D02*
X80645000Y-56515000D01*
X76175000Y-60415000D02*
X80075000Y-56515000D01*
X83185000Y-58155000D02*
X83185000Y-56515000D01*
X80925000Y-60415000D02*
X83185000Y-58155000D01*
X85675000Y-56565000D02*
X85725000Y-56515000D01*
X85675000Y-60415000D02*
X85675000Y-56565000D01*
X67945000Y-40005000D02*
X60960000Y-40005000D01*
X68730000Y-48895000D02*
X68730000Y-40790000D01*
X68730000Y-40790000D02*
X67945000Y-40005000D01*
X59690000Y-38415000D02*
X60010000Y-38735000D01*
X59690000Y-33655000D02*
X59690000Y-38415000D01*
X60010000Y-38735000D02*
X60960000Y-38735000D01*
X57785000Y-31750000D02*
X59690000Y-33655000D01*
X34925000Y-31750000D02*
X57785000Y-31750000D01*
M02*
