G04 #@! TF.GenerationSoftware,KiCad,Pcbnew,(5.1.5)-3*
G04 #@! TF.CreationDate,2020-03-03T13:48:05-08:00*
G04 #@! TF.ProjectId,capstonemki,63617073-746f-46e6-956d-6b692e6b6963,rev?*
G04 #@! TF.SameCoordinates,Original*
G04 #@! TF.FileFunction,Paste,Bot*
G04 #@! TF.FilePolarity,Positive*
%FSLAX46Y46*%
G04 Gerber Fmt 4.6, Leading zero omitted, Abs format (unit mm)*
G04 Created by KiCad (PCBNEW (5.1.5)-3) date 2020-03-03 13:48:05*
%MOMM*%
%LPD*%
G04 APERTURE LIST*
%ADD10R,1.900000X1.500000*%
%ADD11R,1.350000X0.400000*%
%ADD12C,0.100000*%
G04 APERTURE END LIST*
D10*
X92677500Y-49800000D03*
D11*
X89977500Y-50800000D03*
X89977500Y-51450000D03*
X89977500Y-52100000D03*
X89977500Y-49500000D03*
X89977500Y-50150000D03*
D10*
X92677500Y-51800000D03*
D12*
G36*
X89812691Y-58861053D02*
G01*
X89833926Y-58864203D01*
X89854750Y-58869419D01*
X89874962Y-58876651D01*
X89894368Y-58885830D01*
X89912781Y-58896866D01*
X89930024Y-58909654D01*
X89945930Y-58924070D01*
X89960346Y-58939976D01*
X89973134Y-58957219D01*
X89984170Y-58975632D01*
X89993349Y-58995038D01*
X90000581Y-59015250D01*
X90005797Y-59036074D01*
X90008947Y-59057309D01*
X90010000Y-59078750D01*
X90010000Y-59516250D01*
X90008947Y-59537691D01*
X90005797Y-59558926D01*
X90000581Y-59579750D01*
X89993349Y-59599962D01*
X89984170Y-59619368D01*
X89973134Y-59637781D01*
X89960346Y-59655024D01*
X89945930Y-59670930D01*
X89930024Y-59685346D01*
X89912781Y-59698134D01*
X89894368Y-59709170D01*
X89874962Y-59718349D01*
X89854750Y-59725581D01*
X89833926Y-59730797D01*
X89812691Y-59733947D01*
X89791250Y-59735000D01*
X89278750Y-59735000D01*
X89257309Y-59733947D01*
X89236074Y-59730797D01*
X89215250Y-59725581D01*
X89195038Y-59718349D01*
X89175632Y-59709170D01*
X89157219Y-59698134D01*
X89139976Y-59685346D01*
X89124070Y-59670930D01*
X89109654Y-59655024D01*
X89096866Y-59637781D01*
X89085830Y-59619368D01*
X89076651Y-59599962D01*
X89069419Y-59579750D01*
X89064203Y-59558926D01*
X89061053Y-59537691D01*
X89060000Y-59516250D01*
X89060000Y-59078750D01*
X89061053Y-59057309D01*
X89064203Y-59036074D01*
X89069419Y-59015250D01*
X89076651Y-58995038D01*
X89085830Y-58975632D01*
X89096866Y-58957219D01*
X89109654Y-58939976D01*
X89124070Y-58924070D01*
X89139976Y-58909654D01*
X89157219Y-58896866D01*
X89175632Y-58885830D01*
X89195038Y-58876651D01*
X89215250Y-58869419D01*
X89236074Y-58864203D01*
X89257309Y-58861053D01*
X89278750Y-58860000D01*
X89791250Y-58860000D01*
X89812691Y-58861053D01*
G37*
G36*
X89812691Y-60436053D02*
G01*
X89833926Y-60439203D01*
X89854750Y-60444419D01*
X89874962Y-60451651D01*
X89894368Y-60460830D01*
X89912781Y-60471866D01*
X89930024Y-60484654D01*
X89945930Y-60499070D01*
X89960346Y-60514976D01*
X89973134Y-60532219D01*
X89984170Y-60550632D01*
X89993349Y-60570038D01*
X90000581Y-60590250D01*
X90005797Y-60611074D01*
X90008947Y-60632309D01*
X90010000Y-60653750D01*
X90010000Y-61091250D01*
X90008947Y-61112691D01*
X90005797Y-61133926D01*
X90000581Y-61154750D01*
X89993349Y-61174962D01*
X89984170Y-61194368D01*
X89973134Y-61212781D01*
X89960346Y-61230024D01*
X89945930Y-61245930D01*
X89930024Y-61260346D01*
X89912781Y-61273134D01*
X89894368Y-61284170D01*
X89874962Y-61293349D01*
X89854750Y-61300581D01*
X89833926Y-61305797D01*
X89812691Y-61308947D01*
X89791250Y-61310000D01*
X89278750Y-61310000D01*
X89257309Y-61308947D01*
X89236074Y-61305797D01*
X89215250Y-61300581D01*
X89195038Y-61293349D01*
X89175632Y-61284170D01*
X89157219Y-61273134D01*
X89139976Y-61260346D01*
X89124070Y-61245930D01*
X89109654Y-61230024D01*
X89096866Y-61212781D01*
X89085830Y-61194368D01*
X89076651Y-61174962D01*
X89069419Y-61154750D01*
X89064203Y-61133926D01*
X89061053Y-61112691D01*
X89060000Y-61091250D01*
X89060000Y-60653750D01*
X89061053Y-60632309D01*
X89064203Y-60611074D01*
X89069419Y-60590250D01*
X89076651Y-60570038D01*
X89085830Y-60550632D01*
X89096866Y-60532219D01*
X89109654Y-60514976D01*
X89124070Y-60499070D01*
X89139976Y-60484654D01*
X89157219Y-60471866D01*
X89175632Y-60460830D01*
X89195038Y-60451651D01*
X89215250Y-60444419D01*
X89236074Y-60439203D01*
X89257309Y-60436053D01*
X89278750Y-60435000D01*
X89791250Y-60435000D01*
X89812691Y-60436053D01*
G37*
G36*
X89812691Y-67356053D02*
G01*
X89833926Y-67359203D01*
X89854750Y-67364419D01*
X89874962Y-67371651D01*
X89894368Y-67380830D01*
X89912781Y-67391866D01*
X89930024Y-67404654D01*
X89945930Y-67419070D01*
X89960346Y-67434976D01*
X89973134Y-67452219D01*
X89984170Y-67470632D01*
X89993349Y-67490038D01*
X90000581Y-67510250D01*
X90005797Y-67531074D01*
X90008947Y-67552309D01*
X90010000Y-67573750D01*
X90010000Y-68011250D01*
X90008947Y-68032691D01*
X90005797Y-68053926D01*
X90000581Y-68074750D01*
X89993349Y-68094962D01*
X89984170Y-68114368D01*
X89973134Y-68132781D01*
X89960346Y-68150024D01*
X89945930Y-68165930D01*
X89930024Y-68180346D01*
X89912781Y-68193134D01*
X89894368Y-68204170D01*
X89874962Y-68213349D01*
X89854750Y-68220581D01*
X89833926Y-68225797D01*
X89812691Y-68228947D01*
X89791250Y-68230000D01*
X89278750Y-68230000D01*
X89257309Y-68228947D01*
X89236074Y-68225797D01*
X89215250Y-68220581D01*
X89195038Y-68213349D01*
X89175632Y-68204170D01*
X89157219Y-68193134D01*
X89139976Y-68180346D01*
X89124070Y-68165930D01*
X89109654Y-68150024D01*
X89096866Y-68132781D01*
X89085830Y-68114368D01*
X89076651Y-68094962D01*
X89069419Y-68074750D01*
X89064203Y-68053926D01*
X89061053Y-68032691D01*
X89060000Y-68011250D01*
X89060000Y-67573750D01*
X89061053Y-67552309D01*
X89064203Y-67531074D01*
X89069419Y-67510250D01*
X89076651Y-67490038D01*
X89085830Y-67470632D01*
X89096866Y-67452219D01*
X89109654Y-67434976D01*
X89124070Y-67419070D01*
X89139976Y-67404654D01*
X89157219Y-67391866D01*
X89175632Y-67380830D01*
X89195038Y-67371651D01*
X89215250Y-67364419D01*
X89236074Y-67359203D01*
X89257309Y-67356053D01*
X89278750Y-67355000D01*
X89791250Y-67355000D01*
X89812691Y-67356053D01*
G37*
G36*
X89812691Y-68931053D02*
G01*
X89833926Y-68934203D01*
X89854750Y-68939419D01*
X89874962Y-68946651D01*
X89894368Y-68955830D01*
X89912781Y-68966866D01*
X89930024Y-68979654D01*
X89945930Y-68994070D01*
X89960346Y-69009976D01*
X89973134Y-69027219D01*
X89984170Y-69045632D01*
X89993349Y-69065038D01*
X90000581Y-69085250D01*
X90005797Y-69106074D01*
X90008947Y-69127309D01*
X90010000Y-69148750D01*
X90010000Y-69586250D01*
X90008947Y-69607691D01*
X90005797Y-69628926D01*
X90000581Y-69649750D01*
X89993349Y-69669962D01*
X89984170Y-69689368D01*
X89973134Y-69707781D01*
X89960346Y-69725024D01*
X89945930Y-69740930D01*
X89930024Y-69755346D01*
X89912781Y-69768134D01*
X89894368Y-69779170D01*
X89874962Y-69788349D01*
X89854750Y-69795581D01*
X89833926Y-69800797D01*
X89812691Y-69803947D01*
X89791250Y-69805000D01*
X89278750Y-69805000D01*
X89257309Y-69803947D01*
X89236074Y-69800797D01*
X89215250Y-69795581D01*
X89195038Y-69788349D01*
X89175632Y-69779170D01*
X89157219Y-69768134D01*
X89139976Y-69755346D01*
X89124070Y-69740930D01*
X89109654Y-69725024D01*
X89096866Y-69707781D01*
X89085830Y-69689368D01*
X89076651Y-69669962D01*
X89069419Y-69649750D01*
X89064203Y-69628926D01*
X89061053Y-69607691D01*
X89060000Y-69586250D01*
X89060000Y-69148750D01*
X89061053Y-69127309D01*
X89064203Y-69106074D01*
X89069419Y-69085250D01*
X89076651Y-69065038D01*
X89085830Y-69045632D01*
X89096866Y-69027219D01*
X89109654Y-69009976D01*
X89124070Y-68994070D01*
X89139976Y-68979654D01*
X89157219Y-68966866D01*
X89175632Y-68955830D01*
X89195038Y-68946651D01*
X89215250Y-68939419D01*
X89236074Y-68934203D01*
X89257309Y-68931053D01*
X89278750Y-68930000D01*
X89791250Y-68930000D01*
X89812691Y-68931053D01*
G37*
G36*
X89812691Y-62276053D02*
G01*
X89833926Y-62279203D01*
X89854750Y-62284419D01*
X89874962Y-62291651D01*
X89894368Y-62300830D01*
X89912781Y-62311866D01*
X89930024Y-62324654D01*
X89945930Y-62339070D01*
X89960346Y-62354976D01*
X89973134Y-62372219D01*
X89984170Y-62390632D01*
X89993349Y-62410038D01*
X90000581Y-62430250D01*
X90005797Y-62451074D01*
X90008947Y-62472309D01*
X90010000Y-62493750D01*
X90010000Y-62931250D01*
X90008947Y-62952691D01*
X90005797Y-62973926D01*
X90000581Y-62994750D01*
X89993349Y-63014962D01*
X89984170Y-63034368D01*
X89973134Y-63052781D01*
X89960346Y-63070024D01*
X89945930Y-63085930D01*
X89930024Y-63100346D01*
X89912781Y-63113134D01*
X89894368Y-63124170D01*
X89874962Y-63133349D01*
X89854750Y-63140581D01*
X89833926Y-63145797D01*
X89812691Y-63148947D01*
X89791250Y-63150000D01*
X89278750Y-63150000D01*
X89257309Y-63148947D01*
X89236074Y-63145797D01*
X89215250Y-63140581D01*
X89195038Y-63133349D01*
X89175632Y-63124170D01*
X89157219Y-63113134D01*
X89139976Y-63100346D01*
X89124070Y-63085930D01*
X89109654Y-63070024D01*
X89096866Y-63052781D01*
X89085830Y-63034368D01*
X89076651Y-63014962D01*
X89069419Y-62994750D01*
X89064203Y-62973926D01*
X89061053Y-62952691D01*
X89060000Y-62931250D01*
X89060000Y-62493750D01*
X89061053Y-62472309D01*
X89064203Y-62451074D01*
X89069419Y-62430250D01*
X89076651Y-62410038D01*
X89085830Y-62390632D01*
X89096866Y-62372219D01*
X89109654Y-62354976D01*
X89124070Y-62339070D01*
X89139976Y-62324654D01*
X89157219Y-62311866D01*
X89175632Y-62300830D01*
X89195038Y-62291651D01*
X89215250Y-62284419D01*
X89236074Y-62279203D01*
X89257309Y-62276053D01*
X89278750Y-62275000D01*
X89791250Y-62275000D01*
X89812691Y-62276053D01*
G37*
G36*
X89812691Y-63851053D02*
G01*
X89833926Y-63854203D01*
X89854750Y-63859419D01*
X89874962Y-63866651D01*
X89894368Y-63875830D01*
X89912781Y-63886866D01*
X89930024Y-63899654D01*
X89945930Y-63914070D01*
X89960346Y-63929976D01*
X89973134Y-63947219D01*
X89984170Y-63965632D01*
X89993349Y-63985038D01*
X90000581Y-64005250D01*
X90005797Y-64026074D01*
X90008947Y-64047309D01*
X90010000Y-64068750D01*
X90010000Y-64506250D01*
X90008947Y-64527691D01*
X90005797Y-64548926D01*
X90000581Y-64569750D01*
X89993349Y-64589962D01*
X89984170Y-64609368D01*
X89973134Y-64627781D01*
X89960346Y-64645024D01*
X89945930Y-64660930D01*
X89930024Y-64675346D01*
X89912781Y-64688134D01*
X89894368Y-64699170D01*
X89874962Y-64708349D01*
X89854750Y-64715581D01*
X89833926Y-64720797D01*
X89812691Y-64723947D01*
X89791250Y-64725000D01*
X89278750Y-64725000D01*
X89257309Y-64723947D01*
X89236074Y-64720797D01*
X89215250Y-64715581D01*
X89195038Y-64708349D01*
X89175632Y-64699170D01*
X89157219Y-64688134D01*
X89139976Y-64675346D01*
X89124070Y-64660930D01*
X89109654Y-64645024D01*
X89096866Y-64627781D01*
X89085830Y-64609368D01*
X89076651Y-64589962D01*
X89069419Y-64569750D01*
X89064203Y-64548926D01*
X89061053Y-64527691D01*
X89060000Y-64506250D01*
X89060000Y-64068750D01*
X89061053Y-64047309D01*
X89064203Y-64026074D01*
X89069419Y-64005250D01*
X89076651Y-63985038D01*
X89085830Y-63965632D01*
X89096866Y-63947219D01*
X89109654Y-63929976D01*
X89124070Y-63914070D01*
X89139976Y-63899654D01*
X89157219Y-63886866D01*
X89175632Y-63875830D01*
X89195038Y-63866651D01*
X89215250Y-63859419D01*
X89236074Y-63854203D01*
X89257309Y-63851053D01*
X89278750Y-63850000D01*
X89791250Y-63850000D01*
X89812691Y-63851053D01*
G37*
G36*
X89812691Y-71318553D02*
G01*
X89833926Y-71321703D01*
X89854750Y-71326919D01*
X89874962Y-71334151D01*
X89894368Y-71343330D01*
X89912781Y-71354366D01*
X89930024Y-71367154D01*
X89945930Y-71381570D01*
X89960346Y-71397476D01*
X89973134Y-71414719D01*
X89984170Y-71433132D01*
X89993349Y-71452538D01*
X90000581Y-71472750D01*
X90005797Y-71493574D01*
X90008947Y-71514809D01*
X90010000Y-71536250D01*
X90010000Y-71973750D01*
X90008947Y-71995191D01*
X90005797Y-72016426D01*
X90000581Y-72037250D01*
X89993349Y-72057462D01*
X89984170Y-72076868D01*
X89973134Y-72095281D01*
X89960346Y-72112524D01*
X89945930Y-72128430D01*
X89930024Y-72142846D01*
X89912781Y-72155634D01*
X89894368Y-72166670D01*
X89874962Y-72175849D01*
X89854750Y-72183081D01*
X89833926Y-72188297D01*
X89812691Y-72191447D01*
X89791250Y-72192500D01*
X89278750Y-72192500D01*
X89257309Y-72191447D01*
X89236074Y-72188297D01*
X89215250Y-72183081D01*
X89195038Y-72175849D01*
X89175632Y-72166670D01*
X89157219Y-72155634D01*
X89139976Y-72142846D01*
X89124070Y-72128430D01*
X89109654Y-72112524D01*
X89096866Y-72095281D01*
X89085830Y-72076868D01*
X89076651Y-72057462D01*
X89069419Y-72037250D01*
X89064203Y-72016426D01*
X89061053Y-71995191D01*
X89060000Y-71973750D01*
X89060000Y-71536250D01*
X89061053Y-71514809D01*
X89064203Y-71493574D01*
X89069419Y-71472750D01*
X89076651Y-71452538D01*
X89085830Y-71433132D01*
X89096866Y-71414719D01*
X89109654Y-71397476D01*
X89124070Y-71381570D01*
X89139976Y-71367154D01*
X89157219Y-71354366D01*
X89175632Y-71343330D01*
X89195038Y-71334151D01*
X89215250Y-71326919D01*
X89236074Y-71321703D01*
X89257309Y-71318553D01*
X89278750Y-71317500D01*
X89791250Y-71317500D01*
X89812691Y-71318553D01*
G37*
G36*
X89812691Y-72893553D02*
G01*
X89833926Y-72896703D01*
X89854750Y-72901919D01*
X89874962Y-72909151D01*
X89894368Y-72918330D01*
X89912781Y-72929366D01*
X89930024Y-72942154D01*
X89945930Y-72956570D01*
X89960346Y-72972476D01*
X89973134Y-72989719D01*
X89984170Y-73008132D01*
X89993349Y-73027538D01*
X90000581Y-73047750D01*
X90005797Y-73068574D01*
X90008947Y-73089809D01*
X90010000Y-73111250D01*
X90010000Y-73548750D01*
X90008947Y-73570191D01*
X90005797Y-73591426D01*
X90000581Y-73612250D01*
X89993349Y-73632462D01*
X89984170Y-73651868D01*
X89973134Y-73670281D01*
X89960346Y-73687524D01*
X89945930Y-73703430D01*
X89930024Y-73717846D01*
X89912781Y-73730634D01*
X89894368Y-73741670D01*
X89874962Y-73750849D01*
X89854750Y-73758081D01*
X89833926Y-73763297D01*
X89812691Y-73766447D01*
X89791250Y-73767500D01*
X89278750Y-73767500D01*
X89257309Y-73766447D01*
X89236074Y-73763297D01*
X89215250Y-73758081D01*
X89195038Y-73750849D01*
X89175632Y-73741670D01*
X89157219Y-73730634D01*
X89139976Y-73717846D01*
X89124070Y-73703430D01*
X89109654Y-73687524D01*
X89096866Y-73670281D01*
X89085830Y-73651868D01*
X89076651Y-73632462D01*
X89069419Y-73612250D01*
X89064203Y-73591426D01*
X89061053Y-73570191D01*
X89060000Y-73548750D01*
X89060000Y-73111250D01*
X89061053Y-73089809D01*
X89064203Y-73068574D01*
X89069419Y-73047750D01*
X89076651Y-73027538D01*
X89085830Y-73008132D01*
X89096866Y-72989719D01*
X89109654Y-72972476D01*
X89124070Y-72956570D01*
X89139976Y-72942154D01*
X89157219Y-72929366D01*
X89175632Y-72918330D01*
X89195038Y-72909151D01*
X89215250Y-72901919D01*
X89236074Y-72896703D01*
X89257309Y-72893553D01*
X89278750Y-72892500D01*
X89791250Y-72892500D01*
X89812691Y-72893553D01*
G37*
M02*
