G04 #@! TF.GenerationSoftware,KiCad,Pcbnew,(5.1.5)-3*
G04 #@! TF.CreationDate,2020-03-03T13:48:05-08:00*
G04 #@! TF.ProjectId,capstonemki,63617073-746f-46e6-956d-6b692e6b6963,rev?*
G04 #@! TF.SameCoordinates,Original*
G04 #@! TF.FileFunction,Legend,Top*
G04 #@! TF.FilePolarity,Positive*
%FSLAX46Y46*%
G04 Gerber Fmt 4.6, Leading zero omitted, Abs format (unit mm)*
G04 Created by KiCad (PCBNEW (5.1.5)-3) date 2020-03-03 13:48:05*
%MOMM*%
%LPD*%
G04 APERTURE LIST*
%ADD10C,0.120000*%
%ADD11C,0.150000*%
G04 APERTURE END LIST*
D10*
X87505000Y-50962779D02*
X87505000Y-50637221D01*
X86485000Y-50962779D02*
X86485000Y-50637221D01*
X78235000Y-35485000D02*
X78235000Y-35010000D01*
X75015000Y-38230000D02*
X75490000Y-38230000D01*
X75015000Y-37755000D02*
X75015000Y-38230000D01*
X75015000Y-35010000D02*
X75490000Y-35010000D01*
X75015000Y-35485000D02*
X75015000Y-35010000D01*
X78235000Y-38230000D02*
X77760000Y-38230000D01*
X78235000Y-37755000D02*
X78235000Y-38230000D01*
X38455000Y-52710000D02*
X38455000Y-48260000D01*
X38455000Y-46860000D02*
X38455000Y-44560000D01*
X38455000Y-43160000D02*
X38455000Y-42440000D01*
X38455000Y-42440000D02*
X35775000Y-42440000D01*
X33475000Y-42440000D02*
X29805000Y-42440000D01*
X27505000Y-42440000D02*
X26275000Y-42440000D01*
X26275000Y-42440000D02*
X26275000Y-52260000D01*
X36975000Y-54080000D02*
X36115000Y-54080000D01*
X30642779Y-29335000D02*
X30317221Y-29335000D01*
X30642779Y-30355000D02*
X30317221Y-30355000D01*
X57947779Y-52195000D02*
X57622221Y-52195000D01*
X57947779Y-53215000D02*
X57622221Y-53215000D01*
X48732221Y-53215000D02*
X49057779Y-53215000D01*
X48732221Y-52195000D02*
X49057779Y-52195000D01*
X49057779Y-44575000D02*
X48732221Y-44575000D01*
X49057779Y-45595000D02*
X48732221Y-45595000D01*
X64492221Y-66750000D02*
X64817779Y-66750000D01*
X64492221Y-65730000D02*
X64817779Y-65730000D01*
X30990000Y-65567779D02*
X30990000Y-65242221D01*
X29970000Y-65567779D02*
X29970000Y-65242221D01*
X36705000Y-73822779D02*
X36705000Y-73497221D01*
X35685000Y-73822779D02*
X35685000Y-73497221D01*
X65567779Y-58545000D02*
X65242221Y-58545000D01*
X65567779Y-59565000D02*
X65242221Y-59565000D01*
X59044721Y-59565000D02*
X59370279Y-59565000D01*
X59044721Y-58545000D02*
X59370279Y-58545000D01*
X38262779Y-28700000D02*
X37937221Y-28700000D01*
X38262779Y-29720000D02*
X37937221Y-29720000D01*
X38572221Y-37340000D02*
X38897779Y-37340000D01*
X38572221Y-36320000D02*
X38897779Y-36320000D01*
X53850000Y-69225279D02*
X53850000Y-68899721D01*
X52830000Y-69225279D02*
X52830000Y-68899721D01*
X30795279Y-36320000D02*
X30469721Y-36320000D01*
X30795279Y-37340000D02*
X30469721Y-37340000D01*
X91570000Y-65790000D02*
X94110000Y-63250000D01*
X91570000Y-77220000D02*
X91570000Y-65790000D01*
X89920000Y-78870000D02*
X91570000Y-77220000D01*
X25270000Y-78870000D02*
X89920000Y-78870000D01*
X25270000Y-69340000D02*
X25270000Y-78870000D01*
X18920000Y-69340000D02*
X25270000Y-69340000D01*
X18920000Y-57660000D02*
X18920000Y-69340000D01*
X25270000Y-57660000D02*
X18920000Y-57660000D01*
X25270000Y-37590000D02*
X25270000Y-57660000D01*
X23370000Y-37590000D02*
X25270000Y-37590000D01*
X23370000Y-28450000D02*
X23370000Y-37590000D01*
X25270000Y-28450000D02*
X23370000Y-28450000D01*
X25270000Y-25270000D02*
X25270000Y-28450000D01*
X91570000Y-25270000D02*
X25270000Y-25270000D01*
X91570000Y-27940000D02*
X91570000Y-25270000D01*
X94110000Y-30480000D02*
X91570000Y-27940000D01*
X94110000Y-63250000D02*
X94110000Y-30480000D01*
X47820000Y-62100000D02*
X47820000Y-62250000D01*
X43620000Y-64900000D02*
X43620000Y-64750000D01*
X44220000Y-64900000D02*
X43620000Y-64900000D01*
X46420000Y-62100000D02*
X45020000Y-62100000D01*
X46420000Y-64900000D02*
X45020000Y-64900000D01*
X47220000Y-62100000D02*
X47820000Y-62100000D01*
X47820000Y-64900000D02*
X47220000Y-64900000D01*
X44219299Y-62102607D02*
X43319299Y-62102607D01*
X47820000Y-64900000D02*
X47820000Y-64750000D01*
D11*
X93218095Y-72817380D02*
X93218095Y-71817380D01*
X93218095Y-72293571D02*
X93789523Y-72293571D01*
X93789523Y-72817380D02*
X93789523Y-71817380D01*
X94694285Y-72150714D02*
X94694285Y-72817380D01*
X94456190Y-71769761D02*
X94218095Y-72484047D01*
X94837142Y-72484047D01*
X93853095Y-24557380D02*
X93853095Y-23557380D01*
X93853095Y-24033571D02*
X94424523Y-24033571D01*
X94424523Y-24557380D02*
X94424523Y-23557380D01*
X94805476Y-23557380D02*
X95424523Y-23557380D01*
X95091190Y-23938333D01*
X95234047Y-23938333D01*
X95329285Y-23985952D01*
X95376904Y-24033571D01*
X95424523Y-24128809D01*
X95424523Y-24366904D01*
X95376904Y-24462142D01*
X95329285Y-24509761D01*
X95234047Y-24557380D01*
X94948333Y-24557380D01*
X94853095Y-24509761D01*
X94805476Y-24462142D01*
X21463095Y-72817380D02*
X21463095Y-71817380D01*
X21463095Y-72293571D02*
X22034523Y-72293571D01*
X22034523Y-72817380D02*
X22034523Y-71817380D01*
X22463095Y-71912619D02*
X22510714Y-71865000D01*
X22605952Y-71817380D01*
X22844047Y-71817380D01*
X22939285Y-71865000D01*
X22986904Y-71912619D01*
X23034523Y-72007857D01*
X23034523Y-72103095D01*
X22986904Y-72245952D01*
X22415476Y-72817380D01*
X23034523Y-72817380D01*
X21463095Y-24557380D02*
X21463095Y-23557380D01*
X21463095Y-24033571D02*
X22034523Y-24033571D01*
X22034523Y-24557380D02*
X22034523Y-23557380D01*
X23034523Y-24557380D02*
X22463095Y-24557380D01*
X22748809Y-24557380D02*
X22748809Y-23557380D01*
X22653571Y-23700238D01*
X22558333Y-23795476D01*
X22463095Y-23843095D01*
X85922142Y-50966666D02*
X85969761Y-51014285D01*
X86017380Y-51157142D01*
X86017380Y-51252380D01*
X85969761Y-51395238D01*
X85874523Y-51490476D01*
X85779285Y-51538095D01*
X85588809Y-51585714D01*
X85445952Y-51585714D01*
X85255476Y-51538095D01*
X85160238Y-51490476D01*
X85065000Y-51395238D01*
X85017380Y-51252380D01*
X85017380Y-51157142D01*
X85065000Y-51014285D01*
X85112619Y-50966666D01*
X85350714Y-50109523D02*
X86017380Y-50109523D01*
X84969761Y-50347619D02*
X85684047Y-50585714D01*
X85684047Y-49966666D01*
X78897380Y-37381904D02*
X79706904Y-37381904D01*
X79802142Y-37334285D01*
X79849761Y-37286666D01*
X79897380Y-37191428D01*
X79897380Y-37000952D01*
X79849761Y-36905714D01*
X79802142Y-36858095D01*
X79706904Y-36810476D01*
X78897380Y-36810476D01*
X79897380Y-35810476D02*
X79897380Y-36381904D01*
X79897380Y-36096190D02*
X78897380Y-36096190D01*
X79040238Y-36191428D01*
X79135476Y-36286666D01*
X79183095Y-36381904D01*
X32051666Y-54892380D02*
X32051666Y-55606666D01*
X32004047Y-55749523D01*
X31908809Y-55844761D01*
X31765952Y-55892380D01*
X31670714Y-55892380D01*
X32956428Y-55225714D02*
X32956428Y-55892380D01*
X32718333Y-54844761D02*
X32480238Y-55559047D01*
X33099285Y-55559047D01*
X30313333Y-31727380D02*
X29980000Y-31251190D01*
X29741904Y-31727380D02*
X29741904Y-30727380D01*
X30122857Y-30727380D01*
X30218095Y-30775000D01*
X30265714Y-30822619D01*
X30313333Y-30917857D01*
X30313333Y-31060714D01*
X30265714Y-31155952D01*
X30218095Y-31203571D01*
X30122857Y-31251190D01*
X29741904Y-31251190D01*
X31170476Y-30727380D02*
X30980000Y-30727380D01*
X30884761Y-30775000D01*
X30837142Y-30822619D01*
X30741904Y-30965476D01*
X30694285Y-31155952D01*
X30694285Y-31536904D01*
X30741904Y-31632142D01*
X30789523Y-31679761D01*
X30884761Y-31727380D01*
X31075238Y-31727380D01*
X31170476Y-31679761D01*
X31218095Y-31632142D01*
X31265714Y-31536904D01*
X31265714Y-31298809D01*
X31218095Y-31203571D01*
X31170476Y-31155952D01*
X31075238Y-31108333D01*
X30884761Y-31108333D01*
X30789523Y-31155952D01*
X30741904Y-31203571D01*
X30694285Y-31298809D01*
X57142142Y-54587380D02*
X56808809Y-54111190D01*
X56570714Y-54587380D02*
X56570714Y-53587380D01*
X56951666Y-53587380D01*
X57046904Y-53635000D01*
X57094523Y-53682619D01*
X57142142Y-53777857D01*
X57142142Y-53920714D01*
X57094523Y-54015952D01*
X57046904Y-54063571D01*
X56951666Y-54111190D01*
X56570714Y-54111190D01*
X58094523Y-54587380D02*
X57523095Y-54587380D01*
X57808809Y-54587380D02*
X57808809Y-53587380D01*
X57713571Y-53730238D01*
X57618333Y-53825476D01*
X57523095Y-53873095D01*
X58475476Y-53682619D02*
X58523095Y-53635000D01*
X58618333Y-53587380D01*
X58856428Y-53587380D01*
X58951666Y-53635000D01*
X58999285Y-53682619D01*
X59046904Y-53777857D01*
X59046904Y-53873095D01*
X58999285Y-54015952D01*
X58427857Y-54587380D01*
X59046904Y-54587380D01*
X48252142Y-51727380D02*
X47918809Y-51251190D01*
X47680714Y-51727380D02*
X47680714Y-50727380D01*
X48061666Y-50727380D01*
X48156904Y-50775000D01*
X48204523Y-50822619D01*
X48252142Y-50917857D01*
X48252142Y-51060714D01*
X48204523Y-51155952D01*
X48156904Y-51203571D01*
X48061666Y-51251190D01*
X47680714Y-51251190D01*
X49204523Y-51727380D02*
X48633095Y-51727380D01*
X48918809Y-51727380D02*
X48918809Y-50727380D01*
X48823571Y-50870238D01*
X48728333Y-50965476D01*
X48633095Y-51013095D01*
X50156904Y-51727380D02*
X49585476Y-51727380D01*
X49871190Y-51727380D02*
X49871190Y-50727380D01*
X49775952Y-50870238D01*
X49680714Y-50965476D01*
X49585476Y-51013095D01*
X48728333Y-46872142D02*
X48680714Y-46919761D01*
X48537857Y-46967380D01*
X48442619Y-46967380D01*
X48299761Y-46919761D01*
X48204523Y-46824523D01*
X48156904Y-46729285D01*
X48109285Y-46538809D01*
X48109285Y-46395952D01*
X48156904Y-46205476D01*
X48204523Y-46110238D01*
X48299761Y-46015000D01*
X48442619Y-45967380D01*
X48537857Y-45967380D01*
X48680714Y-46015000D01*
X48728333Y-46062619D01*
X49109285Y-46062619D02*
X49156904Y-46015000D01*
X49252142Y-45967380D01*
X49490238Y-45967380D01*
X49585476Y-46015000D01*
X49633095Y-46062619D01*
X49680714Y-46157857D01*
X49680714Y-46253095D01*
X49633095Y-46395952D01*
X49061666Y-46967380D01*
X49680714Y-46967380D01*
X64012142Y-65262380D02*
X63678809Y-64786190D01*
X63440714Y-65262380D02*
X63440714Y-64262380D01*
X63821666Y-64262380D01*
X63916904Y-64310000D01*
X63964523Y-64357619D01*
X64012142Y-64452857D01*
X64012142Y-64595714D01*
X63964523Y-64690952D01*
X63916904Y-64738571D01*
X63821666Y-64786190D01*
X63440714Y-64786190D01*
X64964523Y-65262380D02*
X64393095Y-65262380D01*
X64678809Y-65262380D02*
X64678809Y-64262380D01*
X64583571Y-64405238D01*
X64488333Y-64500476D01*
X64393095Y-64548095D01*
X65583571Y-64262380D02*
X65678809Y-64262380D01*
X65774047Y-64310000D01*
X65821666Y-64357619D01*
X65869285Y-64452857D01*
X65916904Y-64643333D01*
X65916904Y-64881428D01*
X65869285Y-65071904D01*
X65821666Y-65167142D01*
X65774047Y-65214761D01*
X65678809Y-65262380D01*
X65583571Y-65262380D01*
X65488333Y-65214761D01*
X65440714Y-65167142D01*
X65393095Y-65071904D01*
X65345476Y-64881428D01*
X65345476Y-64643333D01*
X65393095Y-64452857D01*
X65440714Y-64357619D01*
X65488333Y-64310000D01*
X65583571Y-64262380D01*
X29407142Y-65571666D02*
X29454761Y-65619285D01*
X29502380Y-65762142D01*
X29502380Y-65857380D01*
X29454761Y-66000238D01*
X29359523Y-66095476D01*
X29264285Y-66143095D01*
X29073809Y-66190714D01*
X28930952Y-66190714D01*
X28740476Y-66143095D01*
X28645238Y-66095476D01*
X28550000Y-66000238D01*
X28502380Y-65857380D01*
X28502380Y-65762142D01*
X28550000Y-65619285D01*
X28597619Y-65571666D01*
X28502380Y-65238333D02*
X28502380Y-64619285D01*
X28883333Y-64952619D01*
X28883333Y-64809761D01*
X28930952Y-64714523D01*
X28978571Y-64666904D01*
X29073809Y-64619285D01*
X29311904Y-64619285D01*
X29407142Y-64666904D01*
X29454761Y-64714523D01*
X29502380Y-64809761D01*
X29502380Y-65095476D01*
X29454761Y-65190714D01*
X29407142Y-65238333D01*
X35122142Y-73826666D02*
X35169761Y-73874285D01*
X35217380Y-74017142D01*
X35217380Y-74112380D01*
X35169761Y-74255238D01*
X35074523Y-74350476D01*
X34979285Y-74398095D01*
X34788809Y-74445714D01*
X34645952Y-74445714D01*
X34455476Y-74398095D01*
X34360238Y-74350476D01*
X34265000Y-74255238D01*
X34217380Y-74112380D01*
X34217380Y-74017142D01*
X34265000Y-73874285D01*
X34312619Y-73826666D01*
X35217380Y-72874285D02*
X35217380Y-73445714D01*
X35217380Y-73160000D02*
X34217380Y-73160000D01*
X34360238Y-73255238D01*
X34455476Y-73350476D01*
X34503095Y-73445714D01*
X65238333Y-60937380D02*
X64905000Y-60461190D01*
X64666904Y-60937380D02*
X64666904Y-59937380D01*
X65047857Y-59937380D01*
X65143095Y-59985000D01*
X65190714Y-60032619D01*
X65238333Y-60127857D01*
X65238333Y-60270714D01*
X65190714Y-60365952D01*
X65143095Y-60413571D01*
X65047857Y-60461190D01*
X64666904Y-60461190D01*
X65571666Y-59937380D02*
X66238333Y-59937380D01*
X65809761Y-60937380D01*
X59040833Y-58077380D02*
X58707500Y-57601190D01*
X58469404Y-58077380D02*
X58469404Y-57077380D01*
X58850357Y-57077380D01*
X58945595Y-57125000D01*
X58993214Y-57172619D01*
X59040833Y-57267857D01*
X59040833Y-57410714D01*
X58993214Y-57505952D01*
X58945595Y-57553571D01*
X58850357Y-57601190D01*
X58469404Y-57601190D01*
X59945595Y-57077380D02*
X59469404Y-57077380D01*
X59421785Y-57553571D01*
X59469404Y-57505952D01*
X59564642Y-57458333D01*
X59802738Y-57458333D01*
X59897976Y-57505952D01*
X59945595Y-57553571D01*
X59993214Y-57648809D01*
X59993214Y-57886904D01*
X59945595Y-57982142D01*
X59897976Y-58029761D01*
X59802738Y-58077380D01*
X59564642Y-58077380D01*
X59469404Y-58029761D01*
X59421785Y-57982142D01*
X37933333Y-31092380D02*
X37600000Y-30616190D01*
X37361904Y-31092380D02*
X37361904Y-30092380D01*
X37742857Y-30092380D01*
X37838095Y-30140000D01*
X37885714Y-30187619D01*
X37933333Y-30282857D01*
X37933333Y-30425714D01*
X37885714Y-30520952D01*
X37838095Y-30568571D01*
X37742857Y-30616190D01*
X37361904Y-30616190D01*
X38790476Y-30425714D02*
X38790476Y-31092380D01*
X38552380Y-30044761D02*
X38314285Y-30759047D01*
X38933333Y-30759047D01*
X38568333Y-35852380D02*
X38235000Y-35376190D01*
X37996904Y-35852380D02*
X37996904Y-34852380D01*
X38377857Y-34852380D01*
X38473095Y-34900000D01*
X38520714Y-34947619D01*
X38568333Y-35042857D01*
X38568333Y-35185714D01*
X38520714Y-35280952D01*
X38473095Y-35328571D01*
X38377857Y-35376190D01*
X37996904Y-35376190D01*
X38901666Y-34852380D02*
X39520714Y-34852380D01*
X39187380Y-35233333D01*
X39330238Y-35233333D01*
X39425476Y-35280952D01*
X39473095Y-35328571D01*
X39520714Y-35423809D01*
X39520714Y-35661904D01*
X39473095Y-35757142D01*
X39425476Y-35804761D01*
X39330238Y-35852380D01*
X39044523Y-35852380D01*
X38949285Y-35804761D01*
X38901666Y-35757142D01*
X52362380Y-69229166D02*
X51886190Y-69562500D01*
X52362380Y-69800595D02*
X51362380Y-69800595D01*
X51362380Y-69419642D01*
X51410000Y-69324404D01*
X51457619Y-69276785D01*
X51552857Y-69229166D01*
X51695714Y-69229166D01*
X51790952Y-69276785D01*
X51838571Y-69324404D01*
X51886190Y-69419642D01*
X51886190Y-69800595D01*
X51457619Y-68848214D02*
X51410000Y-68800595D01*
X51362380Y-68705357D01*
X51362380Y-68467261D01*
X51410000Y-68372023D01*
X51457619Y-68324404D01*
X51552857Y-68276785D01*
X51648095Y-68276785D01*
X51790952Y-68324404D01*
X52362380Y-68895833D01*
X52362380Y-68276785D01*
X30465833Y-38712380D02*
X30132500Y-38236190D01*
X29894404Y-38712380D02*
X29894404Y-37712380D01*
X30275357Y-37712380D01*
X30370595Y-37760000D01*
X30418214Y-37807619D01*
X30465833Y-37902857D01*
X30465833Y-38045714D01*
X30418214Y-38140952D01*
X30370595Y-38188571D01*
X30275357Y-38236190D01*
X29894404Y-38236190D01*
X31418214Y-38712380D02*
X30846785Y-38712380D01*
X31132500Y-38712380D02*
X31132500Y-37712380D01*
X31037261Y-37855238D01*
X30942023Y-37950476D01*
X30846785Y-37998095D01*
X53895714Y-24296666D02*
X54371904Y-24296666D01*
X53800476Y-24582380D02*
X54133809Y-23582380D01*
X54467142Y-24582380D01*
X55324285Y-24582380D02*
X54752857Y-24582380D01*
X55038571Y-24582380D02*
X55038571Y-23582380D01*
X54943333Y-23725238D01*
X54848095Y-23820476D01*
X54752857Y-23868095D01*
X44957394Y-60434987D02*
X44957394Y-61244511D01*
X45005013Y-61339749D01*
X45052632Y-61387368D01*
X45147870Y-61434987D01*
X45338346Y-61434987D01*
X45433584Y-61387368D01*
X45481203Y-61339749D01*
X45528822Y-61244511D01*
X45528822Y-60434987D01*
X45957394Y-60530226D02*
X46005013Y-60482607D01*
X46100251Y-60434987D01*
X46338346Y-60434987D01*
X46433584Y-60482607D01*
X46481203Y-60530226D01*
X46528822Y-60625464D01*
X46528822Y-60720702D01*
X46481203Y-60863559D01*
X45909775Y-61434987D01*
X46528822Y-61434987D01*
M02*
