G04 #@! TF.GenerationSoftware,KiCad,Pcbnew,(5.1.5)-3*
G04 #@! TF.CreationDate,2020-03-03T13:48:05-08:00*
G04 #@! TF.ProjectId,capstonemki,63617073-746f-46e6-956d-6b692e6b6963,rev?*
G04 #@! TF.SameCoordinates,Original*
G04 #@! TF.FileFunction,Legend,Bot*
G04 #@! TF.FilePolarity,Positive*
%FSLAX46Y46*%
G04 Gerber Fmt 4.6, Leading zero omitted, Abs format (unit mm)*
G04 Created by KiCad (PCBNEW (5.1.5)-3) date 2020-03-03 13:48:05*
%MOMM*%
%LPD*%
G04 APERTURE LIST*
%ADD10C,0.187500*%
%ADD11C,0.120000*%
%ADD12C,0.150000*%
G04 APERTURE END LIST*
D10*
X29339047Y-55165000D02*
X29279523Y-55284047D01*
X29279523Y-55522142D01*
X29339047Y-55641190D01*
X29398571Y-55700714D01*
X29517619Y-55760238D01*
X29874761Y-55760238D01*
X29993809Y-55700714D01*
X30053333Y-55641190D01*
X30112857Y-55522142D01*
X30112857Y-55284047D01*
X30053333Y-55165000D01*
X29279523Y-54093571D02*
X29934285Y-54093571D01*
X30053333Y-54153095D01*
X30112857Y-54272142D01*
X30112857Y-54510238D01*
X30053333Y-54629285D01*
X29339047Y-54093571D02*
X29279523Y-54212619D01*
X29279523Y-54510238D01*
X29339047Y-54629285D01*
X29458095Y-54688809D01*
X29577142Y-54688809D01*
X29696190Y-54629285D01*
X29755714Y-54510238D01*
X29755714Y-54212619D01*
X29815238Y-54093571D01*
X30112857Y-53498333D02*
X28862857Y-53498333D01*
X30053333Y-53498333D02*
X30112857Y-53379285D01*
X30112857Y-53141190D01*
X30053333Y-53022142D01*
X29993809Y-52962619D01*
X29874761Y-52903095D01*
X29517619Y-52903095D01*
X29398571Y-52962619D01*
X29339047Y-53022142D01*
X29279523Y-53141190D01*
X29279523Y-53379285D01*
X29339047Y-53498333D01*
X29339047Y-52426904D02*
X29279523Y-52307857D01*
X29279523Y-52069761D01*
X29339047Y-51950714D01*
X29458095Y-51891190D01*
X29517619Y-51891190D01*
X29636666Y-51950714D01*
X29696190Y-52069761D01*
X29696190Y-52248333D01*
X29755714Y-52367380D01*
X29874761Y-52426904D01*
X29934285Y-52426904D01*
X30053333Y-52367380D01*
X30112857Y-52248333D01*
X30112857Y-52069761D01*
X30053333Y-51950714D01*
X30112857Y-51534047D02*
X30112857Y-51057857D01*
X30529523Y-51355476D02*
X29458095Y-51355476D01*
X29339047Y-51295952D01*
X29279523Y-51176904D01*
X29279523Y-51057857D01*
X29279523Y-50462619D02*
X29339047Y-50581666D01*
X29398571Y-50641190D01*
X29517619Y-50700714D01*
X29874761Y-50700714D01*
X29993809Y-50641190D01*
X30053333Y-50581666D01*
X30112857Y-50462619D01*
X30112857Y-50284047D01*
X30053333Y-50165000D01*
X29993809Y-50105476D01*
X29874761Y-50045952D01*
X29517619Y-50045952D01*
X29398571Y-50105476D01*
X29339047Y-50165000D01*
X29279523Y-50284047D01*
X29279523Y-50462619D01*
X30112857Y-49510238D02*
X29279523Y-49510238D01*
X29993809Y-49510238D02*
X30053333Y-49450714D01*
X30112857Y-49331666D01*
X30112857Y-49153095D01*
X30053333Y-49034047D01*
X29934285Y-48974523D01*
X29279523Y-48974523D01*
X29339047Y-47903095D02*
X29279523Y-48022142D01*
X29279523Y-48260238D01*
X29339047Y-48379285D01*
X29458095Y-48438809D01*
X29934285Y-48438809D01*
X30053333Y-48379285D01*
X30112857Y-48260238D01*
X30112857Y-48022142D01*
X30053333Y-47903095D01*
X29934285Y-47843571D01*
X29815238Y-47843571D01*
X29696190Y-48438809D01*
X29279523Y-47307857D02*
X30112857Y-47307857D01*
X29993809Y-47307857D02*
X30053333Y-47248333D01*
X30112857Y-47129285D01*
X30112857Y-46950714D01*
X30053333Y-46831666D01*
X29934285Y-46772142D01*
X29279523Y-46772142D01*
X29934285Y-46772142D02*
X30053333Y-46712619D01*
X30112857Y-46593571D01*
X30112857Y-46415000D01*
X30053333Y-46295952D01*
X29934285Y-46236428D01*
X29279523Y-46236428D01*
X29279523Y-45641190D02*
X30529523Y-45641190D01*
X29755714Y-45522142D02*
X29279523Y-45165000D01*
X30112857Y-45165000D02*
X29636666Y-45641190D01*
X29279523Y-44629285D02*
X30112857Y-44629285D01*
X30529523Y-44629285D02*
X30470000Y-44688809D01*
X30410476Y-44629285D01*
X30470000Y-44569761D01*
X30529523Y-44629285D01*
X30410476Y-44629285D01*
X26104523Y-68141190D02*
X26699761Y-68557857D01*
X26104523Y-68855476D02*
X27354523Y-68855476D01*
X27354523Y-68379285D01*
X27295000Y-68260238D01*
X27235476Y-68200714D01*
X27116428Y-68141190D01*
X26937857Y-68141190D01*
X26818809Y-68200714D01*
X26759285Y-68260238D01*
X26699761Y-68379285D01*
X26699761Y-68855476D01*
X26759285Y-67605476D02*
X26759285Y-67188809D01*
X26104523Y-67010238D02*
X26104523Y-67605476D01*
X27354523Y-67605476D01*
X27354523Y-67010238D01*
X27354523Y-66593571D02*
X27354523Y-65760238D01*
X26104523Y-66593571D01*
X26104523Y-65760238D01*
X26461666Y-65343571D02*
X26461666Y-64748333D01*
X26104523Y-65462619D02*
X27354523Y-65045952D01*
X26104523Y-64629285D01*
X26104523Y-64212619D02*
X27354523Y-64212619D01*
X26104523Y-63498333D01*
X27354523Y-63498333D01*
X26461666Y-62962619D02*
X26461666Y-62367380D01*
X26104523Y-63081666D02*
X27354523Y-62665000D01*
X26104523Y-62248333D01*
X27354523Y-62010238D02*
X27354523Y-61295952D01*
X26104523Y-61653095D02*
X27354523Y-61653095D01*
X27354523Y-60641190D02*
X27354523Y-60403095D01*
X27295000Y-60284047D01*
X27175952Y-60165000D01*
X26937857Y-60105476D01*
X26521190Y-60105476D01*
X26283095Y-60165000D01*
X26164047Y-60284047D01*
X26104523Y-60403095D01*
X26104523Y-60641190D01*
X26164047Y-60760238D01*
X26283095Y-60879285D01*
X26521190Y-60938809D01*
X26937857Y-60938809D01*
X27175952Y-60879285D01*
X27295000Y-60760238D01*
X27354523Y-60641190D01*
X26104523Y-58855476D02*
X26699761Y-59272142D01*
X26104523Y-59569761D02*
X27354523Y-59569761D01*
X27354523Y-59093571D01*
X27295000Y-58974523D01*
X27235476Y-58915000D01*
X27116428Y-58855476D01*
X26937857Y-58855476D01*
X26818809Y-58915000D01*
X26759285Y-58974523D01*
X26699761Y-59093571D01*
X26699761Y-59569761D01*
X26164047Y-58379285D02*
X26104523Y-58200714D01*
X26104523Y-57903095D01*
X26164047Y-57784047D01*
X26223571Y-57724523D01*
X26342619Y-57665000D01*
X26461666Y-57665000D01*
X26580714Y-57724523D01*
X26640238Y-57784047D01*
X26699761Y-57903095D01*
X26759285Y-58141190D01*
X26818809Y-58260238D01*
X26878333Y-58319761D01*
X26997380Y-58379285D01*
X27116428Y-58379285D01*
X27235476Y-58319761D01*
X27295000Y-58260238D01*
X27354523Y-58141190D01*
X27354523Y-57843571D01*
X27295000Y-57665000D01*
X25628333Y-55819761D02*
X25687857Y-55879285D01*
X25866428Y-55998333D01*
X25985476Y-56057857D01*
X26164047Y-56117380D01*
X26461666Y-56176904D01*
X26699761Y-56176904D01*
X26997380Y-56117380D01*
X27175952Y-56057857D01*
X27295000Y-55998333D01*
X27473571Y-55879285D01*
X27533095Y-55819761D01*
X26759285Y-54926904D02*
X26699761Y-54748333D01*
X26640238Y-54688809D01*
X26521190Y-54629285D01*
X26342619Y-54629285D01*
X26223571Y-54688809D01*
X26164047Y-54748333D01*
X26104523Y-54867380D01*
X26104523Y-55343571D01*
X27354523Y-55343571D01*
X27354523Y-54926904D01*
X27295000Y-54807857D01*
X27235476Y-54748333D01*
X27116428Y-54688809D01*
X26997380Y-54688809D01*
X26878333Y-54748333D01*
X26818809Y-54807857D01*
X26759285Y-54926904D01*
X26759285Y-55343571D01*
X26104523Y-54093571D02*
X27354523Y-54093571D01*
X26104523Y-53557857D02*
X26759285Y-53557857D01*
X26878333Y-53617380D01*
X26937857Y-53736428D01*
X26937857Y-53915000D01*
X26878333Y-54034047D01*
X26818809Y-54093571D01*
X26104523Y-52426904D02*
X26759285Y-52426904D01*
X26878333Y-52486428D01*
X26937857Y-52605476D01*
X26937857Y-52843571D01*
X26878333Y-52962619D01*
X26164047Y-52426904D02*
X26104523Y-52545952D01*
X26104523Y-52843571D01*
X26164047Y-52962619D01*
X26283095Y-53022142D01*
X26402142Y-53022142D01*
X26521190Y-52962619D01*
X26580714Y-52843571D01*
X26580714Y-52545952D01*
X26640238Y-52426904D01*
X26937857Y-51950714D02*
X26104523Y-51653095D01*
X26937857Y-51355476D01*
X26104523Y-50879285D02*
X26937857Y-50879285D01*
X27354523Y-50879285D02*
X27295000Y-50938809D01*
X27235476Y-50879285D01*
X27295000Y-50819761D01*
X27354523Y-50879285D01*
X27235476Y-50879285D01*
X26104523Y-50284047D02*
X27354523Y-50284047D01*
X26580714Y-50165000D02*
X26104523Y-49807857D01*
X26937857Y-49807857D02*
X26461666Y-50284047D01*
X26164047Y-49212619D02*
X26104523Y-49212619D01*
X25985476Y-49272142D01*
X25925952Y-49331666D01*
X27354523Y-47367380D02*
X26461666Y-47367380D01*
X26283095Y-47426904D01*
X26164047Y-47545952D01*
X26104523Y-47724523D01*
X26104523Y-47843571D01*
X26104523Y-46593571D02*
X26164047Y-46712619D01*
X26223571Y-46772142D01*
X26342619Y-46831666D01*
X26699761Y-46831666D01*
X26818809Y-46772142D01*
X26878333Y-46712619D01*
X26937857Y-46593571D01*
X26937857Y-46415000D01*
X26878333Y-46295952D01*
X26818809Y-46236428D01*
X26699761Y-46176904D01*
X26342619Y-46176904D01*
X26223571Y-46236428D01*
X26164047Y-46295952D01*
X26104523Y-46415000D01*
X26104523Y-46593571D01*
X26164047Y-45700714D02*
X26104523Y-45581666D01*
X26104523Y-45343571D01*
X26164047Y-45224523D01*
X26283095Y-45165000D01*
X26342619Y-45165000D01*
X26461666Y-45224523D01*
X26521190Y-45343571D01*
X26521190Y-45522142D01*
X26580714Y-45641190D01*
X26699761Y-45700714D01*
X26759285Y-45700714D01*
X26878333Y-45641190D01*
X26937857Y-45522142D01*
X26937857Y-45343571D01*
X26878333Y-45224523D01*
X26164047Y-44153095D02*
X26104523Y-44272142D01*
X26104523Y-44510238D01*
X26164047Y-44629285D01*
X26283095Y-44688809D01*
X26759285Y-44688809D01*
X26878333Y-44629285D01*
X26937857Y-44510238D01*
X26937857Y-44272142D01*
X26878333Y-44153095D01*
X26759285Y-44093571D01*
X26640238Y-44093571D01*
X26521190Y-44688809D01*
X26937857Y-43557857D02*
X25687857Y-43557857D01*
X26878333Y-43557857D02*
X26937857Y-43438809D01*
X26937857Y-43200714D01*
X26878333Y-43081666D01*
X26818809Y-43022142D01*
X26699761Y-42962619D01*
X26342619Y-42962619D01*
X26223571Y-43022142D01*
X26164047Y-43081666D01*
X26104523Y-43200714D01*
X26104523Y-43438809D01*
X26164047Y-43557857D01*
X26104523Y-42426904D02*
X27354523Y-42426904D01*
X26104523Y-41891190D02*
X26759285Y-41891190D01*
X26878333Y-41950714D01*
X26937857Y-42069761D01*
X26937857Y-42248333D01*
X26878333Y-42367380D01*
X26818809Y-42426904D01*
X26164047Y-41236428D02*
X26104523Y-41236428D01*
X25985476Y-41295952D01*
X25925952Y-41355476D01*
X26104523Y-39748333D02*
X27354523Y-39748333D01*
X26104523Y-39034047D01*
X27354523Y-39034047D01*
X26104523Y-38438809D02*
X26937857Y-38438809D01*
X27354523Y-38438809D02*
X27295000Y-38498333D01*
X27235476Y-38438809D01*
X27295000Y-38379285D01*
X27354523Y-38438809D01*
X27235476Y-38438809D01*
X26164047Y-37307857D02*
X26104523Y-37426904D01*
X26104523Y-37665000D01*
X26164047Y-37784047D01*
X26223571Y-37843571D01*
X26342619Y-37903095D01*
X26699761Y-37903095D01*
X26818809Y-37843571D01*
X26878333Y-37784047D01*
X26937857Y-37665000D01*
X26937857Y-37426904D01*
X26878333Y-37307857D01*
X26104523Y-36772142D02*
X27354523Y-36772142D01*
X26104523Y-36236428D02*
X26759285Y-36236428D01*
X26878333Y-36295952D01*
X26937857Y-36415000D01*
X26937857Y-36593571D01*
X26878333Y-36712619D01*
X26818809Y-36772142D01*
X26104523Y-35462619D02*
X26164047Y-35581666D01*
X26223571Y-35641190D01*
X26342619Y-35700714D01*
X26699761Y-35700714D01*
X26818809Y-35641190D01*
X26878333Y-35581666D01*
X26937857Y-35462619D01*
X26937857Y-35284047D01*
X26878333Y-35165000D01*
X26818809Y-35105476D01*
X26699761Y-35045952D01*
X26342619Y-35045952D01*
X26223571Y-35105476D01*
X26164047Y-35165000D01*
X26104523Y-35284047D01*
X26104523Y-35462619D01*
X26104523Y-34331666D02*
X26164047Y-34450714D01*
X26283095Y-34510238D01*
X27354523Y-34510238D01*
X26104523Y-33319761D02*
X26759285Y-33319761D01*
X26878333Y-33379285D01*
X26937857Y-33498333D01*
X26937857Y-33736428D01*
X26878333Y-33855476D01*
X26164047Y-33319761D02*
X26104523Y-33438809D01*
X26104523Y-33736428D01*
X26164047Y-33855476D01*
X26283095Y-33915000D01*
X26402142Y-33915000D01*
X26521190Y-33855476D01*
X26580714Y-33736428D01*
X26580714Y-33438809D01*
X26640238Y-33319761D01*
X26164047Y-32784047D02*
X26104523Y-32665000D01*
X26104523Y-32426904D01*
X26164047Y-32307857D01*
X26283095Y-32248333D01*
X26342619Y-32248333D01*
X26461666Y-32307857D01*
X26521190Y-32426904D01*
X26521190Y-32605476D01*
X26580714Y-32724523D01*
X26699761Y-32784047D01*
X26759285Y-32784047D01*
X26878333Y-32724523D01*
X26937857Y-32605476D01*
X26937857Y-32426904D01*
X26878333Y-32307857D01*
X25628333Y-31831666D02*
X25687857Y-31772142D01*
X25866428Y-31653095D01*
X25985476Y-31593571D01*
X26164047Y-31534047D01*
X26461666Y-31474523D01*
X26699761Y-31474523D01*
X26997380Y-31534047D01*
X27175952Y-31593571D01*
X27295000Y-31653095D01*
X27473571Y-31772142D01*
X27533095Y-31831666D01*
D11*
X71580000Y-48895000D02*
G75*
G03X71580000Y-48895000I-6100000J0D01*
G01*
X76175000Y-61455000D02*
X76175000Y-62145000D01*
X76175000Y-72075000D02*
X76175000Y-71385000D01*
X77895000Y-62145000D02*
X77895000Y-71385000D01*
X74455000Y-62145000D02*
X77895000Y-62145000D01*
X74455000Y-71385000D02*
X74455000Y-62145000D01*
X77895000Y-71385000D02*
X74455000Y-71385000D01*
X80925000Y-61455000D02*
X80925000Y-62145000D01*
X80925000Y-72075000D02*
X80925000Y-71385000D01*
X82645000Y-62145000D02*
X82645000Y-71385000D01*
X79205000Y-62145000D02*
X82645000Y-62145000D01*
X79205000Y-71385000D02*
X79205000Y-62145000D01*
X82645000Y-71385000D02*
X79205000Y-71385000D01*
X85675000Y-61455000D02*
X85675000Y-62145000D01*
X85675000Y-72075000D02*
X85675000Y-71385000D01*
X87395000Y-62145000D02*
X87395000Y-71385000D01*
X83955000Y-62145000D02*
X87395000Y-62145000D01*
X83955000Y-71385000D02*
X83955000Y-62145000D01*
X87395000Y-71385000D02*
X83955000Y-71385000D01*
X87055000Y-57845000D02*
X87055000Y-56515000D01*
X85725000Y-57845000D02*
X87055000Y-57845000D01*
X84455000Y-57845000D02*
X84455000Y-55185000D01*
X84455000Y-55185000D02*
X76775000Y-55185000D01*
X84455000Y-57845000D02*
X76775000Y-57845000D01*
X76775000Y-57845000D02*
X76775000Y-55185000D01*
X62798478Y-40573478D02*
G75*
G02X58360000Y-38735000I-1838478J1838478D01*
G01*
X62798478Y-36896522D02*
G75*
G03X58360000Y-38735000I-1838478J-1838478D01*
G01*
X62810000Y-36935000D02*
X62810000Y-40535000D01*
X93980000Y-30480000D02*
X93980000Y-40640000D01*
X86360000Y-30480000D02*
X93980000Y-30480000D01*
X86360000Y-40640000D02*
X86360000Y-30480000D01*
X93980000Y-40640000D02*
X86360000Y-40640000D01*
X92710000Y-40640000D02*
X92710000Y-30480000D01*
X58995000Y-68640000D02*
X60325000Y-68640000D01*
X58995000Y-67310000D02*
X58995000Y-68640000D01*
X58995000Y-66040000D02*
X61655000Y-66040000D01*
X61655000Y-66040000D02*
X61655000Y-63440000D01*
X58995000Y-66040000D02*
X58995000Y-63440000D01*
X58995000Y-63440000D02*
X61655000Y-63440000D01*
X89127500Y-49100000D02*
X89577500Y-49100000D01*
X89127500Y-49100000D02*
X89127500Y-49550000D01*
X89677500Y-54700000D02*
X89677500Y-54250000D01*
X91527500Y-54700000D02*
X89677500Y-54700000D01*
X94077500Y-46900000D02*
X93827500Y-46900000D01*
X94077500Y-54700000D02*
X93827500Y-54700000D01*
X91527500Y-46900000D02*
X89677500Y-46900000D01*
X89677500Y-46900000D02*
X89677500Y-47350000D01*
X28370000Y-71935000D02*
X29620000Y-71935000D01*
X28370000Y-73185000D02*
X28370000Y-71935000D01*
X32780000Y-75295000D02*
X32280000Y-75295000D01*
X32280000Y-75395000D02*
X32780000Y-75395000D01*
X32280000Y-75195000D02*
X32280000Y-75395000D01*
X32780000Y-75195000D02*
X32280000Y-75195000D01*
X31280000Y-78355000D02*
X31280000Y-77745000D01*
X29980000Y-78355000D02*
X29980000Y-77745000D01*
X31280000Y-72235000D02*
X31280000Y-72845000D01*
X29980000Y-72235000D02*
X29980000Y-72845000D01*
X29280000Y-75795000D02*
X28670000Y-75795000D01*
X29280000Y-77745000D02*
X29280000Y-75795000D01*
X32780000Y-77745000D02*
X29280000Y-77745000D01*
X32780000Y-72845000D02*
X32780000Y-77745000D01*
X29280000Y-72845000D02*
X32780000Y-72845000D01*
X29280000Y-74795000D02*
X29280000Y-72845000D01*
X28670000Y-74795000D02*
X29280000Y-74795000D01*
X28570000Y-73995000D02*
X28570000Y-73695000D01*
X28470000Y-73695000D02*
X28670000Y-73695000D01*
X28470000Y-73995000D02*
X28470000Y-73695000D01*
X28670000Y-73995000D02*
X28470000Y-73995000D01*
X28670000Y-78355000D02*
X28670000Y-72235000D01*
X33390000Y-78355000D02*
X28670000Y-78355000D01*
X33390000Y-72235000D02*
X33390000Y-78355000D01*
X28670000Y-72235000D02*
X33390000Y-72235000D01*
X88800000Y-61570000D02*
X88800000Y-59285000D01*
X90270000Y-61570000D02*
X88800000Y-61570000D01*
X90270000Y-59285000D02*
X90270000Y-61570000D01*
X88800000Y-70065000D02*
X88800000Y-67780000D01*
X90270000Y-70065000D02*
X88800000Y-70065000D01*
X90270000Y-67780000D02*
X90270000Y-70065000D01*
X89025000Y-63662779D02*
X89025000Y-63337221D01*
X90045000Y-63662779D02*
X90045000Y-63337221D01*
X89025000Y-72705279D02*
X89025000Y-72379721D01*
X90045000Y-72705279D02*
X90045000Y-72379721D01*
D12*
X66360952Y-55823571D02*
X66218095Y-55871190D01*
X66170476Y-55918809D01*
X66122857Y-56014047D01*
X66122857Y-56156904D01*
X66170476Y-56252142D01*
X66218095Y-56299761D01*
X66313333Y-56347380D01*
X66694285Y-56347380D01*
X66694285Y-55347380D01*
X66360952Y-55347380D01*
X66265714Y-55395000D01*
X66218095Y-55442619D01*
X66170476Y-55537857D01*
X66170476Y-55633095D01*
X66218095Y-55728333D01*
X66265714Y-55775952D01*
X66360952Y-55823571D01*
X66694285Y-55823571D01*
X65789523Y-55347380D02*
X65122857Y-55347380D01*
X65789523Y-56347380D01*
X65122857Y-56347380D01*
X64218095Y-56347380D02*
X64789523Y-56347380D01*
X64503809Y-56347380D02*
X64503809Y-55347380D01*
X64599047Y-55490238D01*
X64694285Y-55585476D01*
X64789523Y-55633095D01*
X62610952Y-50766428D02*
X61849047Y-50766428D01*
X62230000Y-51147380D02*
X62230000Y-50385476D01*
X79347380Y-66122142D02*
X78871190Y-65788809D01*
X79347380Y-65550714D02*
X78347380Y-65550714D01*
X78347380Y-65931666D01*
X78395000Y-66026904D01*
X78442619Y-66074523D01*
X78537857Y-66122142D01*
X78680714Y-66122142D01*
X78775952Y-66074523D01*
X78823571Y-66026904D01*
X78871190Y-65931666D01*
X78871190Y-65550714D01*
X79347380Y-67074523D02*
X79347380Y-66503095D01*
X79347380Y-66788809D02*
X78347380Y-66788809D01*
X78490238Y-66693571D01*
X78585476Y-66598333D01*
X78633095Y-66503095D01*
X78347380Y-67979285D02*
X78347380Y-67503095D01*
X78823571Y-67455476D01*
X78775952Y-67503095D01*
X78728333Y-67598333D01*
X78728333Y-67836428D01*
X78775952Y-67931666D01*
X78823571Y-67979285D01*
X78918809Y-68026904D01*
X79156904Y-68026904D01*
X79252142Y-67979285D01*
X79299761Y-67931666D01*
X79347380Y-67836428D01*
X79347380Y-67598333D01*
X79299761Y-67503095D01*
X79252142Y-67455476D01*
X84097380Y-66122142D02*
X83621190Y-65788809D01*
X84097380Y-65550714D02*
X83097380Y-65550714D01*
X83097380Y-65931666D01*
X83145000Y-66026904D01*
X83192619Y-66074523D01*
X83287857Y-66122142D01*
X83430714Y-66122142D01*
X83525952Y-66074523D01*
X83573571Y-66026904D01*
X83621190Y-65931666D01*
X83621190Y-65550714D01*
X84097380Y-67074523D02*
X84097380Y-66503095D01*
X84097380Y-66788809D02*
X83097380Y-66788809D01*
X83240238Y-66693571D01*
X83335476Y-66598333D01*
X83383095Y-66503095D01*
X83430714Y-67931666D02*
X84097380Y-67931666D01*
X83049761Y-67693571D02*
X83764047Y-67455476D01*
X83764047Y-68074523D01*
X88847380Y-66122142D02*
X88371190Y-65788809D01*
X88847380Y-65550714D02*
X87847380Y-65550714D01*
X87847380Y-65931666D01*
X87895000Y-66026904D01*
X87942619Y-66074523D01*
X88037857Y-66122142D01*
X88180714Y-66122142D01*
X88275952Y-66074523D01*
X88323571Y-66026904D01*
X88371190Y-65931666D01*
X88371190Y-65550714D01*
X88847380Y-67074523D02*
X88847380Y-66503095D01*
X88847380Y-66788809D02*
X87847380Y-66788809D01*
X87990238Y-66693571D01*
X88085476Y-66598333D01*
X88133095Y-66503095D01*
X87847380Y-67407857D02*
X87847380Y-68026904D01*
X88228333Y-67693571D01*
X88228333Y-67836428D01*
X88275952Y-67931666D01*
X88323571Y-67979285D01*
X88418809Y-68026904D01*
X88656904Y-68026904D01*
X88752142Y-67979285D01*
X88799761Y-67931666D01*
X88847380Y-67836428D01*
X88847380Y-67550714D01*
X88799761Y-67455476D01*
X88752142Y-67407857D01*
X87507380Y-56181666D02*
X88221666Y-56181666D01*
X88364523Y-56134047D01*
X88459761Y-56038809D01*
X88507380Y-55895952D01*
X88507380Y-55800714D01*
X87507380Y-57086428D02*
X87507380Y-56895952D01*
X87555000Y-56800714D01*
X87602619Y-56753095D01*
X87745476Y-56657857D01*
X87935952Y-56610238D01*
X88316904Y-56610238D01*
X88412142Y-56657857D01*
X88459761Y-56705476D01*
X88507380Y-56800714D01*
X88507380Y-56991190D01*
X88459761Y-57086428D01*
X88412142Y-57134047D01*
X88316904Y-57181666D01*
X88078809Y-57181666D01*
X87983571Y-57134047D01*
X87935952Y-57086428D01*
X87888333Y-56991190D01*
X87888333Y-56800714D01*
X87935952Y-56705476D01*
X87983571Y-56657857D01*
X88078809Y-56610238D01*
X57947619Y-38639761D02*
X57900000Y-38544523D01*
X57804761Y-38449285D01*
X57661904Y-38306428D01*
X57614285Y-38211190D01*
X57614285Y-38115952D01*
X57852380Y-38163571D02*
X57804761Y-38068333D01*
X57709523Y-37973095D01*
X57519047Y-37925476D01*
X57185714Y-37925476D01*
X56995238Y-37973095D01*
X56900000Y-38068333D01*
X56852380Y-38163571D01*
X56852380Y-38354047D01*
X56900000Y-38449285D01*
X56995238Y-38544523D01*
X57185714Y-38592142D01*
X57519047Y-38592142D01*
X57709523Y-38544523D01*
X57804761Y-38449285D01*
X57852380Y-38354047D01*
X57852380Y-38163571D01*
X57852380Y-39544523D02*
X57852380Y-38973095D01*
X57852380Y-39258809D02*
X56852380Y-39258809D01*
X56995238Y-39163571D01*
X57090476Y-39068333D01*
X57138095Y-38973095D01*
X84542380Y-35226666D02*
X85256666Y-35226666D01*
X85399523Y-35179047D01*
X85494761Y-35083809D01*
X85542380Y-34940952D01*
X85542380Y-34845714D01*
X84542380Y-36179047D02*
X84542380Y-35702857D01*
X85018571Y-35655238D01*
X84970952Y-35702857D01*
X84923333Y-35798095D01*
X84923333Y-36036190D01*
X84970952Y-36131428D01*
X85018571Y-36179047D01*
X85113809Y-36226666D01*
X85351904Y-36226666D01*
X85447142Y-36179047D01*
X85494761Y-36131428D01*
X85542380Y-36036190D01*
X85542380Y-35798095D01*
X85494761Y-35702857D01*
X85447142Y-35655238D01*
X60658333Y-69092380D02*
X60658333Y-69806666D01*
X60705952Y-69949523D01*
X60801190Y-70044761D01*
X60944047Y-70092380D01*
X61039285Y-70092380D01*
X60277380Y-69092380D02*
X59658333Y-69092380D01*
X59991666Y-69473333D01*
X59848809Y-69473333D01*
X59753571Y-69520952D01*
X59705952Y-69568571D01*
X59658333Y-69663809D01*
X59658333Y-69901904D01*
X59705952Y-69997142D01*
X59753571Y-70044761D01*
X59848809Y-70092380D01*
X60134523Y-70092380D01*
X60229761Y-70044761D01*
X60277380Y-69997142D01*
X87779880Y-50466666D02*
X88494166Y-50466666D01*
X88637023Y-50419047D01*
X88732261Y-50323809D01*
X88779880Y-50180952D01*
X88779880Y-50085714D01*
X88779880Y-51466666D02*
X88779880Y-50895238D01*
X88779880Y-51180952D02*
X87779880Y-51180952D01*
X87922738Y-51085714D01*
X88017976Y-50990476D01*
X88065595Y-50895238D01*
X27032380Y-74961666D02*
X27746666Y-74961666D01*
X27889523Y-74914047D01*
X27984761Y-74818809D01*
X28032380Y-74675952D01*
X28032380Y-74580714D01*
X27127619Y-75390238D02*
X27080000Y-75437857D01*
X27032380Y-75533095D01*
X27032380Y-75771190D01*
X27080000Y-75866428D01*
X27127619Y-75914047D01*
X27222857Y-75961666D01*
X27318095Y-75961666D01*
X27460952Y-75914047D01*
X28032380Y-75342619D01*
X28032380Y-75961666D01*
X91417380Y-59346904D02*
X90417380Y-59346904D01*
X90417380Y-59585000D01*
X90465000Y-59727857D01*
X90560238Y-59823095D01*
X90655476Y-59870714D01*
X90845952Y-59918333D01*
X90988809Y-59918333D01*
X91179285Y-59870714D01*
X91274523Y-59823095D01*
X91369761Y-59727857D01*
X91417380Y-59585000D01*
X91417380Y-59346904D01*
X90512619Y-60299285D02*
X90465000Y-60346904D01*
X90417380Y-60442142D01*
X90417380Y-60680238D01*
X90465000Y-60775476D01*
X90512619Y-60823095D01*
X90607857Y-60870714D01*
X90703095Y-60870714D01*
X90845952Y-60823095D01*
X91417380Y-60251666D01*
X91417380Y-60870714D01*
X91417380Y-67841904D02*
X90417380Y-67841904D01*
X90417380Y-68080000D01*
X90465000Y-68222857D01*
X90560238Y-68318095D01*
X90655476Y-68365714D01*
X90845952Y-68413333D01*
X90988809Y-68413333D01*
X91179285Y-68365714D01*
X91274523Y-68318095D01*
X91369761Y-68222857D01*
X91417380Y-68080000D01*
X91417380Y-67841904D01*
X91417380Y-69365714D02*
X91417380Y-68794285D01*
X91417380Y-69080000D02*
X90417380Y-69080000D01*
X90560238Y-68984761D01*
X90655476Y-68889523D01*
X90703095Y-68794285D01*
X91417380Y-63333333D02*
X90941190Y-63000000D01*
X91417380Y-62761904D02*
X90417380Y-62761904D01*
X90417380Y-63142857D01*
X90465000Y-63238095D01*
X90512619Y-63285714D01*
X90607857Y-63333333D01*
X90750714Y-63333333D01*
X90845952Y-63285714D01*
X90893571Y-63238095D01*
X90941190Y-63142857D01*
X90941190Y-62761904D01*
X91417380Y-63809523D02*
X91417380Y-64000000D01*
X91369761Y-64095238D01*
X91322142Y-64142857D01*
X91179285Y-64238095D01*
X90988809Y-64285714D01*
X90607857Y-64285714D01*
X90512619Y-64238095D01*
X90465000Y-64190476D01*
X90417380Y-64095238D01*
X90417380Y-63904761D01*
X90465000Y-63809523D01*
X90512619Y-63761904D01*
X90607857Y-63714285D01*
X90845952Y-63714285D01*
X90941190Y-63761904D01*
X90988809Y-63809523D01*
X91036428Y-63904761D01*
X91036428Y-64095238D01*
X90988809Y-64190476D01*
X90941190Y-64238095D01*
X90845952Y-64285714D01*
X91417380Y-72375833D02*
X90941190Y-72042500D01*
X91417380Y-71804404D02*
X90417380Y-71804404D01*
X90417380Y-72185357D01*
X90465000Y-72280595D01*
X90512619Y-72328214D01*
X90607857Y-72375833D01*
X90750714Y-72375833D01*
X90845952Y-72328214D01*
X90893571Y-72280595D01*
X90941190Y-72185357D01*
X90941190Y-71804404D01*
X90845952Y-72947261D02*
X90798333Y-72852023D01*
X90750714Y-72804404D01*
X90655476Y-72756785D01*
X90607857Y-72756785D01*
X90512619Y-72804404D01*
X90465000Y-72852023D01*
X90417380Y-72947261D01*
X90417380Y-73137738D01*
X90465000Y-73232976D01*
X90512619Y-73280595D01*
X90607857Y-73328214D01*
X90655476Y-73328214D01*
X90750714Y-73280595D01*
X90798333Y-73232976D01*
X90845952Y-73137738D01*
X90845952Y-72947261D01*
X90893571Y-72852023D01*
X90941190Y-72804404D01*
X91036428Y-72756785D01*
X91226904Y-72756785D01*
X91322142Y-72804404D01*
X91369761Y-72852023D01*
X91417380Y-72947261D01*
X91417380Y-73137738D01*
X91369761Y-73232976D01*
X91322142Y-73280595D01*
X91226904Y-73328214D01*
X91036428Y-73328214D01*
X90941190Y-73280595D01*
X90893571Y-73232976D01*
X90845952Y-73137738D01*
M02*
