G04 #@! TF.GenerationSoftware,KiCad,Pcbnew,(5.1.5)-3*
G04 #@! TF.CreationDate,2020-03-03T13:48:05-08:00*
G04 #@! TF.ProjectId,capstonemki,63617073-746f-46e6-956d-6b692e6b6963,rev?*
G04 #@! TF.SameCoordinates,Original*
G04 #@! TF.FileFunction,Soldermask,Top*
G04 #@! TF.FilePolarity,Negative*
%FSLAX46Y46*%
G04 Gerber Fmt 4.6, Leading zero omitted, Abs format (unit mm)*
G04 Created by KiCad (PCBNEW (5.1.5)-3) date 2020-03-03 13:48:05*
%MOMM*%
%LPD*%
G04 APERTURE LIST*
%ADD10C,0.100000*%
G04 APERTURE END LIST*
D10*
G36*
X86608228Y-75381703D02*
G01*
X86763100Y-75445853D01*
X86902481Y-75538985D01*
X87021015Y-75657519D01*
X87114147Y-75796900D01*
X87178297Y-75951772D01*
X87211000Y-76116184D01*
X87211000Y-76283816D01*
X87178297Y-76448228D01*
X87114147Y-76603100D01*
X87021015Y-76742481D01*
X86902481Y-76861015D01*
X86763100Y-76954147D01*
X86608228Y-77018297D01*
X86443816Y-77051000D01*
X86276184Y-77051000D01*
X86111772Y-77018297D01*
X85956900Y-76954147D01*
X85817519Y-76861015D01*
X85698985Y-76742481D01*
X85605853Y-76603100D01*
X85541703Y-76448228D01*
X85509000Y-76283816D01*
X85509000Y-76116184D01*
X85541703Y-75951772D01*
X85605853Y-75796900D01*
X85698985Y-75657519D01*
X85817519Y-75538985D01*
X85956900Y-75445853D01*
X86111772Y-75381703D01*
X86276184Y-75349000D01*
X86443816Y-75349000D01*
X86608228Y-75381703D01*
G37*
G36*
X67308228Y-75381703D02*
G01*
X67463100Y-75445853D01*
X67602481Y-75538985D01*
X67721015Y-75657519D01*
X67814147Y-75796900D01*
X67878297Y-75951772D01*
X67911000Y-76116184D01*
X67911000Y-76283816D01*
X67878297Y-76448228D01*
X67814147Y-76603100D01*
X67721015Y-76742481D01*
X67602481Y-76861015D01*
X67463100Y-76954147D01*
X67308228Y-77018297D01*
X67143816Y-77051000D01*
X66976184Y-77051000D01*
X66811772Y-77018297D01*
X66656900Y-76954147D01*
X66517519Y-76861015D01*
X66398985Y-76742481D01*
X66305853Y-76603100D01*
X66241703Y-76448228D01*
X66209000Y-76283816D01*
X66209000Y-76116184D01*
X66241703Y-75951772D01*
X66305853Y-75796900D01*
X66398985Y-75657519D01*
X66517519Y-75538985D01*
X66656900Y-75445853D01*
X66811772Y-75381703D01*
X66976184Y-75349000D01*
X67143816Y-75349000D01*
X67308228Y-75381703D01*
G37*
G36*
X44448228Y-75381703D02*
G01*
X44603100Y-75445853D01*
X44742481Y-75538985D01*
X44861015Y-75657519D01*
X44954147Y-75796900D01*
X45018297Y-75951772D01*
X45051000Y-76116184D01*
X45051000Y-76283816D01*
X45018297Y-76448228D01*
X44954147Y-76603100D01*
X44861015Y-76742481D01*
X44742481Y-76861015D01*
X44603100Y-76954147D01*
X44448228Y-77018297D01*
X44283816Y-77051000D01*
X44116184Y-77051000D01*
X43951772Y-77018297D01*
X43796900Y-76954147D01*
X43657519Y-76861015D01*
X43538985Y-76742481D01*
X43445853Y-76603100D01*
X43381703Y-76448228D01*
X43349000Y-76283816D01*
X43349000Y-76116184D01*
X43381703Y-75951772D01*
X43445853Y-75796900D01*
X43538985Y-75657519D01*
X43657519Y-75538985D01*
X43796900Y-75445853D01*
X43951772Y-75381703D01*
X44116184Y-75349000D01*
X44283816Y-75349000D01*
X44448228Y-75381703D01*
G37*
G36*
X46988228Y-75381703D02*
G01*
X47143100Y-75445853D01*
X47282481Y-75538985D01*
X47401015Y-75657519D01*
X47494147Y-75796900D01*
X47558297Y-75951772D01*
X47591000Y-76116184D01*
X47591000Y-76283816D01*
X47558297Y-76448228D01*
X47494147Y-76603100D01*
X47401015Y-76742481D01*
X47282481Y-76861015D01*
X47143100Y-76954147D01*
X46988228Y-77018297D01*
X46823816Y-77051000D01*
X46656184Y-77051000D01*
X46491772Y-77018297D01*
X46336900Y-76954147D01*
X46197519Y-76861015D01*
X46078985Y-76742481D01*
X45985853Y-76603100D01*
X45921703Y-76448228D01*
X45889000Y-76283816D01*
X45889000Y-76116184D01*
X45921703Y-75951772D01*
X45985853Y-75796900D01*
X46078985Y-75657519D01*
X46197519Y-75538985D01*
X46336900Y-75445853D01*
X46491772Y-75381703D01*
X46656184Y-75349000D01*
X46823816Y-75349000D01*
X46988228Y-75381703D01*
G37*
G36*
X84068228Y-75381703D02*
G01*
X84223100Y-75445853D01*
X84362481Y-75538985D01*
X84481015Y-75657519D01*
X84574147Y-75796900D01*
X84638297Y-75951772D01*
X84671000Y-76116184D01*
X84671000Y-76283816D01*
X84638297Y-76448228D01*
X84574147Y-76603100D01*
X84481015Y-76742481D01*
X84362481Y-76861015D01*
X84223100Y-76954147D01*
X84068228Y-77018297D01*
X83903816Y-77051000D01*
X83736184Y-77051000D01*
X83571772Y-77018297D01*
X83416900Y-76954147D01*
X83277519Y-76861015D01*
X83158985Y-76742481D01*
X83065853Y-76603100D01*
X83001703Y-76448228D01*
X82969000Y-76283816D01*
X82969000Y-76116184D01*
X83001703Y-75951772D01*
X83065853Y-75796900D01*
X83158985Y-75657519D01*
X83277519Y-75538985D01*
X83416900Y-75445853D01*
X83571772Y-75381703D01*
X83736184Y-75349000D01*
X83903816Y-75349000D01*
X84068228Y-75381703D01*
G37*
G36*
X81528228Y-75381703D02*
G01*
X81683100Y-75445853D01*
X81822481Y-75538985D01*
X81941015Y-75657519D01*
X82034147Y-75796900D01*
X82098297Y-75951772D01*
X82131000Y-76116184D01*
X82131000Y-76283816D01*
X82098297Y-76448228D01*
X82034147Y-76603100D01*
X81941015Y-76742481D01*
X81822481Y-76861015D01*
X81683100Y-76954147D01*
X81528228Y-77018297D01*
X81363816Y-77051000D01*
X81196184Y-77051000D01*
X81031772Y-77018297D01*
X80876900Y-76954147D01*
X80737519Y-76861015D01*
X80618985Y-76742481D01*
X80525853Y-76603100D01*
X80461703Y-76448228D01*
X80429000Y-76283816D01*
X80429000Y-76116184D01*
X80461703Y-75951772D01*
X80525853Y-75796900D01*
X80618985Y-75657519D01*
X80737519Y-75538985D01*
X80876900Y-75445853D01*
X81031772Y-75381703D01*
X81196184Y-75349000D01*
X81363816Y-75349000D01*
X81528228Y-75381703D01*
G37*
G36*
X78988228Y-75381703D02*
G01*
X79143100Y-75445853D01*
X79282481Y-75538985D01*
X79401015Y-75657519D01*
X79494147Y-75796900D01*
X79558297Y-75951772D01*
X79591000Y-76116184D01*
X79591000Y-76283816D01*
X79558297Y-76448228D01*
X79494147Y-76603100D01*
X79401015Y-76742481D01*
X79282481Y-76861015D01*
X79143100Y-76954147D01*
X78988228Y-77018297D01*
X78823816Y-77051000D01*
X78656184Y-77051000D01*
X78491772Y-77018297D01*
X78336900Y-76954147D01*
X78197519Y-76861015D01*
X78078985Y-76742481D01*
X77985853Y-76603100D01*
X77921703Y-76448228D01*
X77889000Y-76283816D01*
X77889000Y-76116184D01*
X77921703Y-75951772D01*
X77985853Y-75796900D01*
X78078985Y-75657519D01*
X78197519Y-75538985D01*
X78336900Y-75445853D01*
X78491772Y-75381703D01*
X78656184Y-75349000D01*
X78823816Y-75349000D01*
X78988228Y-75381703D01*
G37*
G36*
X76448228Y-75381703D02*
G01*
X76603100Y-75445853D01*
X76742481Y-75538985D01*
X76861015Y-75657519D01*
X76954147Y-75796900D01*
X77018297Y-75951772D01*
X77051000Y-76116184D01*
X77051000Y-76283816D01*
X77018297Y-76448228D01*
X76954147Y-76603100D01*
X76861015Y-76742481D01*
X76742481Y-76861015D01*
X76603100Y-76954147D01*
X76448228Y-77018297D01*
X76283816Y-77051000D01*
X76116184Y-77051000D01*
X75951772Y-77018297D01*
X75796900Y-76954147D01*
X75657519Y-76861015D01*
X75538985Y-76742481D01*
X75445853Y-76603100D01*
X75381703Y-76448228D01*
X75349000Y-76283816D01*
X75349000Y-76116184D01*
X75381703Y-75951772D01*
X75445853Y-75796900D01*
X75538985Y-75657519D01*
X75657519Y-75538985D01*
X75796900Y-75445853D01*
X75951772Y-75381703D01*
X76116184Y-75349000D01*
X76283816Y-75349000D01*
X76448228Y-75381703D01*
G37*
G36*
X73908228Y-75381703D02*
G01*
X74063100Y-75445853D01*
X74202481Y-75538985D01*
X74321015Y-75657519D01*
X74414147Y-75796900D01*
X74478297Y-75951772D01*
X74511000Y-76116184D01*
X74511000Y-76283816D01*
X74478297Y-76448228D01*
X74414147Y-76603100D01*
X74321015Y-76742481D01*
X74202481Y-76861015D01*
X74063100Y-76954147D01*
X73908228Y-77018297D01*
X73743816Y-77051000D01*
X73576184Y-77051000D01*
X73411772Y-77018297D01*
X73256900Y-76954147D01*
X73117519Y-76861015D01*
X72998985Y-76742481D01*
X72905853Y-76603100D01*
X72841703Y-76448228D01*
X72809000Y-76283816D01*
X72809000Y-76116184D01*
X72841703Y-75951772D01*
X72905853Y-75796900D01*
X72998985Y-75657519D01*
X73117519Y-75538985D01*
X73256900Y-75445853D01*
X73411772Y-75381703D01*
X73576184Y-75349000D01*
X73743816Y-75349000D01*
X73908228Y-75381703D01*
G37*
G36*
X71368228Y-75381703D02*
G01*
X71523100Y-75445853D01*
X71662481Y-75538985D01*
X71781015Y-75657519D01*
X71874147Y-75796900D01*
X71938297Y-75951772D01*
X71971000Y-76116184D01*
X71971000Y-76283816D01*
X71938297Y-76448228D01*
X71874147Y-76603100D01*
X71781015Y-76742481D01*
X71662481Y-76861015D01*
X71523100Y-76954147D01*
X71368228Y-77018297D01*
X71203816Y-77051000D01*
X71036184Y-77051000D01*
X70871772Y-77018297D01*
X70716900Y-76954147D01*
X70577519Y-76861015D01*
X70458985Y-76742481D01*
X70365853Y-76603100D01*
X70301703Y-76448228D01*
X70269000Y-76283816D01*
X70269000Y-76116184D01*
X70301703Y-75951772D01*
X70365853Y-75796900D01*
X70458985Y-75657519D01*
X70577519Y-75538985D01*
X70716900Y-75445853D01*
X70871772Y-75381703D01*
X71036184Y-75349000D01*
X71203816Y-75349000D01*
X71368228Y-75381703D01*
G37*
G36*
X62228228Y-75381703D02*
G01*
X62383100Y-75445853D01*
X62522481Y-75538985D01*
X62641015Y-75657519D01*
X62734147Y-75796900D01*
X62798297Y-75951772D01*
X62831000Y-76116184D01*
X62831000Y-76283816D01*
X62798297Y-76448228D01*
X62734147Y-76603100D01*
X62641015Y-76742481D01*
X62522481Y-76861015D01*
X62383100Y-76954147D01*
X62228228Y-77018297D01*
X62063816Y-77051000D01*
X61896184Y-77051000D01*
X61731772Y-77018297D01*
X61576900Y-76954147D01*
X61437519Y-76861015D01*
X61318985Y-76742481D01*
X61225853Y-76603100D01*
X61161703Y-76448228D01*
X61129000Y-76283816D01*
X61129000Y-76116184D01*
X61161703Y-75951772D01*
X61225853Y-75796900D01*
X61318985Y-75657519D01*
X61437519Y-75538985D01*
X61576900Y-75445853D01*
X61731772Y-75381703D01*
X61896184Y-75349000D01*
X62063816Y-75349000D01*
X62228228Y-75381703D01*
G37*
G36*
X64768228Y-75381703D02*
G01*
X64923100Y-75445853D01*
X65062481Y-75538985D01*
X65181015Y-75657519D01*
X65274147Y-75796900D01*
X65338297Y-75951772D01*
X65371000Y-76116184D01*
X65371000Y-76283816D01*
X65338297Y-76448228D01*
X65274147Y-76603100D01*
X65181015Y-76742481D01*
X65062481Y-76861015D01*
X64923100Y-76954147D01*
X64768228Y-77018297D01*
X64603816Y-77051000D01*
X64436184Y-77051000D01*
X64271772Y-77018297D01*
X64116900Y-76954147D01*
X63977519Y-76861015D01*
X63858985Y-76742481D01*
X63765853Y-76603100D01*
X63701703Y-76448228D01*
X63669000Y-76283816D01*
X63669000Y-76116184D01*
X63701703Y-75951772D01*
X63765853Y-75796900D01*
X63858985Y-75657519D01*
X63977519Y-75538985D01*
X64116900Y-75445853D01*
X64271772Y-75381703D01*
X64436184Y-75349000D01*
X64603816Y-75349000D01*
X64768228Y-75381703D01*
G37*
G36*
X89148228Y-75381703D02*
G01*
X89303100Y-75445853D01*
X89442481Y-75538985D01*
X89561015Y-75657519D01*
X89654147Y-75796900D01*
X89718297Y-75951772D01*
X89751000Y-76116184D01*
X89751000Y-76283816D01*
X89718297Y-76448228D01*
X89654147Y-76603100D01*
X89561015Y-76742481D01*
X89442481Y-76861015D01*
X89303100Y-76954147D01*
X89148228Y-77018297D01*
X88983816Y-77051000D01*
X88816184Y-77051000D01*
X88651772Y-77018297D01*
X88496900Y-76954147D01*
X88357519Y-76861015D01*
X88238985Y-76742481D01*
X88145853Y-76603100D01*
X88081703Y-76448228D01*
X88049000Y-76283816D01*
X88049000Y-76116184D01*
X88081703Y-75951772D01*
X88145853Y-75796900D01*
X88238985Y-75657519D01*
X88357519Y-75538985D01*
X88496900Y-75445853D01*
X88651772Y-75381703D01*
X88816184Y-75349000D01*
X88983816Y-75349000D01*
X89148228Y-75381703D01*
G37*
G36*
X49528228Y-75381703D02*
G01*
X49683100Y-75445853D01*
X49822481Y-75538985D01*
X49941015Y-75657519D01*
X50034147Y-75796900D01*
X50098297Y-75951772D01*
X50131000Y-76116184D01*
X50131000Y-76283816D01*
X50098297Y-76448228D01*
X50034147Y-76603100D01*
X49941015Y-76742481D01*
X49822481Y-76861015D01*
X49683100Y-76954147D01*
X49528228Y-77018297D01*
X49363816Y-77051000D01*
X49196184Y-77051000D01*
X49031772Y-77018297D01*
X48876900Y-76954147D01*
X48737519Y-76861015D01*
X48618985Y-76742481D01*
X48525853Y-76603100D01*
X48461703Y-76448228D01*
X48429000Y-76283816D01*
X48429000Y-76116184D01*
X48461703Y-75951772D01*
X48525853Y-75796900D01*
X48618985Y-75657519D01*
X48737519Y-75538985D01*
X48876900Y-75445853D01*
X49031772Y-75381703D01*
X49196184Y-75349000D01*
X49363816Y-75349000D01*
X49528228Y-75381703D01*
G37*
G36*
X52068228Y-75381703D02*
G01*
X52223100Y-75445853D01*
X52362481Y-75538985D01*
X52481015Y-75657519D01*
X52574147Y-75796900D01*
X52638297Y-75951772D01*
X52671000Y-76116184D01*
X52671000Y-76283816D01*
X52638297Y-76448228D01*
X52574147Y-76603100D01*
X52481015Y-76742481D01*
X52362481Y-76861015D01*
X52223100Y-76954147D01*
X52068228Y-77018297D01*
X51903816Y-77051000D01*
X51736184Y-77051000D01*
X51571772Y-77018297D01*
X51416900Y-76954147D01*
X51277519Y-76861015D01*
X51158985Y-76742481D01*
X51065853Y-76603100D01*
X51001703Y-76448228D01*
X50969000Y-76283816D01*
X50969000Y-76116184D01*
X51001703Y-75951772D01*
X51065853Y-75796900D01*
X51158985Y-75657519D01*
X51277519Y-75538985D01*
X51416900Y-75445853D01*
X51571772Y-75381703D01*
X51736184Y-75349000D01*
X51903816Y-75349000D01*
X52068228Y-75381703D01*
G37*
G36*
X57148228Y-75381703D02*
G01*
X57303100Y-75445853D01*
X57442481Y-75538985D01*
X57561015Y-75657519D01*
X57654147Y-75796900D01*
X57718297Y-75951772D01*
X57751000Y-76116184D01*
X57751000Y-76283816D01*
X57718297Y-76448228D01*
X57654147Y-76603100D01*
X57561015Y-76742481D01*
X57442481Y-76861015D01*
X57303100Y-76954147D01*
X57148228Y-77018297D01*
X56983816Y-77051000D01*
X56816184Y-77051000D01*
X56651772Y-77018297D01*
X56496900Y-76954147D01*
X56357519Y-76861015D01*
X56238985Y-76742481D01*
X56145853Y-76603100D01*
X56081703Y-76448228D01*
X56049000Y-76283816D01*
X56049000Y-76116184D01*
X56081703Y-75951772D01*
X56145853Y-75796900D01*
X56238985Y-75657519D01*
X56357519Y-75538985D01*
X56496900Y-75445853D01*
X56651772Y-75381703D01*
X56816184Y-75349000D01*
X56983816Y-75349000D01*
X57148228Y-75381703D01*
G37*
G36*
X59688228Y-75381703D02*
G01*
X59843100Y-75445853D01*
X59982481Y-75538985D01*
X60101015Y-75657519D01*
X60194147Y-75796900D01*
X60258297Y-75951772D01*
X60291000Y-76116184D01*
X60291000Y-76283816D01*
X60258297Y-76448228D01*
X60194147Y-76603100D01*
X60101015Y-76742481D01*
X59982481Y-76861015D01*
X59843100Y-76954147D01*
X59688228Y-77018297D01*
X59523816Y-77051000D01*
X59356184Y-77051000D01*
X59191772Y-77018297D01*
X59036900Y-76954147D01*
X58897519Y-76861015D01*
X58778985Y-76742481D01*
X58685853Y-76603100D01*
X58621703Y-76448228D01*
X58589000Y-76283816D01*
X58589000Y-76116184D01*
X58621703Y-75951772D01*
X58685853Y-75796900D01*
X58778985Y-75657519D01*
X58897519Y-75538985D01*
X59036900Y-75445853D01*
X59191772Y-75381703D01*
X59356184Y-75349000D01*
X59523816Y-75349000D01*
X59688228Y-75381703D01*
G37*
G36*
X54608228Y-75381703D02*
G01*
X54763100Y-75445853D01*
X54902481Y-75538985D01*
X55021015Y-75657519D01*
X55114147Y-75796900D01*
X55178297Y-75951772D01*
X55211000Y-76116184D01*
X55211000Y-76283816D01*
X55178297Y-76448228D01*
X55114147Y-76603100D01*
X55021015Y-76742481D01*
X54902481Y-76861015D01*
X54763100Y-76954147D01*
X54608228Y-77018297D01*
X54443816Y-77051000D01*
X54276184Y-77051000D01*
X54111772Y-77018297D01*
X53956900Y-76954147D01*
X53817519Y-76861015D01*
X53698985Y-76742481D01*
X53605853Y-76603100D01*
X53541703Y-76448228D01*
X53509000Y-76283816D01*
X53509000Y-76116184D01*
X53541703Y-75951772D01*
X53605853Y-75796900D01*
X53698985Y-75657519D01*
X53817519Y-75538985D01*
X53956900Y-75445853D01*
X54111772Y-75381703D01*
X54276184Y-75349000D01*
X54443816Y-75349000D01*
X54608228Y-75381703D01*
G37*
G36*
X30818855Y-75647140D02*
G01*
X30882618Y-75653420D01*
X30964847Y-75678364D01*
X31005336Y-75690646D01*
X31118425Y-75751094D01*
X31217554Y-75832446D01*
X31298906Y-75931575D01*
X31359354Y-76044664D01*
X31359355Y-76044668D01*
X31396580Y-76167382D01*
X31409149Y-76295000D01*
X31396580Y-76422618D01*
X31388811Y-76448228D01*
X31359354Y-76545336D01*
X31298906Y-76658425D01*
X31217554Y-76757554D01*
X31118425Y-76838906D01*
X31005336Y-76899354D01*
X30973404Y-76909040D01*
X30882618Y-76936580D01*
X30818855Y-76942860D01*
X30786974Y-76946000D01*
X30173026Y-76946000D01*
X30141145Y-76942860D01*
X30077382Y-76936580D01*
X29986596Y-76909040D01*
X29954664Y-76899354D01*
X29841575Y-76838906D01*
X29742446Y-76757554D01*
X29661094Y-76658425D01*
X29600646Y-76545336D01*
X29571189Y-76448228D01*
X29563420Y-76422618D01*
X29550851Y-76295000D01*
X29563420Y-76167382D01*
X29600645Y-76044668D01*
X29600646Y-76044664D01*
X29661094Y-75931575D01*
X29742446Y-75832446D01*
X29841575Y-75751094D01*
X29954664Y-75690646D01*
X29995153Y-75678364D01*
X30077382Y-75653420D01*
X30141145Y-75647140D01*
X30173026Y-75644000D01*
X30786974Y-75644000D01*
X30818855Y-75647140D01*
G37*
G36*
X94204549Y-74436116D02*
G01*
X94315734Y-74458232D01*
X94525203Y-74544997D01*
X94713720Y-74670960D01*
X94874040Y-74831280D01*
X94950693Y-74946000D01*
X95000004Y-75019799D01*
X95086768Y-75229267D01*
X95129850Y-75445852D01*
X95131000Y-75451636D01*
X95131000Y-75678364D01*
X95086768Y-75900734D01*
X95000003Y-76110203D01*
X94874040Y-76298720D01*
X94713720Y-76459040D01*
X94525203Y-76585003D01*
X94315734Y-76671768D01*
X94204549Y-76693884D01*
X94093365Y-76716000D01*
X93866635Y-76716000D01*
X93755451Y-76693884D01*
X93644266Y-76671768D01*
X93434797Y-76585003D01*
X93246280Y-76459040D01*
X93085960Y-76298720D01*
X92959997Y-76110203D01*
X92873232Y-75900734D01*
X92829000Y-75678364D01*
X92829000Y-75451636D01*
X92830151Y-75445852D01*
X92873232Y-75229267D01*
X92959996Y-75019799D01*
X93009307Y-74946000D01*
X93085960Y-74831280D01*
X93246280Y-74670960D01*
X93434797Y-74544997D01*
X93644266Y-74458232D01*
X93755451Y-74436116D01*
X93866635Y-74414000D01*
X94093365Y-74414000D01*
X94204549Y-74436116D01*
G37*
G36*
X22449549Y-74436116D02*
G01*
X22560734Y-74458232D01*
X22770203Y-74544997D01*
X22958720Y-74670960D01*
X23119040Y-74831280D01*
X23195693Y-74946000D01*
X23245004Y-75019799D01*
X23331768Y-75229267D01*
X23374850Y-75445852D01*
X23376000Y-75451636D01*
X23376000Y-75678364D01*
X23331768Y-75900734D01*
X23245003Y-76110203D01*
X23119040Y-76298720D01*
X22958720Y-76459040D01*
X22770203Y-76585003D01*
X22560734Y-76671768D01*
X22449549Y-76693884D01*
X22338365Y-76716000D01*
X22111635Y-76716000D01*
X22000451Y-76693884D01*
X21889266Y-76671768D01*
X21679797Y-76585003D01*
X21491280Y-76459040D01*
X21330960Y-76298720D01*
X21204997Y-76110203D01*
X21118232Y-75900734D01*
X21074000Y-75678364D01*
X21074000Y-75451636D01*
X21075151Y-75445852D01*
X21118232Y-75229267D01*
X21204996Y-75019799D01*
X21254307Y-74946000D01*
X21330960Y-74831280D01*
X21491280Y-74670960D01*
X21679797Y-74544997D01*
X21889266Y-74458232D01*
X22000451Y-74436116D01*
X22111635Y-74414000D01*
X22338365Y-74414000D01*
X22449549Y-74436116D01*
G37*
G36*
X31246242Y-73648404D02*
G01*
X31283337Y-73659657D01*
X31317515Y-73677925D01*
X31347481Y-73702519D01*
X31372075Y-73732485D01*
X31390343Y-73766663D01*
X31401596Y-73803758D01*
X31406000Y-73848474D01*
X31406000Y-74741526D01*
X31401596Y-74786242D01*
X31390343Y-74823337D01*
X31372075Y-74857515D01*
X31347481Y-74887481D01*
X31317515Y-74912075D01*
X31283337Y-74930343D01*
X31246242Y-74941596D01*
X31201526Y-74946000D01*
X29758474Y-74946000D01*
X29713758Y-74941596D01*
X29676663Y-74930343D01*
X29642485Y-74912075D01*
X29612519Y-74887481D01*
X29587925Y-74857515D01*
X29569657Y-74823337D01*
X29558404Y-74786242D01*
X29554000Y-74741526D01*
X29554000Y-73848474D01*
X29558404Y-73803758D01*
X29569657Y-73766663D01*
X29587925Y-73732485D01*
X29612519Y-73702519D01*
X29642485Y-73677925D01*
X29676663Y-73659657D01*
X29713758Y-73648404D01*
X29758474Y-73644000D01*
X31201526Y-73644000D01*
X31246242Y-73648404D01*
G37*
G36*
X36574591Y-73963085D02*
G01*
X36608569Y-73973393D01*
X36639890Y-73990134D01*
X36667339Y-74012661D01*
X36689866Y-74040110D01*
X36706607Y-74071431D01*
X36716915Y-74105409D01*
X36721000Y-74146890D01*
X36721000Y-74748110D01*
X36716915Y-74789591D01*
X36706607Y-74823569D01*
X36689866Y-74854890D01*
X36667339Y-74882339D01*
X36639890Y-74904866D01*
X36608569Y-74921607D01*
X36574591Y-74931915D01*
X36533110Y-74936000D01*
X35856890Y-74936000D01*
X35815409Y-74931915D01*
X35781431Y-74921607D01*
X35750110Y-74904866D01*
X35722661Y-74882339D01*
X35700134Y-74854890D01*
X35683393Y-74823569D01*
X35673085Y-74789591D01*
X35669000Y-74748110D01*
X35669000Y-74146890D01*
X35673085Y-74105409D01*
X35683393Y-74071431D01*
X35700134Y-74040110D01*
X35722661Y-74012661D01*
X35750110Y-73990134D01*
X35781431Y-73973393D01*
X35815409Y-73963085D01*
X35856890Y-73959000D01*
X36533110Y-73959000D01*
X36574591Y-73963085D01*
G37*
G36*
X81173228Y-72296703D02*
G01*
X81328100Y-72360853D01*
X81467481Y-72453985D01*
X81586015Y-72572519D01*
X81679147Y-72711900D01*
X81743297Y-72866772D01*
X81776000Y-73031184D01*
X81776000Y-73198816D01*
X81743297Y-73363228D01*
X81679147Y-73518100D01*
X81586015Y-73657481D01*
X81467481Y-73776015D01*
X81328100Y-73869147D01*
X81173228Y-73933297D01*
X81008816Y-73966000D01*
X80841184Y-73966000D01*
X80676772Y-73933297D01*
X80521900Y-73869147D01*
X80382519Y-73776015D01*
X80263985Y-73657481D01*
X80170853Y-73518100D01*
X80106703Y-73363228D01*
X80074000Y-73198816D01*
X80074000Y-73031184D01*
X80106703Y-72866772D01*
X80170853Y-72711900D01*
X80263985Y-72572519D01*
X80382519Y-72453985D01*
X80521900Y-72360853D01*
X80676772Y-72296703D01*
X80841184Y-72264000D01*
X81008816Y-72264000D01*
X81173228Y-72296703D01*
G37*
G36*
X85923228Y-72296703D02*
G01*
X86078100Y-72360853D01*
X86217481Y-72453985D01*
X86336015Y-72572519D01*
X86429147Y-72711900D01*
X86493297Y-72866772D01*
X86526000Y-73031184D01*
X86526000Y-73198816D01*
X86493297Y-73363228D01*
X86429147Y-73518100D01*
X86336015Y-73657481D01*
X86217481Y-73776015D01*
X86078100Y-73869147D01*
X85923228Y-73933297D01*
X85758816Y-73966000D01*
X85591184Y-73966000D01*
X85426772Y-73933297D01*
X85271900Y-73869147D01*
X85132519Y-73776015D01*
X85013985Y-73657481D01*
X84920853Y-73518100D01*
X84856703Y-73363228D01*
X84824000Y-73198816D01*
X84824000Y-73031184D01*
X84856703Y-72866772D01*
X84920853Y-72711900D01*
X85013985Y-72572519D01*
X85132519Y-72453985D01*
X85271900Y-72360853D01*
X85426772Y-72296703D01*
X85591184Y-72264000D01*
X85758816Y-72264000D01*
X85923228Y-72296703D01*
G37*
G36*
X76423228Y-72296703D02*
G01*
X76578100Y-72360853D01*
X76717481Y-72453985D01*
X76836015Y-72572519D01*
X76929147Y-72711900D01*
X76993297Y-72866772D01*
X77026000Y-73031184D01*
X77026000Y-73198816D01*
X76993297Y-73363228D01*
X76929147Y-73518100D01*
X76836015Y-73657481D01*
X76717481Y-73776015D01*
X76578100Y-73869147D01*
X76423228Y-73933297D01*
X76258816Y-73966000D01*
X76091184Y-73966000D01*
X75926772Y-73933297D01*
X75771900Y-73869147D01*
X75632519Y-73776015D01*
X75513985Y-73657481D01*
X75420853Y-73518100D01*
X75356703Y-73363228D01*
X75324000Y-73198816D01*
X75324000Y-73031184D01*
X75356703Y-72866772D01*
X75420853Y-72711900D01*
X75513985Y-72572519D01*
X75632519Y-72453985D01*
X75771900Y-72360853D01*
X75926772Y-72296703D01*
X76091184Y-72264000D01*
X76258816Y-72264000D01*
X76423228Y-72296703D01*
G37*
G36*
X36574591Y-72388085D02*
G01*
X36608569Y-72398393D01*
X36639890Y-72415134D01*
X36667339Y-72437661D01*
X36689866Y-72465110D01*
X36706607Y-72496431D01*
X36716915Y-72530409D01*
X36721000Y-72571890D01*
X36721000Y-73173110D01*
X36716915Y-73214591D01*
X36706607Y-73248569D01*
X36689866Y-73279890D01*
X36667339Y-73307339D01*
X36639890Y-73329866D01*
X36608569Y-73346607D01*
X36574591Y-73356915D01*
X36533110Y-73361000D01*
X35856890Y-73361000D01*
X35815409Y-73356915D01*
X35781431Y-73346607D01*
X35750110Y-73329866D01*
X35722661Y-73307339D01*
X35700134Y-73279890D01*
X35683393Y-73248569D01*
X35673085Y-73214591D01*
X35669000Y-73173110D01*
X35669000Y-72571890D01*
X35673085Y-72530409D01*
X35683393Y-72496431D01*
X35700134Y-72465110D01*
X35722661Y-72437661D01*
X35750110Y-72415134D01*
X35781431Y-72398393D01*
X35815409Y-72388085D01*
X35856890Y-72384000D01*
X36533110Y-72384000D01*
X36574591Y-72388085D01*
G37*
G36*
X53719591Y-69365585D02*
G01*
X53753569Y-69375893D01*
X53784890Y-69392634D01*
X53812339Y-69415161D01*
X53834866Y-69442610D01*
X53851607Y-69473931D01*
X53861915Y-69507909D01*
X53866000Y-69549390D01*
X53866000Y-70150610D01*
X53861915Y-70192091D01*
X53851607Y-70226069D01*
X53834866Y-70257390D01*
X53812339Y-70284839D01*
X53784890Y-70307366D01*
X53753569Y-70324107D01*
X53719591Y-70334415D01*
X53678110Y-70338500D01*
X53001890Y-70338500D01*
X52960409Y-70334415D01*
X52926431Y-70324107D01*
X52895110Y-70307366D01*
X52867661Y-70284839D01*
X52845134Y-70257390D01*
X52828393Y-70226069D01*
X52818085Y-70192091D01*
X52814000Y-70150610D01*
X52814000Y-69549390D01*
X52818085Y-69507909D01*
X52828393Y-69473931D01*
X52845134Y-69442610D01*
X52867661Y-69415161D01*
X52895110Y-69392634D01*
X52926431Y-69375893D01*
X52960409Y-69365585D01*
X53001890Y-69361500D01*
X53678110Y-69361500D01*
X53719591Y-69365585D01*
G37*
G36*
X53719591Y-67790585D02*
G01*
X53753569Y-67800893D01*
X53784890Y-67817634D01*
X53812339Y-67840161D01*
X53834866Y-67867610D01*
X53851607Y-67898931D01*
X53861915Y-67932909D01*
X53866000Y-67974390D01*
X53866000Y-68575610D01*
X53861915Y-68617091D01*
X53851607Y-68651069D01*
X53834866Y-68682390D01*
X53812339Y-68709839D01*
X53784890Y-68732366D01*
X53753569Y-68749107D01*
X53719591Y-68759415D01*
X53678110Y-68763500D01*
X53001890Y-68763500D01*
X52960409Y-68759415D01*
X52926431Y-68749107D01*
X52895110Y-68732366D01*
X52867661Y-68709839D01*
X52845134Y-68682390D01*
X52828393Y-68651069D01*
X52818085Y-68617091D01*
X52814000Y-68575610D01*
X52814000Y-67974390D01*
X52818085Y-67932909D01*
X52828393Y-67898931D01*
X52845134Y-67867610D01*
X52867661Y-67840161D01*
X52895110Y-67817634D01*
X52926431Y-67800893D01*
X52960409Y-67790585D01*
X53001890Y-67786500D01*
X53678110Y-67786500D01*
X53719591Y-67790585D01*
G37*
G36*
X61226000Y-68211000D02*
G01*
X59424000Y-68211000D01*
X59424000Y-66409000D01*
X61226000Y-66409000D01*
X61226000Y-68211000D01*
G37*
G36*
X65784591Y-65718085D02*
G01*
X65818569Y-65728393D01*
X65849890Y-65745134D01*
X65877339Y-65767661D01*
X65899866Y-65795110D01*
X65916607Y-65826431D01*
X65926915Y-65860409D01*
X65931000Y-65901890D01*
X65931000Y-66578110D01*
X65926915Y-66619591D01*
X65916607Y-66653569D01*
X65899866Y-66684890D01*
X65877339Y-66712339D01*
X65849890Y-66734866D01*
X65818569Y-66751607D01*
X65784591Y-66761915D01*
X65743110Y-66766000D01*
X65141890Y-66766000D01*
X65100409Y-66761915D01*
X65066431Y-66751607D01*
X65035110Y-66734866D01*
X65007661Y-66712339D01*
X64985134Y-66684890D01*
X64968393Y-66653569D01*
X64958085Y-66619591D01*
X64954000Y-66578110D01*
X64954000Y-65901890D01*
X64958085Y-65860409D01*
X64968393Y-65826431D01*
X64985134Y-65795110D01*
X65007661Y-65767661D01*
X65035110Y-65745134D01*
X65066431Y-65728393D01*
X65100409Y-65718085D01*
X65141890Y-65714000D01*
X65743110Y-65714000D01*
X65784591Y-65718085D01*
G37*
G36*
X64209591Y-65718085D02*
G01*
X64243569Y-65728393D01*
X64274890Y-65745134D01*
X64302339Y-65767661D01*
X64324866Y-65795110D01*
X64341607Y-65826431D01*
X64351915Y-65860409D01*
X64356000Y-65901890D01*
X64356000Y-66578110D01*
X64351915Y-66619591D01*
X64341607Y-66653569D01*
X64324866Y-66684890D01*
X64302339Y-66712339D01*
X64274890Y-66734866D01*
X64243569Y-66751607D01*
X64209591Y-66761915D01*
X64168110Y-66766000D01*
X63566890Y-66766000D01*
X63525409Y-66761915D01*
X63491431Y-66751607D01*
X63460110Y-66734866D01*
X63432661Y-66712339D01*
X63410134Y-66684890D01*
X63393393Y-66653569D01*
X63383085Y-66619591D01*
X63379000Y-66578110D01*
X63379000Y-65901890D01*
X63383085Y-65860409D01*
X63393393Y-65826431D01*
X63410134Y-65795110D01*
X63432661Y-65767661D01*
X63460110Y-65745134D01*
X63491431Y-65728393D01*
X63525409Y-65718085D01*
X63566890Y-65714000D01*
X64168110Y-65714000D01*
X64209591Y-65718085D01*
G37*
G36*
X30859591Y-65708085D02*
G01*
X30893569Y-65718393D01*
X30924890Y-65735134D01*
X30952339Y-65757661D01*
X30974866Y-65785110D01*
X30991607Y-65816431D01*
X31001915Y-65850409D01*
X31006000Y-65891890D01*
X31006000Y-66493110D01*
X31001915Y-66534591D01*
X30991607Y-66568569D01*
X30974866Y-66599890D01*
X30952339Y-66627339D01*
X30924890Y-66649866D01*
X30893569Y-66666607D01*
X30859591Y-66676915D01*
X30818110Y-66681000D01*
X30141890Y-66681000D01*
X30100409Y-66676915D01*
X30066431Y-66666607D01*
X30035110Y-66649866D01*
X30007661Y-66627339D01*
X29985134Y-66599890D01*
X29968393Y-66568569D01*
X29958085Y-66534591D01*
X29954000Y-66493110D01*
X29954000Y-65891890D01*
X29958085Y-65850409D01*
X29968393Y-65816431D01*
X29985134Y-65785110D01*
X30007661Y-65757661D01*
X30035110Y-65735134D01*
X30066431Y-65718393D01*
X30100409Y-65708085D01*
X30141890Y-65704000D01*
X30818110Y-65704000D01*
X30859591Y-65708085D01*
G37*
G36*
X60438512Y-63873927D02*
G01*
X60587812Y-63903624D01*
X60751784Y-63971544D01*
X60899354Y-64070147D01*
X61024853Y-64195646D01*
X61123456Y-64343216D01*
X61191376Y-64507188D01*
X61219782Y-64650000D01*
X61226000Y-64681258D01*
X61226000Y-64858742D01*
X61221073Y-64883512D01*
X61191376Y-65032812D01*
X61123456Y-65196784D01*
X61024853Y-65344354D01*
X60899354Y-65469853D01*
X60751784Y-65568456D01*
X60587812Y-65636376D01*
X60438512Y-65666073D01*
X60413742Y-65671000D01*
X60236258Y-65671000D01*
X60211488Y-65666073D01*
X60062188Y-65636376D01*
X59898216Y-65568456D01*
X59750646Y-65469853D01*
X59625147Y-65344354D01*
X59526544Y-65196784D01*
X59458624Y-65032812D01*
X59428927Y-64883512D01*
X59424000Y-64858742D01*
X59424000Y-64681258D01*
X59430218Y-64650000D01*
X59458624Y-64507188D01*
X59526544Y-64343216D01*
X59625147Y-64195646D01*
X59750646Y-64070147D01*
X59898216Y-63971544D01*
X60062188Y-63903624D01*
X60211488Y-63873927D01*
X60236258Y-63869000D01*
X60413742Y-63869000D01*
X60438512Y-63873927D01*
G37*
G36*
X44871000Y-62349001D02*
G01*
X44873402Y-62373387D01*
X44880515Y-62396836D01*
X44892066Y-62418447D01*
X44907611Y-62437389D01*
X44926553Y-62452934D01*
X44948164Y-62464485D01*
X44971613Y-62471598D01*
X44995999Y-62474000D01*
X46444001Y-62474000D01*
X46468387Y-62471598D01*
X46491836Y-62464485D01*
X46513447Y-62452934D01*
X46532389Y-62437389D01*
X46547934Y-62418447D01*
X46559485Y-62396836D01*
X46566598Y-62373387D01*
X46569000Y-62349001D01*
X46569000Y-61796500D01*
X47071000Y-61796500D01*
X47071000Y-62287049D01*
X47073402Y-62311435D01*
X47080515Y-62334884D01*
X47092066Y-62356495D01*
X47107611Y-62375437D01*
X47126553Y-62390982D01*
X47148164Y-62402533D01*
X47171613Y-62409646D01*
X47195999Y-62412048D01*
X47220385Y-62409646D01*
X47243834Y-62402533D01*
X47275297Y-62383675D01*
X47286259Y-62374679D01*
X47286261Y-62374678D01*
X47286262Y-62374677D01*
X47312320Y-62360748D01*
X47312321Y-62360748D01*
X47312324Y-62360746D01*
X47340593Y-62352171D01*
X47362638Y-62350000D01*
X48170000Y-62350000D01*
X48170000Y-62486497D01*
X48170602Y-62498750D01*
X48170725Y-62500000D01*
X48170602Y-62501250D01*
X48170000Y-62513503D01*
X48170000Y-62886497D01*
X48170602Y-62898750D01*
X48170725Y-62900000D01*
X48170602Y-62901250D01*
X48170000Y-62913503D01*
X48170000Y-63286497D01*
X48170602Y-63298750D01*
X48170725Y-63300000D01*
X48170602Y-63301250D01*
X48170000Y-63313503D01*
X48170000Y-63686497D01*
X48170602Y-63698750D01*
X48170725Y-63700000D01*
X48170602Y-63701250D01*
X48170000Y-63713503D01*
X48170000Y-64086497D01*
X48170602Y-64098750D01*
X48170725Y-64100000D01*
X48170602Y-64101250D01*
X48170000Y-64113503D01*
X48170000Y-64486497D01*
X48170602Y-64498750D01*
X48170725Y-64500000D01*
X48170602Y-64501250D01*
X48170000Y-64513503D01*
X48170000Y-64650000D01*
X47362638Y-64650000D01*
X47340593Y-64647829D01*
X47312324Y-64639254D01*
X47301846Y-64633653D01*
X47286262Y-64625323D01*
X47286261Y-64625322D01*
X47286259Y-64625321D01*
X47275297Y-64616325D01*
X47254922Y-64602711D01*
X47232283Y-64593334D01*
X47208250Y-64588554D01*
X47183746Y-64588554D01*
X47159713Y-64593335D01*
X47137074Y-64602712D01*
X47116700Y-64616326D01*
X47099373Y-64633653D01*
X47085759Y-64654028D01*
X47076382Y-64676667D01*
X47071000Y-64712951D01*
X47071000Y-65203500D01*
X46569000Y-65203500D01*
X46569000Y-64650999D01*
X46566598Y-64626613D01*
X46559485Y-64603164D01*
X46547934Y-64581553D01*
X46532389Y-64562611D01*
X46513447Y-64547066D01*
X46491836Y-64535515D01*
X46468387Y-64528402D01*
X46444001Y-64526000D01*
X44995999Y-64526000D01*
X44971613Y-64528402D01*
X44948164Y-64535515D01*
X44926553Y-64547066D01*
X44907611Y-64562611D01*
X44892066Y-64581553D01*
X44880515Y-64603164D01*
X44873402Y-64626613D01*
X44871000Y-64650999D01*
X44871000Y-65203500D01*
X44369000Y-65203500D01*
X44369000Y-64712951D01*
X44366598Y-64688565D01*
X44359485Y-64665116D01*
X44347934Y-64643505D01*
X44332389Y-64624563D01*
X44313447Y-64609018D01*
X44291836Y-64597467D01*
X44268387Y-64590354D01*
X44244001Y-64587952D01*
X44219615Y-64590354D01*
X44196166Y-64597467D01*
X44164703Y-64616325D01*
X44153741Y-64625321D01*
X44153739Y-64625322D01*
X44153738Y-64625323D01*
X44138154Y-64633653D01*
X44127676Y-64639254D01*
X44099407Y-64647829D01*
X44077362Y-64650000D01*
X43270000Y-64650000D01*
X43270000Y-64513503D01*
X43269398Y-64501250D01*
X43269275Y-64500000D01*
X43269398Y-64498750D01*
X43270000Y-64486497D01*
X43270000Y-64113503D01*
X43269398Y-64101250D01*
X43269275Y-64100000D01*
X43269398Y-64098750D01*
X43270000Y-64086497D01*
X43270000Y-63713503D01*
X43269398Y-63701250D01*
X43269275Y-63700000D01*
X43269398Y-63698750D01*
X43270000Y-63686497D01*
X43270000Y-63313503D01*
X43269398Y-63301250D01*
X43269275Y-63300000D01*
X43269398Y-63298750D01*
X43270000Y-63286497D01*
X43270000Y-62913503D01*
X43269398Y-62901250D01*
X43269275Y-62900000D01*
X43269398Y-62898750D01*
X43270000Y-62886497D01*
X43270000Y-62513503D01*
X43269398Y-62501250D01*
X43269275Y-62500000D01*
X43269398Y-62498750D01*
X43270000Y-62486497D01*
X43270000Y-62350000D01*
X44077362Y-62350000D01*
X44099407Y-62352171D01*
X44127676Y-62360746D01*
X44127679Y-62360748D01*
X44127680Y-62360748D01*
X44153738Y-62374677D01*
X44153739Y-62374678D01*
X44153741Y-62374679D01*
X44164703Y-62383675D01*
X44185078Y-62397289D01*
X44207717Y-62406666D01*
X44231750Y-62411446D01*
X44256254Y-62411446D01*
X44280287Y-62406665D01*
X44302926Y-62397288D01*
X44323300Y-62383674D01*
X44340627Y-62366347D01*
X44354241Y-62345972D01*
X44363618Y-62323333D01*
X44369000Y-62287049D01*
X44369000Y-61796500D01*
X44871000Y-61796500D01*
X44871000Y-62349001D01*
G37*
G36*
X30859591Y-64133085D02*
G01*
X30893569Y-64143393D01*
X30924890Y-64160134D01*
X30952339Y-64182661D01*
X30974866Y-64210110D01*
X30991607Y-64241431D01*
X31001915Y-64275409D01*
X31006000Y-64316890D01*
X31006000Y-64918110D01*
X31001915Y-64959591D01*
X30991607Y-64993569D01*
X30974866Y-65024890D01*
X30952339Y-65052339D01*
X30924890Y-65074866D01*
X30893569Y-65091607D01*
X30859591Y-65101915D01*
X30818110Y-65106000D01*
X30141890Y-65106000D01*
X30100409Y-65101915D01*
X30066431Y-65091607D01*
X30035110Y-65074866D01*
X30007661Y-65052339D01*
X29985134Y-65024890D01*
X29968393Y-64993569D01*
X29958085Y-64959591D01*
X29954000Y-64918110D01*
X29954000Y-64316890D01*
X29958085Y-64275409D01*
X29968393Y-64241431D01*
X29985134Y-64210110D01*
X30007661Y-64182661D01*
X30035110Y-64160134D01*
X30066431Y-64143393D01*
X30100409Y-64133085D01*
X30141890Y-64129000D01*
X30818110Y-64129000D01*
X30859591Y-64133085D01*
G37*
G36*
X85923228Y-59596703D02*
G01*
X86078100Y-59660853D01*
X86217481Y-59753985D01*
X86336015Y-59872519D01*
X86429147Y-60011900D01*
X86493297Y-60166772D01*
X86526000Y-60331184D01*
X86526000Y-60498816D01*
X86493297Y-60663228D01*
X86429147Y-60818100D01*
X86336015Y-60957481D01*
X86217481Y-61076015D01*
X86078100Y-61169147D01*
X85923228Y-61233297D01*
X85758816Y-61266000D01*
X85591184Y-61266000D01*
X85426772Y-61233297D01*
X85271900Y-61169147D01*
X85132519Y-61076015D01*
X85013985Y-60957481D01*
X84920853Y-60818100D01*
X84856703Y-60663228D01*
X84824000Y-60498816D01*
X84824000Y-60331184D01*
X84856703Y-60166772D01*
X84920853Y-60011900D01*
X85013985Y-59872519D01*
X85132519Y-59753985D01*
X85271900Y-59660853D01*
X85426772Y-59596703D01*
X85591184Y-59564000D01*
X85758816Y-59564000D01*
X85923228Y-59596703D01*
G37*
G36*
X76423228Y-59596703D02*
G01*
X76578100Y-59660853D01*
X76717481Y-59753985D01*
X76836015Y-59872519D01*
X76929147Y-60011900D01*
X76993297Y-60166772D01*
X77026000Y-60331184D01*
X77026000Y-60498816D01*
X76993297Y-60663228D01*
X76929147Y-60818100D01*
X76836015Y-60957481D01*
X76717481Y-61076015D01*
X76578100Y-61169147D01*
X76423228Y-61233297D01*
X76258816Y-61266000D01*
X76091184Y-61266000D01*
X75926772Y-61233297D01*
X75771900Y-61169147D01*
X75632519Y-61076015D01*
X75513985Y-60957481D01*
X75420853Y-60818100D01*
X75356703Y-60663228D01*
X75324000Y-60498816D01*
X75324000Y-60331184D01*
X75356703Y-60166772D01*
X75420853Y-60011900D01*
X75513985Y-59872519D01*
X75632519Y-59753985D01*
X75771900Y-59660853D01*
X75926772Y-59596703D01*
X76091184Y-59564000D01*
X76258816Y-59564000D01*
X76423228Y-59596703D01*
G37*
G36*
X81173228Y-59596703D02*
G01*
X81328100Y-59660853D01*
X81467481Y-59753985D01*
X81586015Y-59872519D01*
X81679147Y-60011900D01*
X81743297Y-60166772D01*
X81776000Y-60331184D01*
X81776000Y-60498816D01*
X81743297Y-60663228D01*
X81679147Y-60818100D01*
X81586015Y-60957481D01*
X81467481Y-61076015D01*
X81328100Y-61169147D01*
X81173228Y-61233297D01*
X81008816Y-61266000D01*
X80841184Y-61266000D01*
X80676772Y-61233297D01*
X80521900Y-61169147D01*
X80382519Y-61076015D01*
X80263985Y-60957481D01*
X80170853Y-60818100D01*
X80106703Y-60663228D01*
X80074000Y-60498816D01*
X80074000Y-60331184D01*
X80106703Y-60166772D01*
X80170853Y-60011900D01*
X80263985Y-59872519D01*
X80382519Y-59753985D01*
X80521900Y-59660853D01*
X80676772Y-59596703D01*
X80841184Y-59564000D01*
X81008816Y-59564000D01*
X81173228Y-59596703D01*
G37*
G36*
X58762091Y-58533085D02*
G01*
X58796069Y-58543393D01*
X58827390Y-58560134D01*
X58854839Y-58582661D01*
X58877366Y-58610110D01*
X58894107Y-58641431D01*
X58904415Y-58675409D01*
X58908500Y-58716890D01*
X58908500Y-59393110D01*
X58904415Y-59434591D01*
X58894107Y-59468569D01*
X58877366Y-59499890D01*
X58854839Y-59527339D01*
X58827390Y-59549866D01*
X58796069Y-59566607D01*
X58762091Y-59576915D01*
X58720610Y-59581000D01*
X58119390Y-59581000D01*
X58077909Y-59576915D01*
X58043931Y-59566607D01*
X58012610Y-59549866D01*
X57985161Y-59527339D01*
X57962634Y-59499890D01*
X57945893Y-59468569D01*
X57935585Y-59434591D01*
X57931500Y-59393110D01*
X57931500Y-58716890D01*
X57935585Y-58675409D01*
X57945893Y-58641431D01*
X57962634Y-58610110D01*
X57985161Y-58582661D01*
X58012610Y-58560134D01*
X58043931Y-58543393D01*
X58077909Y-58533085D01*
X58119390Y-58529000D01*
X58720610Y-58529000D01*
X58762091Y-58533085D01*
G37*
G36*
X60337091Y-58533085D02*
G01*
X60371069Y-58543393D01*
X60402390Y-58560134D01*
X60429839Y-58582661D01*
X60452366Y-58610110D01*
X60469107Y-58641431D01*
X60479415Y-58675409D01*
X60483500Y-58716890D01*
X60483500Y-59393110D01*
X60479415Y-59434591D01*
X60469107Y-59468569D01*
X60452366Y-59499890D01*
X60429839Y-59527339D01*
X60402390Y-59549866D01*
X60371069Y-59566607D01*
X60337091Y-59576915D01*
X60295610Y-59581000D01*
X59694390Y-59581000D01*
X59652909Y-59576915D01*
X59618931Y-59566607D01*
X59587610Y-59549866D01*
X59560161Y-59527339D01*
X59537634Y-59499890D01*
X59520893Y-59468569D01*
X59510585Y-59434591D01*
X59506500Y-59393110D01*
X59506500Y-58716890D01*
X59510585Y-58675409D01*
X59520893Y-58641431D01*
X59537634Y-58610110D01*
X59560161Y-58582661D01*
X59587610Y-58560134D01*
X59618931Y-58543393D01*
X59652909Y-58533085D01*
X59694390Y-58529000D01*
X60295610Y-58529000D01*
X60337091Y-58533085D01*
G37*
G36*
X64959591Y-58533085D02*
G01*
X64993569Y-58543393D01*
X65024890Y-58560134D01*
X65052339Y-58582661D01*
X65074866Y-58610110D01*
X65091607Y-58641431D01*
X65101915Y-58675409D01*
X65106000Y-58716890D01*
X65106000Y-59393110D01*
X65101915Y-59434591D01*
X65091607Y-59468569D01*
X65074866Y-59499890D01*
X65052339Y-59527339D01*
X65024890Y-59549866D01*
X64993569Y-59566607D01*
X64959591Y-59576915D01*
X64918110Y-59581000D01*
X64316890Y-59581000D01*
X64275409Y-59576915D01*
X64241431Y-59566607D01*
X64210110Y-59549866D01*
X64182661Y-59527339D01*
X64160134Y-59499890D01*
X64143393Y-59468569D01*
X64133085Y-59434591D01*
X64129000Y-59393110D01*
X64129000Y-58716890D01*
X64133085Y-58675409D01*
X64143393Y-58641431D01*
X64160134Y-58610110D01*
X64182661Y-58582661D01*
X64210110Y-58560134D01*
X64241431Y-58543393D01*
X64275409Y-58533085D01*
X64316890Y-58529000D01*
X64918110Y-58529000D01*
X64959591Y-58533085D01*
G37*
G36*
X66534591Y-58533085D02*
G01*
X66568569Y-58543393D01*
X66599890Y-58560134D01*
X66627339Y-58582661D01*
X66649866Y-58610110D01*
X66666607Y-58641431D01*
X66676915Y-58675409D01*
X66681000Y-58716890D01*
X66681000Y-59393110D01*
X66676915Y-59434591D01*
X66666607Y-59468569D01*
X66649866Y-59499890D01*
X66627339Y-59527339D01*
X66599890Y-59549866D01*
X66568569Y-59566607D01*
X66534591Y-59576915D01*
X66493110Y-59581000D01*
X65891890Y-59581000D01*
X65850409Y-59576915D01*
X65816431Y-59566607D01*
X65785110Y-59549866D01*
X65757661Y-59527339D01*
X65735134Y-59499890D01*
X65718393Y-59468569D01*
X65708085Y-59434591D01*
X65704000Y-59393110D01*
X65704000Y-58716890D01*
X65708085Y-58675409D01*
X65718393Y-58641431D01*
X65735134Y-58610110D01*
X65757661Y-58582661D01*
X65785110Y-58560134D01*
X65816431Y-58543393D01*
X65850409Y-58533085D01*
X65891890Y-58529000D01*
X66493110Y-58529000D01*
X66534591Y-58533085D01*
G37*
G36*
X86626000Y-57416000D02*
G01*
X84824000Y-57416000D01*
X84824000Y-55614000D01*
X86626000Y-55614000D01*
X86626000Y-57416000D01*
G37*
G36*
X83298512Y-55618927D02*
G01*
X83447812Y-55648624D01*
X83611784Y-55716544D01*
X83759354Y-55815147D01*
X83884853Y-55940646D01*
X83983456Y-56088216D01*
X84051376Y-56252188D01*
X84086000Y-56426259D01*
X84086000Y-56603741D01*
X84051376Y-56777812D01*
X83983456Y-56941784D01*
X83884853Y-57089354D01*
X83759354Y-57214853D01*
X83611784Y-57313456D01*
X83447812Y-57381376D01*
X83298512Y-57411073D01*
X83273742Y-57416000D01*
X83096258Y-57416000D01*
X83071488Y-57411073D01*
X82922188Y-57381376D01*
X82758216Y-57313456D01*
X82610646Y-57214853D01*
X82485147Y-57089354D01*
X82386544Y-56941784D01*
X82318624Y-56777812D01*
X82284000Y-56603741D01*
X82284000Y-56426259D01*
X82318624Y-56252188D01*
X82386544Y-56088216D01*
X82485147Y-55940646D01*
X82610646Y-55815147D01*
X82758216Y-55716544D01*
X82922188Y-55648624D01*
X83071488Y-55618927D01*
X83096258Y-55614000D01*
X83273742Y-55614000D01*
X83298512Y-55618927D01*
G37*
G36*
X78218512Y-55618927D02*
G01*
X78367812Y-55648624D01*
X78531784Y-55716544D01*
X78679354Y-55815147D01*
X78804853Y-55940646D01*
X78903456Y-56088216D01*
X78971376Y-56252188D01*
X79006000Y-56426259D01*
X79006000Y-56603741D01*
X78971376Y-56777812D01*
X78903456Y-56941784D01*
X78804853Y-57089354D01*
X78679354Y-57214853D01*
X78531784Y-57313456D01*
X78367812Y-57381376D01*
X78218512Y-57411073D01*
X78193742Y-57416000D01*
X78016258Y-57416000D01*
X77991488Y-57411073D01*
X77842188Y-57381376D01*
X77678216Y-57313456D01*
X77530646Y-57214853D01*
X77405147Y-57089354D01*
X77306544Y-56941784D01*
X77238624Y-56777812D01*
X77204000Y-56603741D01*
X77204000Y-56426259D01*
X77238624Y-56252188D01*
X77306544Y-56088216D01*
X77405147Y-55940646D01*
X77530646Y-55815147D01*
X77678216Y-55716544D01*
X77842188Y-55648624D01*
X77991488Y-55618927D01*
X78016258Y-55614000D01*
X78193742Y-55614000D01*
X78218512Y-55618927D01*
G37*
G36*
X80758512Y-55618927D02*
G01*
X80907812Y-55648624D01*
X81071784Y-55716544D01*
X81219354Y-55815147D01*
X81344853Y-55940646D01*
X81443456Y-56088216D01*
X81511376Y-56252188D01*
X81546000Y-56426259D01*
X81546000Y-56603741D01*
X81511376Y-56777812D01*
X81443456Y-56941784D01*
X81344853Y-57089354D01*
X81219354Y-57214853D01*
X81071784Y-57313456D01*
X80907812Y-57381376D01*
X80758512Y-57411073D01*
X80733742Y-57416000D01*
X80556258Y-57416000D01*
X80531488Y-57411073D01*
X80382188Y-57381376D01*
X80218216Y-57313456D01*
X80070646Y-57214853D01*
X79945147Y-57089354D01*
X79846544Y-56941784D01*
X79778624Y-56777812D01*
X79744000Y-56603741D01*
X79744000Y-56426259D01*
X79778624Y-56252188D01*
X79846544Y-56088216D01*
X79945147Y-55940646D01*
X80070646Y-55815147D01*
X80218216Y-55716544D01*
X80382188Y-55648624D01*
X80531488Y-55618927D01*
X80556258Y-55614000D01*
X80733742Y-55614000D01*
X80758512Y-55618927D01*
G37*
G36*
X93091355Y-53652140D02*
G01*
X93155118Y-53658420D01*
X93245904Y-53685960D01*
X93277836Y-53695646D01*
X93390925Y-53756094D01*
X93490054Y-53837446D01*
X93571406Y-53936575D01*
X93631854Y-54049664D01*
X93631855Y-54049668D01*
X93669080Y-54172382D01*
X93681649Y-54300000D01*
X93669080Y-54427618D01*
X93641540Y-54518404D01*
X93631854Y-54550336D01*
X93571406Y-54663425D01*
X93490054Y-54762554D01*
X93390925Y-54843906D01*
X93277836Y-54904354D01*
X93245904Y-54914040D01*
X93155118Y-54941580D01*
X93091355Y-54947860D01*
X93059474Y-54951000D01*
X92295526Y-54951000D01*
X92263645Y-54947860D01*
X92199882Y-54941580D01*
X92109096Y-54914040D01*
X92077164Y-54904354D01*
X91964075Y-54843906D01*
X91864946Y-54762554D01*
X91783594Y-54663425D01*
X91723146Y-54550336D01*
X91713460Y-54518404D01*
X91685920Y-54427618D01*
X91673351Y-54300000D01*
X91685920Y-54172382D01*
X91723145Y-54049668D01*
X91723146Y-54049664D01*
X91783594Y-53936575D01*
X91864946Y-53837446D01*
X91964075Y-53756094D01*
X92077164Y-53695646D01*
X92109096Y-53685960D01*
X92199882Y-53658420D01*
X92263645Y-53652140D01*
X92295526Y-53649000D01*
X93059474Y-53649000D01*
X93091355Y-53652140D01*
G37*
G36*
X38776000Y-54311000D02*
G01*
X37124000Y-54311000D01*
X37124000Y-52859000D01*
X38776000Y-52859000D01*
X38776000Y-54311000D01*
G37*
G36*
X27266000Y-52984001D02*
G01*
X27268402Y-53008387D01*
X27275515Y-53031836D01*
X27287066Y-53053447D01*
X27302611Y-53072389D01*
X27321553Y-53087934D01*
X27343164Y-53099485D01*
X27366613Y-53106598D01*
X27390999Y-53109000D01*
X35966000Y-53109000D01*
X35966000Y-54311000D01*
X25994000Y-54311000D01*
X25994000Y-52409000D01*
X27266000Y-52409000D01*
X27266000Y-52984001D01*
G37*
G36*
X90203848Y-52553820D02*
G01*
X90203850Y-52553821D01*
X90203851Y-52553821D01*
X90345074Y-52612317D01*
X90345077Y-52612319D01*
X90472169Y-52697239D01*
X90580261Y-52805331D01*
X90616121Y-52859000D01*
X90665183Y-52932426D01*
X90707422Y-53034401D01*
X90723680Y-53073652D01*
X90740748Y-53159461D01*
X90753500Y-53223571D01*
X90753500Y-53376429D01*
X90723679Y-53526351D01*
X90665183Y-53667574D01*
X90665181Y-53667577D01*
X90580261Y-53794669D01*
X90472169Y-53902761D01*
X90345077Y-53987681D01*
X90345074Y-53987683D01*
X90203851Y-54046179D01*
X90203850Y-54046179D01*
X90203848Y-54046180D01*
X90053931Y-54076000D01*
X89901069Y-54076000D01*
X89751152Y-54046180D01*
X89751150Y-54046179D01*
X89751149Y-54046179D01*
X89609926Y-53987683D01*
X89609923Y-53987681D01*
X89482831Y-53902761D01*
X89374739Y-53794669D01*
X89289819Y-53667577D01*
X89289817Y-53667574D01*
X89231321Y-53526351D01*
X89201500Y-53376429D01*
X89201500Y-53223571D01*
X89214252Y-53159461D01*
X89231320Y-53073652D01*
X89247578Y-53034401D01*
X89289817Y-52932426D01*
X89338879Y-52859000D01*
X89374739Y-52805331D01*
X89482831Y-52697239D01*
X89609923Y-52612319D01*
X89609926Y-52612317D01*
X89751149Y-52553821D01*
X89751150Y-52553821D01*
X89751152Y-52553820D01*
X89901069Y-52524000D01*
X90053931Y-52524000D01*
X90203848Y-52553820D01*
G37*
G36*
X48449591Y-52183085D02*
G01*
X48483569Y-52193393D01*
X48514890Y-52210134D01*
X48542339Y-52232661D01*
X48564866Y-52260110D01*
X48581607Y-52291431D01*
X48591915Y-52325409D01*
X48596000Y-52366890D01*
X48596000Y-53043110D01*
X48591915Y-53084591D01*
X48581607Y-53118569D01*
X48564866Y-53149890D01*
X48542339Y-53177339D01*
X48514890Y-53199866D01*
X48483569Y-53216607D01*
X48449591Y-53226915D01*
X48408110Y-53231000D01*
X47806890Y-53231000D01*
X47765409Y-53226915D01*
X47731431Y-53216607D01*
X47700110Y-53199866D01*
X47672661Y-53177339D01*
X47650134Y-53149890D01*
X47633393Y-53118569D01*
X47623085Y-53084591D01*
X47619000Y-53043110D01*
X47619000Y-52366890D01*
X47623085Y-52325409D01*
X47633393Y-52291431D01*
X47650134Y-52260110D01*
X47672661Y-52232661D01*
X47700110Y-52210134D01*
X47731431Y-52193393D01*
X47765409Y-52183085D01*
X47806890Y-52179000D01*
X48408110Y-52179000D01*
X48449591Y-52183085D01*
G37*
G36*
X50024591Y-52183085D02*
G01*
X50058569Y-52193393D01*
X50089890Y-52210134D01*
X50117339Y-52232661D01*
X50139866Y-52260110D01*
X50156607Y-52291431D01*
X50166915Y-52325409D01*
X50171000Y-52366890D01*
X50171000Y-53043110D01*
X50166915Y-53084591D01*
X50156607Y-53118569D01*
X50139866Y-53149890D01*
X50117339Y-53177339D01*
X50089890Y-53199866D01*
X50058569Y-53216607D01*
X50024591Y-53226915D01*
X49983110Y-53231000D01*
X49381890Y-53231000D01*
X49340409Y-53226915D01*
X49306431Y-53216607D01*
X49275110Y-53199866D01*
X49247661Y-53177339D01*
X49225134Y-53149890D01*
X49208393Y-53118569D01*
X49198085Y-53084591D01*
X49194000Y-53043110D01*
X49194000Y-52366890D01*
X49198085Y-52325409D01*
X49208393Y-52291431D01*
X49225134Y-52260110D01*
X49247661Y-52232661D01*
X49275110Y-52210134D01*
X49306431Y-52193393D01*
X49340409Y-52183085D01*
X49381890Y-52179000D01*
X49983110Y-52179000D01*
X50024591Y-52183085D01*
G37*
G36*
X58914591Y-52183085D02*
G01*
X58948569Y-52193393D01*
X58979890Y-52210134D01*
X59007339Y-52232661D01*
X59029866Y-52260110D01*
X59046607Y-52291431D01*
X59056915Y-52325409D01*
X59061000Y-52366890D01*
X59061000Y-53043110D01*
X59056915Y-53084591D01*
X59046607Y-53118569D01*
X59029866Y-53149890D01*
X59007339Y-53177339D01*
X58979890Y-53199866D01*
X58948569Y-53216607D01*
X58914591Y-53226915D01*
X58873110Y-53231000D01*
X58271890Y-53231000D01*
X58230409Y-53226915D01*
X58196431Y-53216607D01*
X58165110Y-53199866D01*
X58137661Y-53177339D01*
X58115134Y-53149890D01*
X58098393Y-53118569D01*
X58088085Y-53084591D01*
X58084000Y-53043110D01*
X58084000Y-52366890D01*
X58088085Y-52325409D01*
X58098393Y-52291431D01*
X58115134Y-52260110D01*
X58137661Y-52232661D01*
X58165110Y-52210134D01*
X58196431Y-52193393D01*
X58230409Y-52183085D01*
X58271890Y-52179000D01*
X58873110Y-52179000D01*
X58914591Y-52183085D01*
G37*
G36*
X57339591Y-52183085D02*
G01*
X57373569Y-52193393D01*
X57404890Y-52210134D01*
X57432339Y-52232661D01*
X57454866Y-52260110D01*
X57471607Y-52291431D01*
X57481915Y-52325409D01*
X57486000Y-52366890D01*
X57486000Y-53043110D01*
X57481915Y-53084591D01*
X57471607Y-53118569D01*
X57454866Y-53149890D01*
X57432339Y-53177339D01*
X57404890Y-53199866D01*
X57373569Y-53216607D01*
X57339591Y-53226915D01*
X57298110Y-53231000D01*
X56696890Y-53231000D01*
X56655409Y-53226915D01*
X56621431Y-53216607D01*
X56590110Y-53199866D01*
X56562661Y-53177339D01*
X56540134Y-53149890D01*
X56523393Y-53118569D01*
X56513085Y-53084591D01*
X56509000Y-53043110D01*
X56509000Y-52366890D01*
X56513085Y-52325409D01*
X56523393Y-52291431D01*
X56540134Y-52260110D01*
X56562661Y-52232661D01*
X56590110Y-52210134D01*
X56621431Y-52193393D01*
X56655409Y-52183085D01*
X56696890Y-52179000D01*
X57298110Y-52179000D01*
X57339591Y-52183085D01*
G37*
G36*
X87374591Y-51103085D02*
G01*
X87408569Y-51113393D01*
X87439890Y-51130134D01*
X87467339Y-51152661D01*
X87489866Y-51180110D01*
X87506607Y-51211431D01*
X87516915Y-51245409D01*
X87521000Y-51286890D01*
X87521000Y-51888110D01*
X87516915Y-51929591D01*
X87506607Y-51963569D01*
X87489866Y-51994890D01*
X87467339Y-52022339D01*
X87439890Y-52044866D01*
X87408569Y-52061607D01*
X87374591Y-52071915D01*
X87333110Y-52076000D01*
X86656890Y-52076000D01*
X86615409Y-52071915D01*
X86581431Y-52061607D01*
X86550110Y-52044866D01*
X86522661Y-52022339D01*
X86500134Y-51994890D01*
X86483393Y-51963569D01*
X86473085Y-51929591D01*
X86469000Y-51888110D01*
X86469000Y-51286890D01*
X86473085Y-51245409D01*
X86483393Y-51211431D01*
X86500134Y-51180110D01*
X86522661Y-51152661D01*
X86550110Y-51130134D01*
X86581431Y-51113393D01*
X86615409Y-51103085D01*
X86656890Y-51099000D01*
X87333110Y-51099000D01*
X87374591Y-51103085D01*
G37*
G36*
X87374591Y-49528085D02*
G01*
X87408569Y-49538393D01*
X87439890Y-49555134D01*
X87467339Y-49577661D01*
X87489866Y-49605110D01*
X87506607Y-49636431D01*
X87516915Y-49670409D01*
X87521000Y-49711890D01*
X87521000Y-50313110D01*
X87516915Y-50354591D01*
X87506607Y-50388569D01*
X87489866Y-50419890D01*
X87467339Y-50447339D01*
X87439890Y-50469866D01*
X87408569Y-50486607D01*
X87374591Y-50496915D01*
X87333110Y-50501000D01*
X86656890Y-50501000D01*
X86615409Y-50496915D01*
X86581431Y-50486607D01*
X86550110Y-50469866D01*
X86522661Y-50447339D01*
X86500134Y-50419890D01*
X86483393Y-50388569D01*
X86473085Y-50354591D01*
X86469000Y-50313110D01*
X86469000Y-49711890D01*
X86473085Y-49670409D01*
X86483393Y-49636431D01*
X86500134Y-49605110D01*
X86522661Y-49577661D01*
X86550110Y-49555134D01*
X86581431Y-49538393D01*
X86615409Y-49528085D01*
X86656890Y-49524000D01*
X87333110Y-49524000D01*
X87374591Y-49528085D01*
G37*
G36*
X68978228Y-48076703D02*
G01*
X69133100Y-48140853D01*
X69272481Y-48233985D01*
X69391015Y-48352519D01*
X69484147Y-48491900D01*
X69548297Y-48646772D01*
X69581000Y-48811184D01*
X69581000Y-48978816D01*
X69548297Y-49143228D01*
X69484147Y-49298100D01*
X69391015Y-49437481D01*
X69272481Y-49556015D01*
X69133100Y-49649147D01*
X68978228Y-49713297D01*
X68813816Y-49746000D01*
X68646184Y-49746000D01*
X68481772Y-49713297D01*
X68326900Y-49649147D01*
X68187519Y-49556015D01*
X68068985Y-49437481D01*
X67975853Y-49298100D01*
X67911703Y-49143228D01*
X67879000Y-48978816D01*
X67879000Y-48811184D01*
X67911703Y-48646772D01*
X67975853Y-48491900D01*
X68068985Y-48352519D01*
X68187519Y-48233985D01*
X68326900Y-48140853D01*
X68481772Y-48076703D01*
X68646184Y-48044000D01*
X68813816Y-48044000D01*
X68978228Y-48076703D01*
G37*
G36*
X63081000Y-49746000D02*
G01*
X61379000Y-49746000D01*
X61379000Y-48044000D01*
X63081000Y-48044000D01*
X63081000Y-49746000D01*
G37*
G36*
X90203848Y-47553820D02*
G01*
X90203850Y-47553821D01*
X90203851Y-47553821D01*
X90345074Y-47612317D01*
X90345077Y-47612319D01*
X90472169Y-47697239D01*
X90580261Y-47805331D01*
X90665181Y-47932423D01*
X90665183Y-47932426D01*
X90711398Y-48044000D01*
X90723680Y-48073652D01*
X90737047Y-48140853D01*
X90753500Y-48223571D01*
X90753500Y-48376429D01*
X90723679Y-48526351D01*
X90665183Y-48667574D01*
X90665181Y-48667577D01*
X90580261Y-48794669D01*
X90472169Y-48902761D01*
X90358346Y-48978815D01*
X90345074Y-48987683D01*
X90203851Y-49046179D01*
X90203850Y-49046179D01*
X90203848Y-49046180D01*
X90053931Y-49076000D01*
X89901069Y-49076000D01*
X89751152Y-49046180D01*
X89751150Y-49046179D01*
X89751149Y-49046179D01*
X89609926Y-48987683D01*
X89596654Y-48978815D01*
X89482831Y-48902761D01*
X89374739Y-48794669D01*
X89289819Y-48667577D01*
X89289817Y-48667574D01*
X89231321Y-48526351D01*
X89201500Y-48376429D01*
X89201500Y-48223571D01*
X89217953Y-48140853D01*
X89231320Y-48073652D01*
X89243602Y-48044000D01*
X89289817Y-47932426D01*
X89289819Y-47932423D01*
X89374739Y-47805331D01*
X89482831Y-47697239D01*
X89609923Y-47612319D01*
X89609926Y-47612317D01*
X89751149Y-47553821D01*
X89751150Y-47553821D01*
X89751152Y-47553820D01*
X89901069Y-47524000D01*
X90053931Y-47524000D01*
X90203848Y-47553820D01*
G37*
G36*
X38776000Y-48111000D02*
G01*
X37474000Y-48111000D01*
X37474000Y-47009000D01*
X38776000Y-47009000D01*
X38776000Y-48111000D01*
G37*
G36*
X93091355Y-46652140D02*
G01*
X93155118Y-46658420D01*
X93245904Y-46685960D01*
X93277836Y-46695646D01*
X93390925Y-46756094D01*
X93490054Y-46837446D01*
X93571406Y-46936575D01*
X93631854Y-47049664D01*
X93631855Y-47049668D01*
X93669080Y-47172382D01*
X93681649Y-47300000D01*
X93669080Y-47427618D01*
X93641540Y-47518404D01*
X93631854Y-47550336D01*
X93571406Y-47663425D01*
X93490054Y-47762554D01*
X93390925Y-47843906D01*
X93277836Y-47904354D01*
X93245904Y-47914040D01*
X93155118Y-47941580D01*
X93091355Y-47947860D01*
X93059474Y-47951000D01*
X92295526Y-47951000D01*
X92263645Y-47947860D01*
X92199882Y-47941580D01*
X92109096Y-47914040D01*
X92077164Y-47904354D01*
X91964075Y-47843906D01*
X91864946Y-47762554D01*
X91783594Y-47663425D01*
X91723146Y-47550336D01*
X91713460Y-47518404D01*
X91685920Y-47427618D01*
X91673351Y-47300000D01*
X91685920Y-47172382D01*
X91723145Y-47049668D01*
X91723146Y-47049664D01*
X91783594Y-46936575D01*
X91864946Y-46837446D01*
X91964075Y-46756094D01*
X92077164Y-46695646D01*
X92109096Y-46685960D01*
X92199882Y-46658420D01*
X92263645Y-46652140D01*
X92295526Y-46649000D01*
X93059474Y-46649000D01*
X93091355Y-46652140D01*
G37*
G36*
X48449591Y-44563085D02*
G01*
X48483569Y-44573393D01*
X48514890Y-44590134D01*
X48542339Y-44612661D01*
X48564866Y-44640110D01*
X48581607Y-44671431D01*
X48591915Y-44705409D01*
X48596000Y-44746890D01*
X48596000Y-45423110D01*
X48591915Y-45464591D01*
X48581607Y-45498569D01*
X48564866Y-45529890D01*
X48542339Y-45557339D01*
X48514890Y-45579866D01*
X48483569Y-45596607D01*
X48449591Y-45606915D01*
X48408110Y-45611000D01*
X47806890Y-45611000D01*
X47765409Y-45606915D01*
X47731431Y-45596607D01*
X47700110Y-45579866D01*
X47672661Y-45557339D01*
X47650134Y-45529890D01*
X47633393Y-45498569D01*
X47623085Y-45464591D01*
X47619000Y-45423110D01*
X47619000Y-44746890D01*
X47623085Y-44705409D01*
X47633393Y-44671431D01*
X47650134Y-44640110D01*
X47672661Y-44612661D01*
X47700110Y-44590134D01*
X47731431Y-44573393D01*
X47765409Y-44563085D01*
X47806890Y-44559000D01*
X48408110Y-44559000D01*
X48449591Y-44563085D01*
G37*
G36*
X50024591Y-44563085D02*
G01*
X50058569Y-44573393D01*
X50089890Y-44590134D01*
X50117339Y-44612661D01*
X50139866Y-44640110D01*
X50156607Y-44671431D01*
X50166915Y-44705409D01*
X50171000Y-44746890D01*
X50171000Y-45423110D01*
X50166915Y-45464591D01*
X50156607Y-45498569D01*
X50139866Y-45529890D01*
X50117339Y-45557339D01*
X50089890Y-45579866D01*
X50058569Y-45596607D01*
X50024591Y-45606915D01*
X49983110Y-45611000D01*
X49381890Y-45611000D01*
X49340409Y-45606915D01*
X49306431Y-45596607D01*
X49275110Y-45579866D01*
X49247661Y-45557339D01*
X49225134Y-45529890D01*
X49208393Y-45498569D01*
X49198085Y-45464591D01*
X49194000Y-45423110D01*
X49194000Y-44746890D01*
X49198085Y-44705409D01*
X49208393Y-44671431D01*
X49225134Y-44640110D01*
X49247661Y-44612661D01*
X49275110Y-44590134D01*
X49306431Y-44573393D01*
X49340409Y-44563085D01*
X49381890Y-44559000D01*
X49983110Y-44559000D01*
X50024591Y-44563085D01*
G37*
G36*
X38776000Y-44411000D02*
G01*
X37474000Y-44411000D01*
X37474000Y-43309000D01*
X38776000Y-43309000D01*
X38776000Y-44411000D01*
G37*
G36*
X29656000Y-43611000D02*
G01*
X27654000Y-43611000D01*
X27654000Y-42159000D01*
X29656000Y-42159000D01*
X29656000Y-43611000D01*
G37*
G36*
X35626000Y-43611000D02*
G01*
X33624000Y-43611000D01*
X33624000Y-42159000D01*
X35626000Y-42159000D01*
X35626000Y-43611000D01*
G37*
G36*
X61761000Y-38041000D02*
G01*
X61596660Y-38041000D01*
X61572274Y-38043402D01*
X61548825Y-38050515D01*
X61527214Y-38062066D01*
X61508272Y-38077611D01*
X61492727Y-38096553D01*
X61481176Y-38118164D01*
X61474063Y-38141613D01*
X61471661Y-38165999D01*
X61474063Y-38190385D01*
X61481176Y-38213834D01*
X61492727Y-38235445D01*
X61508272Y-38254387D01*
X61517345Y-38262609D01*
X61594264Y-38325736D01*
X61666244Y-38413443D01*
X61690060Y-38458000D01*
X61719728Y-38513505D01*
X61719729Y-38513508D01*
X61752666Y-38622084D01*
X61763787Y-38735000D01*
X61752666Y-38847916D01*
X61719729Y-38956492D01*
X61719728Y-38956495D01*
X61700429Y-38992601D01*
X61666244Y-39056557D01*
X61594264Y-39144264D01*
X61506557Y-39216244D01*
X61425141Y-39259761D01*
X61404766Y-39273375D01*
X61387439Y-39290702D01*
X61373826Y-39311076D01*
X61364448Y-39333715D01*
X61359668Y-39357748D01*
X61359668Y-39382252D01*
X61364448Y-39406285D01*
X61373826Y-39428924D01*
X61387440Y-39449299D01*
X61404767Y-39466626D01*
X61425141Y-39480239D01*
X61506557Y-39523756D01*
X61594264Y-39595736D01*
X61666244Y-39683443D01*
X61700429Y-39747399D01*
X61719728Y-39783505D01*
X61719729Y-39783508D01*
X61752666Y-39892084D01*
X61763787Y-40005000D01*
X61752666Y-40117916D01*
X61719729Y-40226492D01*
X61719728Y-40226495D01*
X61700429Y-40262601D01*
X61666244Y-40326557D01*
X61594264Y-40414264D01*
X61506557Y-40486244D01*
X61442601Y-40520429D01*
X61406495Y-40539728D01*
X61406492Y-40539729D01*
X61297916Y-40572666D01*
X61213298Y-40581000D01*
X60706702Y-40581000D01*
X60622084Y-40572666D01*
X60513508Y-40539729D01*
X60513505Y-40539728D01*
X60477399Y-40520429D01*
X60413443Y-40486244D01*
X60325736Y-40414264D01*
X60253756Y-40326557D01*
X60219571Y-40262601D01*
X60200272Y-40226495D01*
X60200271Y-40226492D01*
X60167334Y-40117916D01*
X60156213Y-40005000D01*
X60167334Y-39892084D01*
X60200271Y-39783508D01*
X60200272Y-39783505D01*
X60219571Y-39747399D01*
X60253756Y-39683443D01*
X60325736Y-39595736D01*
X60413443Y-39523756D01*
X60494859Y-39480239D01*
X60515234Y-39466625D01*
X60532561Y-39449298D01*
X60546174Y-39428924D01*
X60555552Y-39406285D01*
X60560332Y-39382252D01*
X60560332Y-39357748D01*
X60555552Y-39333715D01*
X60546174Y-39311076D01*
X60532560Y-39290701D01*
X60515233Y-39273374D01*
X60494859Y-39259761D01*
X60413443Y-39216244D01*
X60325736Y-39144264D01*
X60253756Y-39056557D01*
X60219571Y-38992601D01*
X60200272Y-38956495D01*
X60200271Y-38956492D01*
X60167334Y-38847916D01*
X60156213Y-38735000D01*
X60167334Y-38622084D01*
X60200271Y-38513508D01*
X60200272Y-38513505D01*
X60229940Y-38458000D01*
X60253756Y-38413443D01*
X60325736Y-38325736D01*
X60402646Y-38262617D01*
X60419965Y-38245298D01*
X60433579Y-38224923D01*
X60442957Y-38202284D01*
X60447737Y-38178251D01*
X60447737Y-38153747D01*
X60442957Y-38129714D01*
X60433579Y-38107075D01*
X60419966Y-38086701D01*
X60402639Y-38069374D01*
X60382264Y-38055760D01*
X60359625Y-38046382D01*
X60335592Y-38041602D01*
X60323340Y-38041000D01*
X60159000Y-38041000D01*
X60159000Y-36889000D01*
X61761000Y-36889000D01*
X61761000Y-38041000D01*
G37*
G36*
X90472585Y-36578802D02*
G01*
X90622410Y-36608604D01*
X90904674Y-36725521D01*
X91158705Y-36895259D01*
X91374741Y-37111295D01*
X91544479Y-37365326D01*
X91661396Y-37647590D01*
X91666052Y-37670999D01*
X91721000Y-37947239D01*
X91721000Y-38252761D01*
X91719038Y-38262625D01*
X91661396Y-38552410D01*
X91544479Y-38834674D01*
X91374741Y-39088705D01*
X91158705Y-39304741D01*
X90904674Y-39474479D01*
X90622410Y-39591396D01*
X90472585Y-39621198D01*
X90322761Y-39651000D01*
X90017239Y-39651000D01*
X89867415Y-39621198D01*
X89717590Y-39591396D01*
X89435326Y-39474479D01*
X89181295Y-39304741D01*
X88965259Y-39088705D01*
X88795521Y-38834674D01*
X88678604Y-38552410D01*
X88620962Y-38262625D01*
X88619000Y-38252761D01*
X88619000Y-37947239D01*
X88673948Y-37670999D01*
X88678604Y-37647590D01*
X88795521Y-37365326D01*
X88965259Y-37111295D01*
X89181295Y-36895259D01*
X89435326Y-36725521D01*
X89717590Y-36608604D01*
X89867415Y-36578802D01*
X90017239Y-36549000D01*
X90322761Y-36549000D01*
X90472585Y-36578802D01*
G37*
G36*
X76030355Y-34695083D02*
G01*
X76035029Y-34696501D01*
X76039330Y-34698800D01*
X76045702Y-34704029D01*
X76066076Y-34717643D01*
X76088715Y-34727020D01*
X76112749Y-34731800D01*
X76137253Y-34731800D01*
X76161286Y-34727019D01*
X76183925Y-34717642D01*
X76204298Y-34704029D01*
X76210670Y-34698800D01*
X76214971Y-34696501D01*
X76219645Y-34695083D01*
X76230641Y-34694000D01*
X76519359Y-34694000D01*
X76530355Y-34695083D01*
X76535029Y-34696501D01*
X76539330Y-34698800D01*
X76545702Y-34704029D01*
X76566076Y-34717643D01*
X76588715Y-34727020D01*
X76612749Y-34731800D01*
X76637253Y-34731800D01*
X76661286Y-34727019D01*
X76683925Y-34717642D01*
X76704298Y-34704029D01*
X76710670Y-34698800D01*
X76714971Y-34696501D01*
X76719645Y-34695083D01*
X76730641Y-34694000D01*
X77019359Y-34694000D01*
X77030355Y-34695083D01*
X77035029Y-34696501D01*
X77039330Y-34698800D01*
X77045702Y-34704029D01*
X77066076Y-34717643D01*
X77088715Y-34727020D01*
X77112749Y-34731800D01*
X77137253Y-34731800D01*
X77161286Y-34727019D01*
X77183925Y-34717642D01*
X77204298Y-34704029D01*
X77210670Y-34698800D01*
X77214971Y-34696501D01*
X77219645Y-34695083D01*
X77230641Y-34694000D01*
X77519359Y-34694000D01*
X77530355Y-34695083D01*
X77535029Y-34696501D01*
X77539331Y-34698800D01*
X77543104Y-34701896D01*
X77546200Y-34705669D01*
X77548499Y-34709971D01*
X77549917Y-34714645D01*
X77551000Y-34725641D01*
X77551000Y-35569001D01*
X77553402Y-35593387D01*
X77560515Y-35616836D01*
X77572066Y-35638447D01*
X77587611Y-35657389D01*
X77606553Y-35672934D01*
X77628164Y-35684485D01*
X77651613Y-35691598D01*
X77675999Y-35694000D01*
X78519359Y-35694000D01*
X78530355Y-35695083D01*
X78535029Y-35696501D01*
X78539331Y-35698800D01*
X78543104Y-35701896D01*
X78546200Y-35705669D01*
X78548499Y-35709971D01*
X78549917Y-35714645D01*
X78551000Y-35725641D01*
X78551000Y-36014359D01*
X78549917Y-36025355D01*
X78548499Y-36030029D01*
X78546200Y-36034330D01*
X78540971Y-36040702D01*
X78527357Y-36061076D01*
X78517980Y-36083715D01*
X78513200Y-36107749D01*
X78513200Y-36132253D01*
X78517981Y-36156286D01*
X78527358Y-36178925D01*
X78540971Y-36199298D01*
X78546200Y-36205670D01*
X78548499Y-36209971D01*
X78549917Y-36214645D01*
X78551000Y-36225641D01*
X78551000Y-36514359D01*
X78549917Y-36525355D01*
X78548499Y-36530029D01*
X78546200Y-36534330D01*
X78540971Y-36540702D01*
X78527357Y-36561076D01*
X78517980Y-36583715D01*
X78513200Y-36607749D01*
X78513200Y-36632253D01*
X78517981Y-36656286D01*
X78527358Y-36678925D01*
X78540971Y-36699298D01*
X78546200Y-36705670D01*
X78548499Y-36709971D01*
X78549917Y-36714645D01*
X78551000Y-36725641D01*
X78551000Y-37014359D01*
X78549917Y-37025355D01*
X78548499Y-37030029D01*
X78546200Y-37034330D01*
X78540971Y-37040702D01*
X78527357Y-37061076D01*
X78517980Y-37083715D01*
X78513200Y-37107749D01*
X78513200Y-37132253D01*
X78517981Y-37156286D01*
X78527358Y-37178925D01*
X78540971Y-37199298D01*
X78546200Y-37205670D01*
X78548499Y-37209971D01*
X78549917Y-37214645D01*
X78551000Y-37225641D01*
X78551000Y-37514359D01*
X78549917Y-37525355D01*
X78548499Y-37530029D01*
X78546200Y-37534331D01*
X78543104Y-37538104D01*
X78539331Y-37541200D01*
X78535029Y-37543499D01*
X78530355Y-37544917D01*
X78519359Y-37546000D01*
X77675999Y-37546000D01*
X77651613Y-37548402D01*
X77628164Y-37555515D01*
X77606553Y-37567066D01*
X77587611Y-37582611D01*
X77572066Y-37601553D01*
X77560515Y-37623164D01*
X77553402Y-37646613D01*
X77551000Y-37670999D01*
X77551000Y-38514359D01*
X77549917Y-38525355D01*
X77548499Y-38530029D01*
X77546200Y-38534331D01*
X77543104Y-38538104D01*
X77539331Y-38541200D01*
X77535029Y-38543499D01*
X77530355Y-38544917D01*
X77519359Y-38546000D01*
X77230641Y-38546000D01*
X77219645Y-38544917D01*
X77214971Y-38543499D01*
X77210670Y-38541200D01*
X77204298Y-38535971D01*
X77183924Y-38522357D01*
X77161285Y-38512980D01*
X77137251Y-38508200D01*
X77112747Y-38508200D01*
X77088714Y-38512981D01*
X77066075Y-38522358D01*
X77045702Y-38535971D01*
X77039330Y-38541200D01*
X77035029Y-38543499D01*
X77030355Y-38544917D01*
X77019359Y-38546000D01*
X76730641Y-38546000D01*
X76719645Y-38544917D01*
X76714971Y-38543499D01*
X76710670Y-38541200D01*
X76704298Y-38535971D01*
X76683924Y-38522357D01*
X76661285Y-38512980D01*
X76637251Y-38508200D01*
X76612747Y-38508200D01*
X76588714Y-38512981D01*
X76566075Y-38522358D01*
X76545702Y-38535971D01*
X76539330Y-38541200D01*
X76535029Y-38543499D01*
X76530355Y-38544917D01*
X76519359Y-38546000D01*
X76230641Y-38546000D01*
X76219645Y-38544917D01*
X76214971Y-38543499D01*
X76210670Y-38541200D01*
X76204298Y-38535971D01*
X76183924Y-38522357D01*
X76161285Y-38512980D01*
X76137251Y-38508200D01*
X76112747Y-38508200D01*
X76088714Y-38512981D01*
X76066075Y-38522358D01*
X76045702Y-38535971D01*
X76039330Y-38541200D01*
X76035029Y-38543499D01*
X76030355Y-38544917D01*
X76019359Y-38546000D01*
X75730641Y-38546000D01*
X75719645Y-38544917D01*
X75714971Y-38543499D01*
X75710669Y-38541200D01*
X75706896Y-38538104D01*
X75703800Y-38534331D01*
X75701501Y-38530029D01*
X75700083Y-38525355D01*
X75699000Y-38514359D01*
X75699000Y-37670999D01*
X75696598Y-37646613D01*
X75689485Y-37623164D01*
X75677934Y-37601553D01*
X75662389Y-37582611D01*
X75643447Y-37567066D01*
X75621836Y-37555515D01*
X75598387Y-37548402D01*
X75574001Y-37546000D01*
X74730641Y-37546000D01*
X74719645Y-37544917D01*
X74714971Y-37543499D01*
X74710669Y-37541200D01*
X74706896Y-37538104D01*
X74703800Y-37534331D01*
X74701501Y-37530029D01*
X74700083Y-37525355D01*
X74699000Y-37514359D01*
X74699000Y-37225641D01*
X74700083Y-37214645D01*
X74701501Y-37209971D01*
X74703800Y-37205670D01*
X74709029Y-37199298D01*
X74722643Y-37178924D01*
X74732020Y-37156285D01*
X74736800Y-37132251D01*
X74736800Y-37107747D01*
X74732019Y-37083714D01*
X74722642Y-37061075D01*
X74709029Y-37040702D01*
X74703800Y-37034330D01*
X74701501Y-37030029D01*
X74700083Y-37025355D01*
X74699000Y-37014359D01*
X74699000Y-36725641D01*
X74700083Y-36714645D01*
X74701501Y-36709971D01*
X74703800Y-36705670D01*
X74709029Y-36699298D01*
X74722643Y-36678924D01*
X74732020Y-36656285D01*
X74736800Y-36632251D01*
X74736800Y-36607747D01*
X74732019Y-36583714D01*
X74722642Y-36561075D01*
X74709029Y-36540702D01*
X74703800Y-36534330D01*
X74701501Y-36530029D01*
X74700083Y-36525355D01*
X74699000Y-36514359D01*
X74699000Y-36225641D01*
X74700083Y-36214645D01*
X74701501Y-36209971D01*
X74703800Y-36205670D01*
X74709029Y-36199298D01*
X74722643Y-36178924D01*
X74732020Y-36156285D01*
X74736800Y-36132251D01*
X74736800Y-36107747D01*
X74732019Y-36083714D01*
X74722642Y-36061075D01*
X74709029Y-36040702D01*
X74703800Y-36034330D01*
X74701501Y-36030029D01*
X74700083Y-36025355D01*
X74699000Y-36014359D01*
X74699000Y-35725641D01*
X74700083Y-35714645D01*
X74701501Y-35709971D01*
X74703800Y-35705669D01*
X74706896Y-35701896D01*
X74710669Y-35698800D01*
X74714971Y-35696501D01*
X74719645Y-35695083D01*
X74730641Y-35694000D01*
X75574001Y-35694000D01*
X75598387Y-35691598D01*
X75621836Y-35684485D01*
X75643447Y-35672934D01*
X75662389Y-35657389D01*
X75677934Y-35638447D01*
X75689485Y-35616836D01*
X75696598Y-35593387D01*
X75699000Y-35569001D01*
X75699000Y-34725641D01*
X75700083Y-34714645D01*
X75701501Y-34709971D01*
X75703800Y-34705669D01*
X75706896Y-34701896D01*
X75710669Y-34698800D01*
X75714971Y-34696501D01*
X75719645Y-34695083D01*
X75730641Y-34694000D01*
X76019359Y-34694000D01*
X76030355Y-34695083D01*
G37*
G36*
X39864591Y-36308085D02*
G01*
X39898569Y-36318393D01*
X39929890Y-36335134D01*
X39957339Y-36357661D01*
X39979866Y-36385110D01*
X39996607Y-36416431D01*
X40006915Y-36450409D01*
X40011000Y-36491890D01*
X40011000Y-37168110D01*
X40006915Y-37209591D01*
X39996607Y-37243569D01*
X39979866Y-37274890D01*
X39957339Y-37302339D01*
X39929890Y-37324866D01*
X39898569Y-37341607D01*
X39864591Y-37351915D01*
X39823110Y-37356000D01*
X39221890Y-37356000D01*
X39180409Y-37351915D01*
X39146431Y-37341607D01*
X39115110Y-37324866D01*
X39087661Y-37302339D01*
X39065134Y-37274890D01*
X39048393Y-37243569D01*
X39038085Y-37209591D01*
X39034000Y-37168110D01*
X39034000Y-36491890D01*
X39038085Y-36450409D01*
X39048393Y-36416431D01*
X39065134Y-36385110D01*
X39087661Y-36357661D01*
X39115110Y-36335134D01*
X39146431Y-36318393D01*
X39180409Y-36308085D01*
X39221890Y-36304000D01*
X39823110Y-36304000D01*
X39864591Y-36308085D01*
G37*
G36*
X38289591Y-36308085D02*
G01*
X38323569Y-36318393D01*
X38354890Y-36335134D01*
X38382339Y-36357661D01*
X38404866Y-36385110D01*
X38421607Y-36416431D01*
X38431915Y-36450409D01*
X38436000Y-36491890D01*
X38436000Y-37168110D01*
X38431915Y-37209591D01*
X38421607Y-37243569D01*
X38404866Y-37274890D01*
X38382339Y-37302339D01*
X38354890Y-37324866D01*
X38323569Y-37341607D01*
X38289591Y-37351915D01*
X38248110Y-37356000D01*
X37646890Y-37356000D01*
X37605409Y-37351915D01*
X37571431Y-37341607D01*
X37540110Y-37324866D01*
X37512661Y-37302339D01*
X37490134Y-37274890D01*
X37473393Y-37243569D01*
X37463085Y-37209591D01*
X37459000Y-37168110D01*
X37459000Y-36491890D01*
X37463085Y-36450409D01*
X37473393Y-36416431D01*
X37490134Y-36385110D01*
X37512661Y-36357661D01*
X37540110Y-36335134D01*
X37571431Y-36318393D01*
X37605409Y-36308085D01*
X37646890Y-36304000D01*
X38248110Y-36304000D01*
X38289591Y-36308085D01*
G37*
G36*
X30187091Y-36308085D02*
G01*
X30221069Y-36318393D01*
X30252390Y-36335134D01*
X30279839Y-36357661D01*
X30302366Y-36385110D01*
X30319107Y-36416431D01*
X30329415Y-36450409D01*
X30333500Y-36491890D01*
X30333500Y-37168110D01*
X30329415Y-37209591D01*
X30319107Y-37243569D01*
X30302366Y-37274890D01*
X30279839Y-37302339D01*
X30252390Y-37324866D01*
X30221069Y-37341607D01*
X30187091Y-37351915D01*
X30145610Y-37356000D01*
X29544390Y-37356000D01*
X29502909Y-37351915D01*
X29468931Y-37341607D01*
X29437610Y-37324866D01*
X29410161Y-37302339D01*
X29387634Y-37274890D01*
X29370893Y-37243569D01*
X29360585Y-37209591D01*
X29356500Y-37168110D01*
X29356500Y-36491890D01*
X29360585Y-36450409D01*
X29370893Y-36416431D01*
X29387634Y-36385110D01*
X29410161Y-36357661D01*
X29437610Y-36335134D01*
X29468931Y-36318393D01*
X29502909Y-36308085D01*
X29544390Y-36304000D01*
X30145610Y-36304000D01*
X30187091Y-36308085D01*
G37*
G36*
X31762091Y-36308085D02*
G01*
X31796069Y-36318393D01*
X31827390Y-36335134D01*
X31854839Y-36357661D01*
X31877366Y-36385110D01*
X31894107Y-36416431D01*
X31904415Y-36450409D01*
X31908500Y-36491890D01*
X31908500Y-37168110D01*
X31904415Y-37209591D01*
X31894107Y-37243569D01*
X31877366Y-37274890D01*
X31854839Y-37302339D01*
X31827390Y-37324866D01*
X31796069Y-37341607D01*
X31762091Y-37351915D01*
X31720610Y-37356000D01*
X31119390Y-37356000D01*
X31077909Y-37351915D01*
X31043931Y-37341607D01*
X31012610Y-37324866D01*
X30985161Y-37302339D01*
X30962634Y-37274890D01*
X30945893Y-37243569D01*
X30935585Y-37209591D01*
X30931500Y-37168110D01*
X30931500Y-36491890D01*
X30935585Y-36450409D01*
X30945893Y-36416431D01*
X30962634Y-36385110D01*
X30985161Y-36357661D01*
X31012610Y-36335134D01*
X31043931Y-36318393D01*
X31077909Y-36308085D01*
X31119390Y-36304000D01*
X31720610Y-36304000D01*
X31762091Y-36308085D01*
G37*
G36*
X91721000Y-34571000D02*
G01*
X88619000Y-34571000D01*
X88619000Y-31469000D01*
X91721000Y-31469000D01*
X91721000Y-34571000D01*
G37*
G36*
X31609591Y-29323085D02*
G01*
X31643569Y-29333393D01*
X31674890Y-29350134D01*
X31702339Y-29372661D01*
X31724866Y-29400110D01*
X31741607Y-29431431D01*
X31751915Y-29465409D01*
X31756000Y-29506890D01*
X31756000Y-30183110D01*
X31751915Y-30224591D01*
X31741607Y-30258569D01*
X31724866Y-30289890D01*
X31702339Y-30317339D01*
X31674890Y-30339866D01*
X31643569Y-30356607D01*
X31609591Y-30366915D01*
X31568110Y-30371000D01*
X30966890Y-30371000D01*
X30925409Y-30366915D01*
X30891431Y-30356607D01*
X30860110Y-30339866D01*
X30832661Y-30317339D01*
X30810134Y-30289890D01*
X30793393Y-30258569D01*
X30783085Y-30224591D01*
X30779000Y-30183110D01*
X30779000Y-29506890D01*
X30783085Y-29465409D01*
X30793393Y-29431431D01*
X30810134Y-29400110D01*
X30832661Y-29372661D01*
X30860110Y-29350134D01*
X30891431Y-29333393D01*
X30925409Y-29323085D01*
X30966890Y-29319000D01*
X31568110Y-29319000D01*
X31609591Y-29323085D01*
G37*
G36*
X30034591Y-29323085D02*
G01*
X30068569Y-29333393D01*
X30099890Y-29350134D01*
X30127339Y-29372661D01*
X30149866Y-29400110D01*
X30166607Y-29431431D01*
X30176915Y-29465409D01*
X30181000Y-29506890D01*
X30181000Y-30183110D01*
X30176915Y-30224591D01*
X30166607Y-30258569D01*
X30149866Y-30289890D01*
X30127339Y-30317339D01*
X30099890Y-30339866D01*
X30068569Y-30356607D01*
X30034591Y-30366915D01*
X29993110Y-30371000D01*
X29391890Y-30371000D01*
X29350409Y-30366915D01*
X29316431Y-30356607D01*
X29285110Y-30339866D01*
X29257661Y-30317339D01*
X29235134Y-30289890D01*
X29218393Y-30258569D01*
X29208085Y-30224591D01*
X29204000Y-30183110D01*
X29204000Y-29506890D01*
X29208085Y-29465409D01*
X29218393Y-29431431D01*
X29235134Y-29400110D01*
X29257661Y-29372661D01*
X29285110Y-29350134D01*
X29316431Y-29333393D01*
X29350409Y-29323085D01*
X29391890Y-29319000D01*
X29993110Y-29319000D01*
X30034591Y-29323085D01*
G37*
G36*
X39229591Y-28688085D02*
G01*
X39263569Y-28698393D01*
X39294890Y-28715134D01*
X39322339Y-28737661D01*
X39344866Y-28765110D01*
X39361607Y-28796431D01*
X39371915Y-28830409D01*
X39376000Y-28871890D01*
X39376000Y-29548110D01*
X39371915Y-29589591D01*
X39361607Y-29623569D01*
X39344866Y-29654890D01*
X39322339Y-29682339D01*
X39294890Y-29704866D01*
X39263569Y-29721607D01*
X39229591Y-29731915D01*
X39188110Y-29736000D01*
X38586890Y-29736000D01*
X38545409Y-29731915D01*
X38511431Y-29721607D01*
X38480110Y-29704866D01*
X38452661Y-29682339D01*
X38430134Y-29654890D01*
X38413393Y-29623569D01*
X38403085Y-29589591D01*
X38399000Y-29548110D01*
X38399000Y-28871890D01*
X38403085Y-28830409D01*
X38413393Y-28796431D01*
X38430134Y-28765110D01*
X38452661Y-28737661D01*
X38480110Y-28715134D01*
X38511431Y-28698393D01*
X38545409Y-28688085D01*
X38586890Y-28684000D01*
X39188110Y-28684000D01*
X39229591Y-28688085D01*
G37*
G36*
X37654591Y-28688085D02*
G01*
X37688569Y-28698393D01*
X37719890Y-28715134D01*
X37747339Y-28737661D01*
X37769866Y-28765110D01*
X37786607Y-28796431D01*
X37796915Y-28830409D01*
X37801000Y-28871890D01*
X37801000Y-29548110D01*
X37796915Y-29589591D01*
X37786607Y-29623569D01*
X37769866Y-29654890D01*
X37747339Y-29682339D01*
X37719890Y-29704866D01*
X37688569Y-29721607D01*
X37654591Y-29731915D01*
X37613110Y-29736000D01*
X37011890Y-29736000D01*
X36970409Y-29731915D01*
X36936431Y-29721607D01*
X36905110Y-29704866D01*
X36877661Y-29682339D01*
X36855134Y-29654890D01*
X36838393Y-29623569D01*
X36828085Y-29589591D01*
X36824000Y-29548110D01*
X36824000Y-28871890D01*
X36828085Y-28830409D01*
X36838393Y-28796431D01*
X36855134Y-28765110D01*
X36877661Y-28737661D01*
X36905110Y-28715134D01*
X36936431Y-28698393D01*
X36970409Y-28688085D01*
X37011890Y-28684000D01*
X37613110Y-28684000D01*
X37654591Y-28688085D01*
G37*
G36*
X81528228Y-27121703D02*
G01*
X81683100Y-27185853D01*
X81822481Y-27278985D01*
X81941015Y-27397519D01*
X82034147Y-27536900D01*
X82098297Y-27691772D01*
X82131000Y-27856184D01*
X82131000Y-28023816D01*
X82098297Y-28188228D01*
X82034147Y-28343100D01*
X81941015Y-28482481D01*
X81822481Y-28601015D01*
X81683100Y-28694147D01*
X81528228Y-28758297D01*
X81363816Y-28791000D01*
X81196184Y-28791000D01*
X81031772Y-28758297D01*
X80876900Y-28694147D01*
X80737519Y-28601015D01*
X80618985Y-28482481D01*
X80525853Y-28343100D01*
X80461703Y-28188228D01*
X80429000Y-28023816D01*
X80429000Y-27856184D01*
X80461703Y-27691772D01*
X80525853Y-27536900D01*
X80618985Y-27397519D01*
X80737519Y-27278985D01*
X80876900Y-27185853D01*
X81031772Y-27121703D01*
X81196184Y-27089000D01*
X81363816Y-27089000D01*
X81528228Y-27121703D01*
G37*
G36*
X54191000Y-28791000D02*
G01*
X52489000Y-28791000D01*
X52489000Y-27089000D01*
X54191000Y-27089000D01*
X54191000Y-28791000D01*
G37*
G36*
X56128228Y-27121703D02*
G01*
X56283100Y-27185853D01*
X56422481Y-27278985D01*
X56541015Y-27397519D01*
X56634147Y-27536900D01*
X56698297Y-27691772D01*
X56731000Y-27856184D01*
X56731000Y-28023816D01*
X56698297Y-28188228D01*
X56634147Y-28343100D01*
X56541015Y-28482481D01*
X56422481Y-28601015D01*
X56283100Y-28694147D01*
X56128228Y-28758297D01*
X55963816Y-28791000D01*
X55796184Y-28791000D01*
X55631772Y-28758297D01*
X55476900Y-28694147D01*
X55337519Y-28601015D01*
X55218985Y-28482481D01*
X55125853Y-28343100D01*
X55061703Y-28188228D01*
X55029000Y-28023816D01*
X55029000Y-27856184D01*
X55061703Y-27691772D01*
X55125853Y-27536900D01*
X55218985Y-27397519D01*
X55337519Y-27278985D01*
X55476900Y-27185853D01*
X55631772Y-27121703D01*
X55796184Y-27089000D01*
X55963816Y-27089000D01*
X56128228Y-27121703D01*
G37*
G36*
X58668228Y-27121703D02*
G01*
X58823100Y-27185853D01*
X58962481Y-27278985D01*
X59081015Y-27397519D01*
X59174147Y-27536900D01*
X59238297Y-27691772D01*
X59271000Y-27856184D01*
X59271000Y-28023816D01*
X59238297Y-28188228D01*
X59174147Y-28343100D01*
X59081015Y-28482481D01*
X58962481Y-28601015D01*
X58823100Y-28694147D01*
X58668228Y-28758297D01*
X58503816Y-28791000D01*
X58336184Y-28791000D01*
X58171772Y-28758297D01*
X58016900Y-28694147D01*
X57877519Y-28601015D01*
X57758985Y-28482481D01*
X57665853Y-28343100D01*
X57601703Y-28188228D01*
X57569000Y-28023816D01*
X57569000Y-27856184D01*
X57601703Y-27691772D01*
X57665853Y-27536900D01*
X57758985Y-27397519D01*
X57877519Y-27278985D01*
X58016900Y-27185853D01*
X58171772Y-27121703D01*
X58336184Y-27089000D01*
X58503816Y-27089000D01*
X58668228Y-27121703D01*
G37*
G36*
X61208228Y-27121703D02*
G01*
X61363100Y-27185853D01*
X61502481Y-27278985D01*
X61621015Y-27397519D01*
X61714147Y-27536900D01*
X61778297Y-27691772D01*
X61811000Y-27856184D01*
X61811000Y-28023816D01*
X61778297Y-28188228D01*
X61714147Y-28343100D01*
X61621015Y-28482481D01*
X61502481Y-28601015D01*
X61363100Y-28694147D01*
X61208228Y-28758297D01*
X61043816Y-28791000D01*
X60876184Y-28791000D01*
X60711772Y-28758297D01*
X60556900Y-28694147D01*
X60417519Y-28601015D01*
X60298985Y-28482481D01*
X60205853Y-28343100D01*
X60141703Y-28188228D01*
X60109000Y-28023816D01*
X60109000Y-27856184D01*
X60141703Y-27691772D01*
X60205853Y-27536900D01*
X60298985Y-27397519D01*
X60417519Y-27278985D01*
X60556900Y-27185853D01*
X60711772Y-27121703D01*
X60876184Y-27089000D01*
X61043816Y-27089000D01*
X61208228Y-27121703D01*
G37*
G36*
X63748228Y-27121703D02*
G01*
X63903100Y-27185853D01*
X64042481Y-27278985D01*
X64161015Y-27397519D01*
X64254147Y-27536900D01*
X64318297Y-27691772D01*
X64351000Y-27856184D01*
X64351000Y-28023816D01*
X64318297Y-28188228D01*
X64254147Y-28343100D01*
X64161015Y-28482481D01*
X64042481Y-28601015D01*
X63903100Y-28694147D01*
X63748228Y-28758297D01*
X63583816Y-28791000D01*
X63416184Y-28791000D01*
X63251772Y-28758297D01*
X63096900Y-28694147D01*
X62957519Y-28601015D01*
X62838985Y-28482481D01*
X62745853Y-28343100D01*
X62681703Y-28188228D01*
X62649000Y-28023816D01*
X62649000Y-27856184D01*
X62681703Y-27691772D01*
X62745853Y-27536900D01*
X62838985Y-27397519D01*
X62957519Y-27278985D01*
X63096900Y-27185853D01*
X63251772Y-27121703D01*
X63416184Y-27089000D01*
X63583816Y-27089000D01*
X63748228Y-27121703D01*
G37*
G36*
X66288228Y-27121703D02*
G01*
X66443100Y-27185853D01*
X66582481Y-27278985D01*
X66701015Y-27397519D01*
X66794147Y-27536900D01*
X66858297Y-27691772D01*
X66891000Y-27856184D01*
X66891000Y-28023816D01*
X66858297Y-28188228D01*
X66794147Y-28343100D01*
X66701015Y-28482481D01*
X66582481Y-28601015D01*
X66443100Y-28694147D01*
X66288228Y-28758297D01*
X66123816Y-28791000D01*
X65956184Y-28791000D01*
X65791772Y-28758297D01*
X65636900Y-28694147D01*
X65497519Y-28601015D01*
X65378985Y-28482481D01*
X65285853Y-28343100D01*
X65221703Y-28188228D01*
X65189000Y-28023816D01*
X65189000Y-27856184D01*
X65221703Y-27691772D01*
X65285853Y-27536900D01*
X65378985Y-27397519D01*
X65497519Y-27278985D01*
X65636900Y-27185853D01*
X65791772Y-27121703D01*
X65956184Y-27089000D01*
X66123816Y-27089000D01*
X66288228Y-27121703D01*
G37*
G36*
X68828228Y-27121703D02*
G01*
X68983100Y-27185853D01*
X69122481Y-27278985D01*
X69241015Y-27397519D01*
X69334147Y-27536900D01*
X69398297Y-27691772D01*
X69431000Y-27856184D01*
X69431000Y-28023816D01*
X69398297Y-28188228D01*
X69334147Y-28343100D01*
X69241015Y-28482481D01*
X69122481Y-28601015D01*
X68983100Y-28694147D01*
X68828228Y-28758297D01*
X68663816Y-28791000D01*
X68496184Y-28791000D01*
X68331772Y-28758297D01*
X68176900Y-28694147D01*
X68037519Y-28601015D01*
X67918985Y-28482481D01*
X67825853Y-28343100D01*
X67761703Y-28188228D01*
X67729000Y-28023816D01*
X67729000Y-27856184D01*
X67761703Y-27691772D01*
X67825853Y-27536900D01*
X67918985Y-27397519D01*
X68037519Y-27278985D01*
X68176900Y-27185853D01*
X68331772Y-27121703D01*
X68496184Y-27089000D01*
X68663816Y-27089000D01*
X68828228Y-27121703D01*
G37*
G36*
X76448228Y-27121703D02*
G01*
X76603100Y-27185853D01*
X76742481Y-27278985D01*
X76861015Y-27397519D01*
X76954147Y-27536900D01*
X77018297Y-27691772D01*
X77051000Y-27856184D01*
X77051000Y-28023816D01*
X77018297Y-28188228D01*
X76954147Y-28343100D01*
X76861015Y-28482481D01*
X76742481Y-28601015D01*
X76603100Y-28694147D01*
X76448228Y-28758297D01*
X76283816Y-28791000D01*
X76116184Y-28791000D01*
X75951772Y-28758297D01*
X75796900Y-28694147D01*
X75657519Y-28601015D01*
X75538985Y-28482481D01*
X75445853Y-28343100D01*
X75381703Y-28188228D01*
X75349000Y-28023816D01*
X75349000Y-27856184D01*
X75381703Y-27691772D01*
X75445853Y-27536900D01*
X75538985Y-27397519D01*
X75657519Y-27278985D01*
X75796900Y-27185853D01*
X75951772Y-27121703D01*
X76116184Y-27089000D01*
X76283816Y-27089000D01*
X76448228Y-27121703D01*
G37*
G36*
X78988228Y-27121703D02*
G01*
X79143100Y-27185853D01*
X79282481Y-27278985D01*
X79401015Y-27397519D01*
X79494147Y-27536900D01*
X79558297Y-27691772D01*
X79591000Y-27856184D01*
X79591000Y-28023816D01*
X79558297Y-28188228D01*
X79494147Y-28343100D01*
X79401015Y-28482481D01*
X79282481Y-28601015D01*
X79143100Y-28694147D01*
X78988228Y-28758297D01*
X78823816Y-28791000D01*
X78656184Y-28791000D01*
X78491772Y-28758297D01*
X78336900Y-28694147D01*
X78197519Y-28601015D01*
X78078985Y-28482481D01*
X77985853Y-28343100D01*
X77921703Y-28188228D01*
X77889000Y-28023816D01*
X77889000Y-27856184D01*
X77921703Y-27691772D01*
X77985853Y-27536900D01*
X78078985Y-27397519D01*
X78197519Y-27278985D01*
X78336900Y-27185853D01*
X78491772Y-27121703D01*
X78656184Y-27089000D01*
X78823816Y-27089000D01*
X78988228Y-27121703D01*
G37*
G36*
X84068228Y-27121703D02*
G01*
X84223100Y-27185853D01*
X84362481Y-27278985D01*
X84481015Y-27397519D01*
X84574147Y-27536900D01*
X84638297Y-27691772D01*
X84671000Y-27856184D01*
X84671000Y-28023816D01*
X84638297Y-28188228D01*
X84574147Y-28343100D01*
X84481015Y-28482481D01*
X84362481Y-28601015D01*
X84223100Y-28694147D01*
X84068228Y-28758297D01*
X83903816Y-28791000D01*
X83736184Y-28791000D01*
X83571772Y-28758297D01*
X83416900Y-28694147D01*
X83277519Y-28601015D01*
X83158985Y-28482481D01*
X83065853Y-28343100D01*
X83001703Y-28188228D01*
X82969000Y-28023816D01*
X82969000Y-27856184D01*
X83001703Y-27691772D01*
X83065853Y-27536900D01*
X83158985Y-27397519D01*
X83277519Y-27278985D01*
X83416900Y-27185853D01*
X83571772Y-27121703D01*
X83736184Y-27089000D01*
X83903816Y-27089000D01*
X84068228Y-27121703D01*
G37*
G36*
X71368228Y-27121703D02*
G01*
X71523100Y-27185853D01*
X71662481Y-27278985D01*
X71781015Y-27397519D01*
X71874147Y-27536900D01*
X71938297Y-27691772D01*
X71971000Y-27856184D01*
X71971000Y-28023816D01*
X71938297Y-28188228D01*
X71874147Y-28343100D01*
X71781015Y-28482481D01*
X71662481Y-28601015D01*
X71523100Y-28694147D01*
X71368228Y-28758297D01*
X71203816Y-28791000D01*
X71036184Y-28791000D01*
X70871772Y-28758297D01*
X70716900Y-28694147D01*
X70577519Y-28601015D01*
X70458985Y-28482481D01*
X70365853Y-28343100D01*
X70301703Y-28188228D01*
X70269000Y-28023816D01*
X70269000Y-27856184D01*
X70301703Y-27691772D01*
X70365853Y-27536900D01*
X70458985Y-27397519D01*
X70577519Y-27278985D01*
X70716900Y-27185853D01*
X70871772Y-27121703D01*
X71036184Y-27089000D01*
X71203816Y-27089000D01*
X71368228Y-27121703D01*
G37*
G36*
X86608228Y-27121703D02*
G01*
X86763100Y-27185853D01*
X86902481Y-27278985D01*
X87021015Y-27397519D01*
X87114147Y-27536900D01*
X87178297Y-27691772D01*
X87211000Y-27856184D01*
X87211000Y-28023816D01*
X87178297Y-28188228D01*
X87114147Y-28343100D01*
X87021015Y-28482481D01*
X86902481Y-28601015D01*
X86763100Y-28694147D01*
X86608228Y-28758297D01*
X86443816Y-28791000D01*
X86276184Y-28791000D01*
X86111772Y-28758297D01*
X85956900Y-28694147D01*
X85817519Y-28601015D01*
X85698985Y-28482481D01*
X85605853Y-28343100D01*
X85541703Y-28188228D01*
X85509000Y-28023816D01*
X85509000Y-27856184D01*
X85541703Y-27691772D01*
X85605853Y-27536900D01*
X85698985Y-27397519D01*
X85817519Y-27278985D01*
X85956900Y-27185853D01*
X86111772Y-27121703D01*
X86276184Y-27089000D01*
X86443816Y-27089000D01*
X86608228Y-27121703D01*
G37*
G36*
X89148228Y-27121703D02*
G01*
X89303100Y-27185853D01*
X89442481Y-27278985D01*
X89561015Y-27397519D01*
X89654147Y-27536900D01*
X89718297Y-27691772D01*
X89751000Y-27856184D01*
X89751000Y-28023816D01*
X89718297Y-28188228D01*
X89654147Y-28343100D01*
X89561015Y-28482481D01*
X89442481Y-28601015D01*
X89303100Y-28694147D01*
X89148228Y-28758297D01*
X88983816Y-28791000D01*
X88816184Y-28791000D01*
X88651772Y-28758297D01*
X88496900Y-28694147D01*
X88357519Y-28601015D01*
X88238985Y-28482481D01*
X88145853Y-28343100D01*
X88081703Y-28188228D01*
X88049000Y-28023816D01*
X88049000Y-27856184D01*
X88081703Y-27691772D01*
X88145853Y-27536900D01*
X88238985Y-27397519D01*
X88357519Y-27278985D01*
X88496900Y-27185853D01*
X88651772Y-27121703D01*
X88816184Y-27089000D01*
X88983816Y-27089000D01*
X89148228Y-27121703D01*
G37*
G36*
X22449549Y-26176116D02*
G01*
X22560734Y-26198232D01*
X22770203Y-26284997D01*
X22958720Y-26410960D01*
X23119040Y-26571280D01*
X23245003Y-26759797D01*
X23245004Y-26759799D01*
X23331768Y-26969267D01*
X23374850Y-27185852D01*
X23376000Y-27191636D01*
X23376000Y-27418364D01*
X23331768Y-27640734D01*
X23245003Y-27850203D01*
X23119040Y-28038720D01*
X22958720Y-28199040D01*
X22770203Y-28325003D01*
X22560734Y-28411768D01*
X22449549Y-28433884D01*
X22338365Y-28456000D01*
X22111635Y-28456000D01*
X22000451Y-28433884D01*
X21889266Y-28411768D01*
X21679797Y-28325003D01*
X21491280Y-28199040D01*
X21330960Y-28038720D01*
X21204997Y-27850203D01*
X21118232Y-27640734D01*
X21074000Y-27418364D01*
X21074000Y-27191636D01*
X21075151Y-27185852D01*
X21118232Y-26969267D01*
X21204996Y-26759799D01*
X21204997Y-26759797D01*
X21330960Y-26571280D01*
X21491280Y-26410960D01*
X21679797Y-26284997D01*
X21889266Y-26198232D01*
X22000451Y-26176116D01*
X22111635Y-26154000D01*
X22338365Y-26154000D01*
X22449549Y-26176116D01*
G37*
G36*
X94839549Y-26176116D02*
G01*
X94950734Y-26198232D01*
X95160203Y-26284997D01*
X95348720Y-26410960D01*
X95509040Y-26571280D01*
X95635003Y-26759797D01*
X95635004Y-26759799D01*
X95721768Y-26969267D01*
X95764850Y-27185852D01*
X95766000Y-27191636D01*
X95766000Y-27418364D01*
X95721768Y-27640734D01*
X95635003Y-27850203D01*
X95509040Y-28038720D01*
X95348720Y-28199040D01*
X95160203Y-28325003D01*
X94950734Y-28411768D01*
X94839549Y-28433884D01*
X94728365Y-28456000D01*
X94501635Y-28456000D01*
X94390451Y-28433884D01*
X94279266Y-28411768D01*
X94069797Y-28325003D01*
X93881280Y-28199040D01*
X93720960Y-28038720D01*
X93594997Y-27850203D01*
X93508232Y-27640734D01*
X93464000Y-27418364D01*
X93464000Y-27191636D01*
X93465151Y-27185852D01*
X93508232Y-26969267D01*
X93594996Y-26759799D01*
X93594997Y-26759797D01*
X93720960Y-26571280D01*
X93881280Y-26410960D01*
X94069797Y-26284997D01*
X94279266Y-26198232D01*
X94390451Y-26176116D01*
X94501635Y-26154000D01*
X94728365Y-26154000D01*
X94839549Y-26176116D01*
G37*
M02*
